<ttFont>
    <TTGlyph name=".notdef" xMin="193" yMin="0" xMax="1034" yMax="1462">
      <contour>
        <pt x="193" y="1462" on="1"/>
        <pt x="1034" y="1462" on="1"/>
        <pt x="1034" y="0" on="1"/>
        <pt x="193" y="0" on="1"/>
      </contour>
      <contour>
        <pt x="297" y="104" on="1"/>
        <pt x="930" y="104" on="1"/>
        <pt x="930" y="1358" on="1"/>
        <pt x="297" y="1358" on="1"/>
      </contour>
    </TTGlyph>
    <TTGlyph name="uni0E01" xMin="123" yMin="0" xMax="1182" yMax="1147">
      <contour>
        <pt x="156" y="0" on="1"/>
        <pt x="156" y="393" on="1"/>
        <pt x="156" y="504" on="0"/>
        <pt x="272" y="624" on="0"/>
        <pt x="399" y="649" on="1"/>
        <pt x="359" y="680" on="0"/>
        <pt x="184" y="729" on="0"/>
        <pt x="123" y="729" on="1"/>
        <pt x="132" y="932" on="0"/>
        <pt x="400" y="1147" on="0"/>
        <pt x="649" y="1147" on="1"/>
        <pt x="918" y="1147" on="0"/>
        <pt x="1182" y="928" on="0"/>
        <pt x="1182" y="696" on="1"/>
        <pt x="1182" y="0" on="1"/>
        <pt x="897" y="0" on="1"/>
        <pt x="897" y="633" on="1"/>
        <pt x="897" y="790" on="0"/>
        <pt x="777" y="936" on="0"/>
        <pt x="655" y="936" on="1"/>
        <pt x="556" y="936" on="0"/>
        <pt x="429" y="882" on="0"/>
        <pt x="412" y="829" on="1"/>
        <pt x="479" y="819" on="0"/>
        <pt x="623" y="749" on="0"/>
        <pt x="647" y="717" on="1"/>
        <pt x="647" y="590" on="1"/>
        <pt x="538" y="563" on="0"/>
        <pt x="440" y="454" on="0"/>
        <pt x="440" y="369" on="1"/>
        <pt x="440" y="0" on="1"/>
      </contour>
    </TTGlyph>
    <TTGlyph name="uni0E02" xMin="25" yMin="0" xMax="1346" yMax="1147">
      <contour>
        <pt x="731" y="229" on="1"/>
        <pt x="885" y="229" on="1"/>
        <pt x="970" y="229" on="0"/>
        <pt x="1061" y="308" on="0"/>
        <pt x="1061" y="403" on="1"/>
        <pt x="1061" y="1126" on="1"/>
        <pt x="1346" y="1126" on="1"/>
        <pt x="1346" y="365" on="1"/>
        <pt x="1346" y="189" on="0"/>
        <pt x="1147" y="0" on="0"/>
        <pt x="961" y="0" on="1"/>
        <pt x="307" y="0" on="1"/>
        <pt x="307" y="188" on="1"/>
        <pt x="446" y="229" on="1"/>
        <pt x="446" y="449" on="1"/>
        <pt x="446" y="588" on="0"/>
        <pt x="540" y="771" on="0"/>
        <pt x="649" y="840" on="1"/>
        <pt x="632" y="918" on="0"/>
        <pt x="511" y="1010" on="0"/>
        <pt x="416" y="1010" on="1"/>
        <pt x="319" y="1010" on="0"/>
        <pt x="188" y="927" on="0"/>
        <pt x="168" y="844" on="1"/>
        <pt x="209" y="889" on="0"/>
        <pt x="270" y="889" on="1"/>
        <pt x="347" y="889" on="0"/>
        <pt x="438" y="792" on="0"/>
        <pt x="438" y="711" on="1"/>
        <pt x="438" y="627" on="0"/>
        <pt x="332" y="526" on="0"/>
        <pt x="246" y="526" on="1"/>
        <pt x="140" y="526" on="0"/>
        <pt x="25" y="652" on="0"/>
        <pt x="25" y="770" on="1"/>
        <pt x="25" y="946" on="0"/>
        <pt x="258" y="1147" on="0"/>
        <pt x="463" y="1147" on="1"/>
        <pt x="669" y="1147" on="0"/>
        <pt x="917" y="960" on="0"/>
        <pt x="936" y="791" on="1"/>
        <pt x="813" y="721" on="0"/>
        <pt x="731" y="584" on="0"/>
        <pt x="731" y="459" on="1"/>
      </contour>
      <contour>
        <pt x="317" y="709" on="1"/>
        <pt x="317" y="743" on="0"/>
        <pt x="278" y="784" on="0"/>
        <pt x="244" y="784" on="1"/>
        <pt x="210" y="784" on="0"/>
        <pt x="172" y="743" on="0"/>
        <pt x="172" y="709" on="1"/>
        <pt x="172" y="674" on="0"/>
        <pt x="210" y="633" on="0"/>
        <pt x="244" y="633" on="1"/>
        <pt x="278" y="633" on="0"/>
        <pt x="317" y="674" on="0"/>
      </contour>
    </TTGlyph>
    <TTGlyph name="uni0E03" xMin="25" yMin="0" xMax="1346" yMax="1147">
      <contour>
        <pt x="731" y="229" on="1"/>
        <pt x="885" y="229" on="1"/>
        <pt x="970" y="229" on="0"/>
        <pt x="1061" y="308" on="0"/>
        <pt x="1061" y="403" on="1"/>
        <pt x="1061" y="1126" on="1"/>
        <pt x="1346" y="1126" on="1"/>
        <pt x="1346" y="365" on="1"/>
        <pt x="1346" y="189" on="0"/>
        <pt x="1147" y="0" on="0"/>
        <pt x="961" y="0" on="1"/>
        <pt x="307" y="0" on="1"/>
        <pt x="307" y="188" on="1"/>
        <pt x="446" y="229" on="1"/>
        <pt x="446" y="449" on="1"/>
        <pt x="446" y="588" on="0"/>
        <pt x="540" y="771" on="0"/>
        <pt x="649" y="840" on="1"/>
        <pt x="639" y="960" on="0"/>
        <pt x="561" y="987" on="1"/>
        <pt x="436" y="874" on="1"/>
        <pt x="299" y="993" on="1"/>
        <pt x="251" y="982" on="0"/>
        <pt x="176" y="903" on="0"/>
        <pt x="168" y="844" on="1"/>
        <pt x="209" y="889" on="0"/>
        <pt x="270" y="889" on="1"/>
        <pt x="347" y="889" on="0"/>
        <pt x="438" y="792" on="0"/>
        <pt x="438" y="711" on="1"/>
        <pt x="438" y="627" on="0"/>
        <pt x="332" y="526" on="0"/>
        <pt x="246" y="526" on="1"/>
        <pt x="140" y="526" on="0"/>
        <pt x="25" y="661" on="0"/>
        <pt x="25" y="778" on="1"/>
        <pt x="25" y="927" on="0"/>
        <pt x="176" y="1121" on="0"/>
        <pt x="315" y="1147" on="1"/>
        <pt x="438" y="1040" on="1"/>
        <pt x="555" y="1147" on="1"/>
        <pt x="716" y="1138" on="0"/>
        <pt x="917" y="951" on="0"/>
        <pt x="936" y="791" on="1"/>
        <pt x="813" y="721" on="0"/>
        <pt x="731" y="584" on="0"/>
        <pt x="731" y="459" on="1"/>
      </contour>
      <contour>
        <pt x="317" y="709" on="1"/>
        <pt x="317" y="743" on="0"/>
        <pt x="278" y="784" on="0"/>
        <pt x="244" y="784" on="1"/>
        <pt x="210" y="784" on="0"/>
        <pt x="172" y="743" on="0"/>
        <pt x="172" y="709" on="1"/>
        <pt x="172" y="674" on="0"/>
        <pt x="210" y="633" on="0"/>
        <pt x="244" y="633" on="1"/>
        <pt x="278" y="633" on="0"/>
        <pt x="317" y="674" on="0"/>
      </contour>
    </TTGlyph>
    <TTGlyph name="uni0E04" xMin="102" yMin="0" xMax="1253" yMax="1147">
      <contour>
        <pt x="784" y="569" on="1"/>
        <pt x="784" y="610" on="0"/>
        <pt x="737" y="653" on="0"/>
        <pt x="698" y="653" on="1"/>
        <pt x="663" y="653" on="0"/>
        <pt x="614" y="610" on="0"/>
        <pt x="614" y="569" on="1"/>
        <pt x="614" y="531" on="0"/>
        <pt x="663" y="485" on="0"/>
        <pt x="698" y="485" on="1"/>
        <pt x="737" y="485" on="0"/>
        <pt x="784" y="531" on="0"/>
      </contour>
      <contour>
        <pt x="420" y="469" on="1"/>
        <pt x="474" y="625" on="0"/>
        <pt x="607" y="760" on="0"/>
        <pt x="700" y="760" on="1"/>
        <pt x="797" y="760" on="0"/>
        <pt x="903" y="659" on="0"/>
        <pt x="903" y="569" on="1"/>
        <pt x="903" y="478" on="0"/>
        <pt x="799" y="379" on="0"/>
        <pt x="700" y="379" on="1"/>
        <pt x="655" y="379" on="0"/>
        <pt x="580" y="413" on="0"/>
        <pt x="561" y="436" on="1"/>
        <pt x="528" y="376" on="0"/>
        <pt x="496" y="275" on="0"/>
        <pt x="471" y="139" on="0"/>
        <pt x="471" y="57" on="1"/>
        <pt x="471" y="0" on="1"/>
        <pt x="186" y="0" on="1"/>
        <pt x="186" y="119" on="1"/>
        <pt x="186" y="309" on="0"/>
        <pt x="144" y="469" on="1"/>
        <pt x="120" y="562" on="0"/>
        <pt x="102" y="670" on="0"/>
        <pt x="102" y="729" on="1"/>
        <pt x="102" y="922" on="0"/>
        <pt x="412" y="1147" on="0"/>
        <pt x="678" y="1147" on="1"/>
        <pt x="961" y="1147" on="0"/>
        <pt x="1253" y="917" on="0"/>
        <pt x="1253" y="696" on="1"/>
        <pt x="1253" y="0" on="1"/>
        <pt x="969" y="0" on="1"/>
        <pt x="969" y="633" on="1"/>
        <pt x="969" y="774" on="0"/>
        <pt x="830" y="936" on="0"/>
        <pt x="690" y="936" on="1"/>
        <pt x="555" y="936" on="0"/>
        <pt x="385" y="801" on="0"/>
        <pt x="385" y="690" on="1"/>
        <pt x="385" y="604" on="0"/>
        <pt x="409" y="517" on="1"/>
      </contour>
    </TTGlyph>
    <TTGlyph name="uni0E05" xMin="102" yMin="0" xMax="1253" yMax="1171">
      <contour>
        <pt x="784" y="569" on="1"/>
        <pt x="784" y="610" on="0"/>
        <pt x="737" y="653" on="0"/>
        <pt x="698" y="653" on="1"/>
        <pt x="663" y="653" on="0"/>
        <pt x="614" y="610" on="0"/>
        <pt x="614" y="569" on="1"/>
        <pt x="614" y="531" on="0"/>
        <pt x="663" y="485" on="0"/>
        <pt x="698" y="485" on="1"/>
        <pt x="737" y="485" on="0"/>
        <pt x="784" y="531" on="0"/>
      </contour>
      <contour>
        <pt x="420" y="469" on="1"/>
        <pt x="474" y="625" on="0"/>
        <pt x="607" y="760" on="0"/>
        <pt x="700" y="760" on="1"/>
        <pt x="797" y="760" on="0"/>
        <pt x="903" y="659" on="0"/>
        <pt x="903" y="569" on="1"/>
        <pt x="903" y="478" on="0"/>
        <pt x="799" y="379" on="0"/>
        <pt x="700" y="379" on="1"/>
        <pt x="655" y="379" on="0"/>
        <pt x="580" y="413" on="0"/>
        <pt x="561" y="436" on="1"/>
        <pt x="528" y="376" on="0"/>
        <pt x="496" y="275" on="0"/>
        <pt x="471" y="139" on="0"/>
        <pt x="471" y="57" on="1"/>
        <pt x="471" y="0" on="1"/>
        <pt x="186" y="0" on="1"/>
        <pt x="186" y="119" on="1"/>
        <pt x="186" y="309" on="0"/>
        <pt x="144" y="469" on="1"/>
        <pt x="120" y="562" on="0"/>
        <pt x="102" y="670" on="0"/>
        <pt x="102" y="729" on="1"/>
        <pt x="102" y="896" on="0"/>
        <pt x="332" y="1134" on="0"/>
        <pt x="532" y="1171" on="1"/>
        <pt x="692" y="1040" on="1"/>
        <pt x="848" y="1171" on="1"/>
        <pt x="1049" y="1138" on="0"/>
        <pt x="1253" y="916" on="0"/>
        <pt x="1253" y="717" on="1"/>
        <pt x="1253" y="0" on="1"/>
        <pt x="969" y="0" on="1"/>
        <pt x="969" y="666" on="1"/>
        <pt x="969" y="790" on="0"/>
        <pt x="907" y="911" on="0"/>
        <pt x="834" y="944" on="1"/>
        <pt x="688" y="823" on="1"/>
        <pt x="541" y="944" on="1"/>
        <pt x="460" y="916" on="0"/>
        <pt x="385" y="787" on="0"/>
        <pt x="385" y="700" on="1"/>
        <pt x="385" y="628" on="0"/>
        <pt x="409" y="517" on="0"/>
      </contour>
    </TTGlyph>
    <TTGlyph name="uni0E06" xMin="25" yMin="-18" xMax="1311" yMax="1147">
      <contour>
        <pt x="446" y="469" on="1"/>
        <pt x="446" y="597" on="0"/>
        <pt x="533" y="765" on="0"/>
        <pt x="649" y="840" on="1"/>
        <pt x="639" y="960" on="0"/>
        <pt x="561" y="987" on="1"/>
        <pt x="436" y="874" on="1"/>
        <pt x="299" y="993" on="1"/>
        <pt x="251" y="982" on="0"/>
        <pt x="176" y="903" on="0"/>
        <pt x="168" y="844" on="1"/>
        <pt x="209" y="889" on="0"/>
        <pt x="270" y="889" on="1"/>
        <pt x="347" y="889" on="0"/>
        <pt x="438" y="792" on="0"/>
        <pt x="438" y="711" on="1"/>
        <pt x="438" y="627" on="0"/>
        <pt x="332" y="526" on="0"/>
        <pt x="246" y="526" on="1"/>
        <pt x="140" y="526" on="0"/>
        <pt x="25" y="661" on="0"/>
        <pt x="25" y="778" on="1"/>
        <pt x="25" y="927" on="0"/>
        <pt x="176" y="1121" on="0"/>
        <pt x="315" y="1147" on="1"/>
        <pt x="438" y="1040" on="1"/>
        <pt x="555" y="1147" on="1"/>
        <pt x="716" y="1138" on="0"/>
        <pt x="917" y="951" on="0"/>
        <pt x="936" y="791" on="1"/>
        <pt x="843" y="738" on="0"/>
        <pt x="764" y="658" on="0"/>
        <pt x="731" y="559" on="0"/>
        <pt x="731" y="479" on="1"/>
        <pt x="731" y="438" on="1"/>
        <pt x="801" y="427" on="0"/>
        <pt x="966" y="346" on="0"/>
        <pt x="1026" y="287" on="1"/>
        <pt x="1026" y="1124" on="1"/>
        <pt x="1311" y="1124" on="1"/>
        <pt x="1311" y="0" on="1"/>
        <pt x="1047" y="0" on="1"/>
        <pt x="982" y="116" on="0"/>
        <pt x="810" y="273" on="0"/>
        <pt x="731" y="291" on="1"/>
        <pt x="731" y="256" on="1"/>
        <pt x="731" y="116" on="0"/>
        <pt x="585" y="-18" on="0"/>
        <pt x="434" y="-18" on="1"/>
        <pt x="304" y="-18" on="0"/>
        <pt x="178" y="90" on="0"/>
        <pt x="178" y="186" on="1"/>
        <pt x="178" y="287" on="0"/>
        <pt x="322" y="423" on="0"/>
        <pt x="446" y="440" on="1"/>
      </contour>
      <contour>
        <pt x="317" y="709" on="1"/>
        <pt x="317" y="743" on="0"/>
        <pt x="278" y="784" on="0"/>
        <pt x="244" y="784" on="1"/>
        <pt x="210" y="784" on="0"/>
        <pt x="172" y="743" on="0"/>
        <pt x="172" y="709" on="1"/>
        <pt x="172" y="674" on="0"/>
        <pt x="210" y="633" on="0"/>
        <pt x="244" y="633" on="1"/>
        <pt x="278" y="633" on="0"/>
        <pt x="317" y="674" on="0"/>
      </contour>
      <contour>
        <pt x="344" y="182" on="1"/>
        <pt x="344" y="151" on="0"/>
        <pt x="372" y="113" on="0"/>
        <pt x="393" y="113" on="1"/>
        <pt x="446" y="113" on="0"/>
        <pt x="446" y="188" on="1"/>
        <pt x="446" y="307" on="1"/>
        <pt x="401" y="299" on="0"/>
        <pt x="344" y="228" on="0"/>
      </contour>
    </TTGlyph>
    <TTGlyph name="uni0E07" xMin="29" yMin="-20" xMax="907" yMax="1137">
      <contour>
        <pt x="623" y="756" on="1"/>
        <pt x="538" y="758" on="0"/>
        <pt x="438" y="860" on="0"/>
        <pt x="438" y="940" on="1"/>
        <pt x="438" y="1029" on="0"/>
        <pt x="554" y="1137" on="0"/>
        <pt x="651" y="1137" on="1"/>
        <pt x="776" y="1137" on="0"/>
        <pt x="907" y="984" on="0"/>
        <pt x="907" y="838" on="1"/>
        <pt x="907" y="299" on="1"/>
        <pt x="907" y="142" on="0"/>
        <pt x="741" y="-20" on="0"/>
        <pt x="561" y="-20" on="1"/>
        <pt x="445" y="-20" on="0"/>
        <pt x="308" y="39" on="0"/>
        <pt x="218" y="177" on="0"/>
        <pt x="174" y="332" on="1"/>
        <pt x="152" y="407" on="0"/>
        <pt x="111" y="490" on="0"/>
        <pt x="70" y="526" on="0"/>
        <pt x="29" y="526" on="1"/>
        <pt x="29" y="737" on="1"/>
        <pt x="69" y="745" on="0"/>
        <pt x="98" y="745" on="1"/>
        <pt x="224" y="745" on="0"/>
        <pt x="364" y="611" on="0"/>
        <pt x="420" y="442" on="1"/>
        <pt x="469" y="292" on="0"/>
        <pt x="501" y="219" on="0"/>
        <pt x="531" y="190" on="0"/>
        <pt x="557" y="190" on="1"/>
        <pt x="589" y="190" on="0"/>
        <pt x="623" y="239" on="0"/>
        <pt x="623" y="301" on="1"/>
      </contour>
      <contour>
        <pt x="557" y="946" on="1"/>
        <pt x="557" y="909" on="0"/>
        <pt x="605" y="864" on="0"/>
        <pt x="643" y="864" on="1"/>
        <pt x="678" y="864" on="0"/>
        <pt x="727" y="909" on="0"/>
        <pt x="727" y="946" on="1"/>
        <pt x="727" y="984" on="0"/>
        <pt x="678" y="1030" on="0"/>
        <pt x="643" y="1030" on="1"/>
        <pt x="605" y="1030" on="0"/>
        <pt x="557" y="984" on="0"/>
      </contour>
    </TTGlyph>
    <TTGlyph name="uni0E08" xMin="72" yMin="-20" xMax="1087" yMax="1147">
      <contour>
        <pt x="1087" y="299" on="1"/>
        <pt x="1087" y="142" on="0"/>
        <pt x="918" y="-20" on="0"/>
        <pt x="737" y="-20" on="1"/>
        <pt x="635" y="-20" on="0"/>
        <pt x="505" y="28" on="0"/>
        <pt x="417" y="135" on="0"/>
        <pt x="373" y="254" on="1"/>
        <pt x="336" y="354" on="1"/>
        <pt x="319" y="348" on="0"/>
        <pt x="272" y="348" on="1"/>
        <pt x="180" y="348" on="0"/>
        <pt x="72" y="446" on="0"/>
        <pt x="72" y="532" on="1"/>
        <pt x="72" y="625" on="0"/>
        <pt x="199" y="735" on="0"/>
        <pt x="303" y="735" on="1"/>
        <pt x="397" y="735" on="0"/>
        <pt x="521" y="641" on="0"/>
        <pt x="557" y="537" on="1"/>
        <pt x="618" y="360" on="1"/>
        <pt x="655" y="256" on="0"/>
        <pt x="699" y="190" on="0"/>
        <pt x="733" y="190" on="1"/>
        <pt x="769" y="190" on="0"/>
        <pt x="803" y="242" on="0"/>
        <pt x="803" y="301" on="1"/>
        <pt x="803" y="647" on="1"/>
        <pt x="803" y="785" on="0"/>
        <pt x="671" y="922" on="0"/>
        <pt x="530" y="922" on="1"/>
        <pt x="383" y="922" on="0"/>
        <pt x="180" y="811" on="1"/>
        <pt x="82" y="1008" on="1"/>
        <pt x="310" y="1147" on="0"/>
        <pt x="594" y="1147" on="1"/>
        <pt x="835" y="1147" on="0"/>
        <pt x="1087" y="912" on="0"/>
        <pt x="1087" y="684" on="1"/>
      </contour>
      <contour>
        <pt x="190" y="537" on="1"/>
        <pt x="190" y="499" on="0"/>
        <pt x="238" y="455" on="0"/>
        <pt x="276" y="455" on="1"/>
        <pt x="312" y="455" on="0"/>
        <pt x="360" y="499" on="0"/>
        <pt x="360" y="537" on="1"/>
        <pt x="360" y="575" on="0"/>
        <pt x="312" y="621" on="0"/>
        <pt x="276" y="621" on="1"/>
        <pt x="238" y="621" on="0"/>
        <pt x="190" y="575" on="0"/>
      </contour>
    </TTGlyph>
    <TTGlyph name="uni0E09" xMin="25" yMin="-18" xMax="1341" yMax="1147">
      <contour>
        <pt x="143" y="573" on="1"/>
        <pt x="143" y="536" on="0"/>
        <pt x="189" y="492" on="0"/>
        <pt x="229" y="492" on="1"/>
        <pt x="264" y="492" on="0"/>
        <pt x="313" y="536" on="0"/>
        <pt x="313" y="573" on="1"/>
        <pt x="313" y="612" on="0"/>
        <pt x="264" y="657" on="0"/>
        <pt x="229" y="657" on="1"/>
        <pt x="189" y="657" on="0"/>
        <pt x="143" y="612" on="0"/>
      </contour>
      <contour>
        <pt x="209" y="383" on="1"/>
        <pt x="122" y="386" on="0"/>
        <pt x="25" y="487" on="0"/>
        <pt x="25" y="567" on="1"/>
        <pt x="25" y="660" on="0"/>
        <pt x="141" y="764" on="0"/>
        <pt x="248" y="764" on="1"/>
        <pt x="367" y="764" on="0"/>
        <pt x="494" y="605" on="0"/>
        <pt x="494" y="465" on="1"/>
        <pt x="494" y="287" on="1"/>
        <pt x="547" y="342" on="0"/>
        <pt x="715" y="426" on="0"/>
        <pt x="788" y="438" on="1"/>
        <pt x="788" y="637" on="1"/>
        <pt x="788" y="922" on="0"/>
        <pt x="526" y="922" on="1"/>
        <pt x="356" y="922" on="0"/>
        <pt x="145" y="821" on="1"/>
        <pt x="53" y="1018" on="1"/>
        <pt x="176" y="1086" on="0"/>
        <pt x="433" y="1147" on="0"/>
        <pt x="586" y="1147" on="1"/>
        <pt x="1073" y="1147" on="0"/>
        <pt x="1073" y="674" on="1"/>
        <pt x="1073" y="440" on="1"/>
        <pt x="1199" y="423" on="0"/>
        <pt x="1341" y="287" on="0"/>
        <pt x="1341" y="186" on="1"/>
        <pt x="1341" y="90" on="0"/>
        <pt x="1215" y="-18" on="0"/>
        <pt x="1085" y="-18" on="1"/>
        <pt x="933" y="-18" on="0"/>
        <pt x="788" y="116" on="0"/>
        <pt x="788" y="256" on="1"/>
        <pt x="788" y="291" on="1"/>
        <pt x="709" y="274" on="0"/>
        <pt x="538" y="111" on="0"/>
        <pt x="477" y="0" on="1"/>
        <pt x="209" y="0" on="1"/>
      </contour>
      <contour>
        <pt x="1176" y="182" on="1"/>
        <pt x="1176" y="228" on="0"/>
        <pt x="1120" y="298" on="0"/>
        <pt x="1073" y="307" on="1"/>
        <pt x="1073" y="188" on="1"/>
        <pt x="1073" y="113" on="0"/>
        <pt x="1126" y="113" on="1"/>
        <pt x="1148" y="113" on="0"/>
        <pt x="1176" y="151" on="0"/>
      </contour>
    </TTGlyph>
    <TTGlyph name="uni0E0A" xMin="25" yMin="0" xMax="1536" yMax="1206">
      <contour>
        <pt x="1061" y="621" on="1"/>
        <pt x="1061" y="687" on="0"/>
        <pt x="1007" y="768" on="0"/>
        <pt x="967" y="786" on="1"/>
        <pt x="967" y="915" on="1"/>
        <pt x="1045" y="936" on="0"/>
        <pt x="1143" y="1027" on="0"/>
        <pt x="1188" y="1106" on="1"/>
        <pt x="1245" y="1206" on="1"/>
        <pt x="1536" y="1206" on="1"/>
        <pt x="1470" y="1096" on="1"/>
        <pt x="1388" y="958" on="0"/>
        <pt x="1285" y="858" on="0"/>
        <pt x="1225" y="842" on="1"/>
        <pt x="1285" y="822" on="0"/>
        <pt x="1346" y="730" on="0"/>
        <pt x="1346" y="670" on="1"/>
        <pt x="1346" y="365" on="1"/>
        <pt x="1346" y="189" on="0"/>
        <pt x="1147" y="0" on="0"/>
        <pt x="961" y="0" on="1"/>
        <pt x="307" y="0" on="1"/>
        <pt x="307" y="188" on="1"/>
        <pt x="446" y="229" on="1"/>
        <pt x="446" y="449" on="1"/>
        <pt x="446" y="624" on="0"/>
        <pt x="517" y="802" on="0"/>
        <pt x="618" y="881" on="1"/>
        <pt x="604" y="947" on="0"/>
        <pt x="493" y="1010" on="0"/>
        <pt x="416" y="1010" on="1"/>
        <pt x="319" y="1010" on="0"/>
        <pt x="188" y="927" on="0"/>
        <pt x="168" y="844" on="1"/>
        <pt x="209" y="889" on="0"/>
        <pt x="270" y="889" on="1"/>
        <pt x="347" y="889" on="0"/>
        <pt x="438" y="792" on="0"/>
        <pt x="438" y="711" on="1"/>
        <pt x="438" y="627" on="0"/>
        <pt x="332" y="526" on="0"/>
        <pt x="246" y="526" on="1"/>
        <pt x="140" y="526" on="0"/>
        <pt x="25" y="652" on="0"/>
        <pt x="25" y="770" on="1"/>
        <pt x="25" y="946" on="0"/>
        <pt x="258" y="1147" on="0"/>
        <pt x="463" y="1147" on="1"/>
        <pt x="671" y="1147" on="0"/>
        <pt x="882" y="1000" on="0"/>
        <pt x="905" y="831" on="1"/>
        <pt x="833" y="775" on="0"/>
        <pt x="761" y="679" on="0"/>
        <pt x="731" y="564" on="0"/>
        <pt x="731" y="459" on="1"/>
        <pt x="731" y="229" on="1"/>
        <pt x="885" y="229" on="1"/>
        <pt x="970" y="229" on="0"/>
        <pt x="1061" y="308" on="0"/>
        <pt x="1061" y="403" on="1"/>
      </contour>
      <contour>
        <pt x="317" y="709" on="1"/>
        <pt x="317" y="743" on="0"/>
        <pt x="278" y="784" on="0"/>
        <pt x="244" y="784" on="1"/>
        <pt x="210" y="784" on="0"/>
        <pt x="172" y="743" on="0"/>
        <pt x="172" y="709" on="1"/>
        <pt x="172" y="674" on="0"/>
        <pt x="210" y="633" on="0"/>
        <pt x="244" y="633" on="1"/>
        <pt x="278" y="633" on="0"/>
        <pt x="317" y="674" on="0"/>
      </contour>
    </TTGlyph>
    <TTGlyph name="uni0E0B" xMin="25" yMin="0" xMax="1536" yMax="1206">
      <contour>
        <pt x="317" y="709" on="1"/>
        <pt x="317" y="743" on="0"/>
        <pt x="278" y="784" on="0"/>
        <pt x="244" y="784" on="1"/>
        <pt x="210" y="784" on="0"/>
        <pt x="172" y="743" on="0"/>
        <pt x="172" y="709" on="1"/>
        <pt x="172" y="674" on="0"/>
        <pt x="210" y="633" on="0"/>
        <pt x="244" y="633" on="1"/>
        <pt x="278" y="633" on="0"/>
        <pt x="317" y="674" on="0"/>
      </contour>
      <contour>
        <pt x="1061" y="621" on="1"/>
        <pt x="1061" y="687" on="0"/>
        <pt x="1007" y="768" on="0"/>
        <pt x="967" y="786" on="1"/>
        <pt x="967" y="915" on="1"/>
        <pt x="1045" y="936" on="0"/>
        <pt x="1143" y="1027" on="0"/>
        <pt x="1188" y="1106" on="1"/>
        <pt x="1245" y="1206" on="1"/>
        <pt x="1536" y="1206" on="1"/>
        <pt x="1470" y="1096" on="1"/>
        <pt x="1388" y="958" on="0"/>
        <pt x="1285" y="858" on="0"/>
        <pt x="1225" y="842" on="1"/>
        <pt x="1285" y="822" on="0"/>
        <pt x="1346" y="730" on="0"/>
        <pt x="1346" y="670" on="1"/>
        <pt x="1346" y="365" on="1"/>
        <pt x="1346" y="189" on="0"/>
        <pt x="1147" y="0" on="0"/>
        <pt x="961" y="0" on="1"/>
        <pt x="307" y="0" on="1"/>
        <pt x="307" y="188" on="1"/>
        <pt x="446" y="229" on="1"/>
        <pt x="446" y="469" on="1"/>
        <pt x="446" y="626" on="0"/>
        <pt x="521" y="807" on="0"/>
        <pt x="618" y="881" on="1"/>
        <pt x="618" y="923" on="0"/>
        <pt x="579" y="978" on="0"/>
        <pt x="553" y="989" on="1"/>
        <pt x="436" y="877" on="1"/>
        <pt x="299" y="993" on="1"/>
        <pt x="251" y="982" on="0"/>
        <pt x="176" y="903" on="0"/>
        <pt x="168" y="844" on="1"/>
        <pt x="209" y="889" on="0"/>
        <pt x="270" y="889" on="1"/>
        <pt x="347" y="889" on="0"/>
        <pt x="438" y="792" on="0"/>
        <pt x="438" y="711" on="1"/>
        <pt x="438" y="627" on="0"/>
        <pt x="332" y="526" on="0"/>
        <pt x="246" y="526" on="1"/>
        <pt x="140" y="526" on="0"/>
        <pt x="25" y="661" on="0"/>
        <pt x="25" y="778" on="1"/>
        <pt x="25" y="927" on="0"/>
        <pt x="176" y="1121" on="0"/>
        <pt x="315" y="1147" on="1"/>
        <pt x="438" y="1040" on="1"/>
        <pt x="555" y="1147" on="1"/>
        <pt x="706" y="1141" on="0"/>
        <pt x="888" y="978" on="0"/>
        <pt x="905" y="829" on="1"/>
        <pt x="802" y="753" on="0"/>
        <pt x="731" y="603" on="0"/>
        <pt x="731" y="479" on="1"/>
        <pt x="731" y="229" on="1"/>
        <pt x="885" y="229" on="1"/>
        <pt x="970" y="229" on="0"/>
        <pt x="1061" y="308" on="0"/>
        <pt x="1061" y="403" on="1"/>
      </contour>
    </TTGlyph>
    <TTGlyph name="uni0E0C" xMin="123" yMin="-18" xMax="1810" yMax="1147">
      <contour>
        <pt x="1235" y="438" on="1"/>
        <pt x="1305" y="427" on="0"/>
        <pt x="1468" y="345" on="0"/>
        <pt x="1526" y="287" on="1"/>
        <pt x="1526" y="1126" on="1"/>
        <pt x="1810" y="1126" on="1"/>
        <pt x="1810" y="0" on="1"/>
        <pt x="1546" y="0" on="1"/>
        <pt x="1485" y="113" on="0"/>
        <pt x="1314" y="274" on="0"/>
        <pt x="1235" y="291" on="1"/>
        <pt x="1235" y="256" on="1"/>
        <pt x="1235" y="116" on="0"/>
        <pt x="1089" y="-18" on="0"/>
        <pt x="938" y="-18" on="1"/>
        <pt x="808" y="-18" on="0"/>
        <pt x="682" y="90" on="0"/>
        <pt x="682" y="186" on="1"/>
        <pt x="682" y="287" on="0"/>
        <pt x="825" y="424" on="0"/>
        <pt x="950" y="440" on="1"/>
        <pt x="950" y="645" on="1"/>
        <pt x="950" y="798" on="0"/>
        <pt x="807" y="936" on="0"/>
        <pt x="657" y="936" on="1"/>
        <pt x="559" y="936" on="0"/>
        <pt x="427" y="879" on="0"/>
        <pt x="412" y="829" on="1"/>
        <pt x="479" y="819" on="0"/>
        <pt x="623" y="749" on="0"/>
        <pt x="647" y="717" on="1"/>
        <pt x="647" y="590" on="1"/>
        <pt x="511" y="555" on="0"/>
        <pt x="418" y="465" on="0"/>
        <pt x="418" y="393" on="1"/>
        <pt x="418" y="362" on="1"/>
        <pt x="507" y="357" on="0"/>
        <pt x="604" y="260" on="0"/>
        <pt x="604" y="178" on="1"/>
        <pt x="604" y="88" on="0"/>
        <pt x="486" y="-18" on="0"/>
        <pt x="391" y="-18" on="1"/>
        <pt x="133" y="-18" on="0"/>
        <pt x="133" y="260" on="1"/>
        <pt x="133" y="373" on="1"/>
        <pt x="133" y="488" on="0"/>
        <pt x="266" y="623" on="0"/>
        <pt x="399" y="649" on="1"/>
        <pt x="359" y="680" on="0"/>
        <pt x="184" y="729" on="0"/>
        <pt x="123" y="729" on="1"/>
        <pt x="132" y="932" on="0"/>
        <pt x="413" y="1147" on="0"/>
        <pt x="676" y="1147" on="1"/>
        <pt x="959" y="1147" on="0"/>
        <pt x="1235" y="929" on="0"/>
        <pt x="1235" y="698" on="1"/>
      </contour>
      <contour>
        <pt x="485" y="172" on="1"/>
        <pt x="485" y="209" on="0"/>
        <pt x="438" y="254" on="0"/>
        <pt x="399" y="254" on="1"/>
        <pt x="364" y="254" on="0"/>
        <pt x="315" y="209" on="0"/>
        <pt x="315" y="172" on="1"/>
        <pt x="315" y="134" on="0"/>
        <pt x="364" y="88" on="0"/>
        <pt x="399" y="88" on="1"/>
        <pt x="438" y="88" on="0"/>
        <pt x="485" y="134" on="0"/>
      </contour>
      <contour>
        <pt x="848" y="182" on="1"/>
        <pt x="848" y="151" on="0"/>
        <pt x="875" y="113" on="0"/>
        <pt x="897" y="113" on="1"/>
        <pt x="950" y="113" on="0"/>
        <pt x="950" y="188" on="1"/>
        <pt x="950" y="307" on="1"/>
        <pt x="905" y="299" on="0"/>
        <pt x="848" y="228" on="0"/>
      </contour>
    </TTGlyph>
    <TTGlyph name="uni0E0D" xMin="123" yMin="-485" xMax="1735" yMax="1147">
      <contour>
        <pt x="1735" y="365" on="1"/>
        <pt x="1735" y="182" on="0"/>
        <pt x="1548" y="0" on="0"/>
        <pt x="1368" y="0" on="1"/>
        <pt x="874" y="0" on="1"/>
        <pt x="874" y="633" on="1"/>
        <pt x="874" y="790" on="0"/>
        <pt x="759" y="936" on="0"/>
        <pt x="643" y="936" on="1"/>
        <pt x="446" y="936" on="0"/>
        <pt x="412" y="829" on="1"/>
        <pt x="479" y="819" on="0"/>
        <pt x="623" y="749" on="0"/>
        <pt x="647" y="717" on="1"/>
        <pt x="647" y="590" on="1"/>
        <pt x="511" y="555" on="0"/>
        <pt x="418" y="465" on="0"/>
        <pt x="418" y="393" on="1"/>
        <pt x="418" y="362" on="1"/>
        <pt x="507" y="357" on="0"/>
        <pt x="604" y="260" on="0"/>
        <pt x="604" y="178" on="1"/>
        <pt x="604" y="88" on="0"/>
        <pt x="486" y="-18" on="0"/>
        <pt x="391" y="-18" on="1"/>
        <pt x="133" y="-18" on="0"/>
        <pt x="133" y="260" on="1"/>
        <pt x="133" y="373" on="1"/>
        <pt x="133" y="488" on="0"/>
        <pt x="266" y="623" on="0"/>
        <pt x="399" y="649" on="1"/>
        <pt x="359" y="680" on="0"/>
        <pt x="184" y="729" on="0"/>
        <pt x="123" y="729" on="1"/>
        <pt x="132" y="932" on="0"/>
        <pt x="400" y="1147" on="0"/>
        <pt x="649" y="1147" on="1"/>
        <pt x="907" y="1147" on="0"/>
        <pt x="1159" y="928" on="0"/>
        <pt x="1159" y="696" on="1"/>
        <pt x="1159" y="229" on="1"/>
        <pt x="1292" y="229" on="1"/>
        <pt x="1378" y="229" on="0"/>
        <pt x="1450" y="308" on="0"/>
        <pt x="1450" y="403" on="1"/>
        <pt x="1450" y="1126" on="1"/>
        <pt x="1735" y="1126" on="1"/>
      </contour>
      <contour>
        <pt x="485" y="172" on="1"/>
        <pt x="485" y="209" on="0"/>
        <pt x="438" y="254" on="0"/>
        <pt x="399" y="254" on="1"/>
        <pt x="364" y="254" on="0"/>
        <pt x="315" y="209" on="0"/>
        <pt x="315" y="172" on="1"/>
        <pt x="315" y="134" on="0"/>
        <pt x="364" y="88" on="0"/>
        <pt x="399" y="88" on="1"/>
        <pt x="438" y="88" on="0"/>
        <pt x="485" y="134" on="0"/>
      </contour>
      <contour>
        <pt x="1186" y="-485" on="1"/>
        <pt x="1052" y="-485" on="0"/>
        <pt x="899" y="-375" on="0"/>
        <pt x="899" y="-274" on="1"/>
        <pt x="899" y="-187" on="0"/>
        <pt x="1017" y="-84" on="0"/>
        <pt x="1108" y="-84" on="1"/>
        <pt x="1202" y="-84" on="0"/>
        <pt x="1313" y="-184" on="0"/>
        <pt x="1313" y="-264" on="1"/>
        <pt x="1313" y="-332" on="0"/>
        <pt x="1278" y="-365" on="1"/>
        <pt x="1359" y="-339" on="0"/>
        <pt x="1479" y="-214" on="0"/>
        <pt x="1524" y="-100" on="1"/>
        <pt x="1683" y="-100" on="1"/>
        <pt x="1605" y="-307" on="0"/>
        <pt x="1362" y="-485" on="0"/>
      </contour>
      <contour>
        <pt x="1022" y="-276" on="1"/>
        <pt x="1022" y="-314" on="0"/>
        <pt x="1068" y="-358" on="0"/>
        <pt x="1108" y="-358" on="1"/>
        <pt x="1143" y="-358" on="0"/>
        <pt x="1192" y="-314" on="0"/>
        <pt x="1192" y="-276" on="1"/>
        <pt x="1192" y="-236" on="0"/>
        <pt x="1143" y="-193" on="0"/>
        <pt x="1108" y="-193" on="1"/>
        <pt x="1068" y="-193" on="0"/>
        <pt x="1022" y="-236" on="0"/>
      </contour>
    </TTGlyph>
    <TTGlyph name="uni0E0D.alt1" xMin="123" yMin="-18" xMax="1735" yMax="1147">
      <contour>
        <pt x="1735" y="365" on="1"/>
        <pt x="1735" y="182" on="0"/>
        <pt x="1548" y="0" on="0"/>
        <pt x="1368" y="0" on="1"/>
        <pt x="874" y="0" on="1"/>
        <pt x="874" y="633" on="1"/>
        <pt x="874" y="790" on="0"/>
        <pt x="759" y="936" on="0"/>
        <pt x="643" y="936" on="1"/>
        <pt x="446" y="936" on="0"/>
        <pt x="412" y="829" on="1"/>
        <pt x="479" y="819" on="0"/>
        <pt x="623" y="749" on="0"/>
        <pt x="647" y="717" on="1"/>
        <pt x="647" y="590" on="1"/>
        <pt x="511" y="555" on="0"/>
        <pt x="418" y="465" on="0"/>
        <pt x="418" y="393" on="1"/>
        <pt x="418" y="362" on="1"/>
        <pt x="507" y="357" on="0"/>
        <pt x="604" y="260" on="0"/>
        <pt x="604" y="178" on="1"/>
        <pt x="604" y="88" on="0"/>
        <pt x="486" y="-18" on="0"/>
        <pt x="391" y="-18" on="1"/>
        <pt x="133" y="-18" on="0"/>
        <pt x="133" y="260" on="1"/>
        <pt x="133" y="373" on="1"/>
        <pt x="133" y="488" on="0"/>
        <pt x="266" y="623" on="0"/>
        <pt x="399" y="649" on="1"/>
        <pt x="359" y="680" on="0"/>
        <pt x="184" y="729" on="0"/>
        <pt x="123" y="729" on="1"/>
        <pt x="132" y="932" on="0"/>
        <pt x="400" y="1147" on="0"/>
        <pt x="649" y="1147" on="1"/>
        <pt x="907" y="1147" on="0"/>
        <pt x="1159" y="928" on="0"/>
        <pt x="1159" y="696" on="1"/>
        <pt x="1159" y="229" on="1"/>
        <pt x="1292" y="229" on="1"/>
        <pt x="1378" y="229" on="0"/>
        <pt x="1450" y="308" on="0"/>
        <pt x="1450" y="403" on="1"/>
        <pt x="1450" y="1126" on="1"/>
        <pt x="1735" y="1126" on="1"/>
      </contour>
      <contour>
        <pt x="485" y="172" on="1"/>
        <pt x="485" y="209" on="0"/>
        <pt x="438" y="254" on="0"/>
        <pt x="399" y="254" on="1"/>
        <pt x="364" y="254" on="0"/>
        <pt x="315" y="209" on="0"/>
        <pt x="315" y="172" on="1"/>
        <pt x="315" y="134" on="0"/>
        <pt x="364" y="88" on="0"/>
        <pt x="399" y="88" on="1"/>
        <pt x="438" y="88" on="0"/>
        <pt x="485" y="134" on="0"/>
      </contour>
    </TTGlyph>
    <TTGlyph name="uni0E0E" xMin="25" yMin="-520" xMax="1235" yMax="1147">
      <contour>
        <pt x="500" y="-215" on="1"/>
        <pt x="428" y="-215" on="0"/>
        <pt x="428" y="-287" on="1"/>
        <pt x="428" y="-324" on="0"/>
        <pt x="471" y="-360" on="0"/>
        <pt x="500" y="-360" on="1"/>
        <pt x="581" y="-360" on="0"/>
        <pt x="629" y="-260" on="1"/>
        <pt x="553" y="-215" on="0"/>
      </contour>
      <contour>
        <pt x="494" y="221" on="1"/>
        <pt x="494" y="107" on="0"/>
        <pt x="359" y="-18" on="0"/>
        <pt x="236" y="-18" on="1"/>
        <pt x="135" y="-18" on="0"/>
        <pt x="25" y="82" on="0"/>
        <pt x="25" y="172" on="1"/>
        <pt x="25" y="254" on="0"/>
        <pt x="127" y="357" on="0"/>
        <pt x="209" y="362" on="1"/>
        <pt x="209" y="383" on="1"/>
        <pt x="209" y="500" on="0"/>
        <pt x="323" y="629" on="0"/>
        <pt x="446" y="653" on="1"/>
        <pt x="402" y="684" on="0"/>
        <pt x="231" y="729" on="0"/>
        <pt x="170" y="729" on="1"/>
        <pt x="185" y="936" on="0"/>
        <pt x="454" y="1147" on="0"/>
        <pt x="700" y="1147" on="1"/>
        <pt x="970" y="1147" on="0"/>
        <pt x="1235" y="929" on="0"/>
        <pt x="1235" y="696" on="1"/>
        <pt x="1235" y="-520" on="1"/>
        <pt x="950" y="-520" on="1"/>
        <pt x="916" y="-474" on="0"/>
        <pt x="794" y="-361" on="0"/>
        <pt x="729" y="-317" on="1"/>
        <pt x="683" y="-395" on="0"/>
        <pt x="561" y="-467" on="0"/>
        <pt x="498" y="-467" on="1"/>
        <pt x="412" y="-467" on="0"/>
        <pt x="307" y="-371" on="0"/>
        <pt x="307" y="-291" on="1"/>
        <pt x="307" y="-209" on="0"/>
        <pt x="405" y="-109" on="0"/>
        <pt x="498" y="-109" on="1"/>
        <pt x="567" y="-109" on="0"/>
        <pt x="662" y="-152" on="1"/>
        <pt x="672" y="-101" on="0"/>
        <pt x="678" y="-39" on="1"/>
        <pt x="809" y="-39" on="1"/>
        <pt x="800" y="-137" on="0"/>
        <pt x="774" y="-215" on="1"/>
        <pt x="875" y="-274" on="0"/>
        <pt x="950" y="-342" on="1"/>
        <pt x="950" y="633" on="1"/>
        <pt x="950" y="936" on="0"/>
        <pt x="702" y="936" on="1"/>
        <pt x="496" y="936" on="0"/>
        <pt x="457" y="829" on="1"/>
        <pt x="524" y="812" on="0"/>
        <pt x="662" y="743" on="0"/>
        <pt x="694" y="709" on="1"/>
        <pt x="694" y="590" on="1"/>
        <pt x="589" y="564" on="0"/>
        <pt x="494" y="454" on="0"/>
        <pt x="494" y="369" on="1"/>
      </contour>
      <contour>
        <pt x="143" y="172" on="1"/>
        <pt x="143" y="134" on="0"/>
        <pt x="191" y="88" on="0"/>
        <pt x="229" y="88" on="1"/>
        <pt x="264" y="88" on="0"/>
        <pt x="313" y="134" on="0"/>
        <pt x="313" y="172" on="1"/>
        <pt x="313" y="209" on="0"/>
        <pt x="264" y="254" on="0"/>
        <pt x="229" y="254" on="1"/>
        <pt x="191" y="254" on="0"/>
        <pt x="143" y="209" on="0"/>
      </contour>
    </TTGlyph>
    <TTGlyph name="uni0E0F" xMin="25" yMin="-520" xMax="1235" yMax="1147">
      <contour>
        <pt x="1235" y="-520" on="1"/>
        <pt x="989" y="-520" on="1"/>
        <pt x="914" y="-425" on="0"/>
        <pt x="803" y="-332" on="1"/>
        <pt x="738" y="-439" on="0"/>
        <pt x="635" y="-489" on="1"/>
        <pt x="579" y="-415" on="0"/>
        <pt x="524" y="-360" on="1"/>
        <pt x="470" y="-422" on="0"/>
        <pt x="351" y="-492" on="0"/>
        <pt x="270" y="-492" on="1"/>
        <pt x="186" y="-492" on="0"/>
        <pt x="82" y="-393" on="0"/>
        <pt x="82" y="-309" on="1"/>
        <pt x="82" y="-221" on="0"/>
        <pt x="194" y="-119" on="0"/>
        <pt x="297" y="-119" on="1"/>
        <pt x="403" y="-119" on="0"/>
        <pt x="498" y="-190" on="1"/>
        <pt x="529" y="-135" on="0"/>
        <pt x="561" y="-19" on="0"/>
        <pt x="573" y="86" on="1"/>
        <pt x="705" y="86" on="1"/>
        <pt x="697" y="-15" on="0"/>
        <pt x="637" y="-203" on="0"/>
        <pt x="592" y="-266" on="1"/>
        <pt x="629" y="-303" on="0"/>
        <pt x="655" y="-336" on="1"/>
        <pt x="734" y="-259" on="0"/>
        <pt x="772" y="-158" on="1"/>
        <pt x="812" y="-186" on="0"/>
        <pt x="950" y="-301" on="1"/>
        <pt x="950" y="633" on="1"/>
        <pt x="950" y="936" on="0"/>
        <pt x="702" y="936" on="1"/>
        <pt x="496" y="936" on="0"/>
        <pt x="457" y="829" on="1"/>
        <pt x="524" y="812" on="0"/>
        <pt x="662" y="743" on="0"/>
        <pt x="694" y="709" on="1"/>
        <pt x="694" y="590" on="1"/>
        <pt x="589" y="564" on="0"/>
        <pt x="494" y="454" on="0"/>
        <pt x="494" y="369" on="1"/>
        <pt x="494" y="221" on="1"/>
        <pt x="494" y="107" on="0"/>
        <pt x="359" y="-18" on="0"/>
        <pt x="236" y="-18" on="1"/>
        <pt x="135" y="-18" on="0"/>
        <pt x="25" y="82" on="0"/>
        <pt x="25" y="172" on="1"/>
        <pt x="25" y="254" on="0"/>
        <pt x="127" y="357" on="0"/>
        <pt x="209" y="362" on="1"/>
        <pt x="209" y="383" on="1"/>
        <pt x="209" y="500" on="0"/>
        <pt x="323" y="629" on="0"/>
        <pt x="446" y="653" on="1"/>
        <pt x="402" y="684" on="0"/>
        <pt x="231" y="729" on="0"/>
        <pt x="170" y="729" on="1"/>
        <pt x="185" y="936" on="0"/>
        <pt x="454" y="1147" on="0"/>
        <pt x="700" y="1147" on="1"/>
        <pt x="970" y="1147" on="0"/>
        <pt x="1235" y="929" on="0"/>
        <pt x="1235" y="696" on="1"/>
      </contour>
      <contour>
        <pt x="285" y="-225" on="1"/>
        <pt x="253" y="-225" on="0"/>
        <pt x="203" y="-261" on="0"/>
        <pt x="203" y="-305" on="1"/>
        <pt x="203" y="-345" on="0"/>
        <pt x="249" y="-385" on="0"/>
        <pt x="281" y="-385" on="1"/>
        <pt x="364" y="-385" on="0"/>
        <pt x="438" y="-289" on="1"/>
        <pt x="352" y="-225" on="0"/>
      </contour>
      <contour>
        <pt x="143" y="172" on="1"/>
        <pt x="143" y="134" on="0"/>
        <pt x="191" y="88" on="0"/>
        <pt x="229" y="88" on="1"/>
        <pt x="264" y="88" on="0"/>
        <pt x="313" y="134" on="0"/>
        <pt x="313" y="172" on="1"/>
        <pt x="313" y="209" on="0"/>
        <pt x="264" y="254" on="0"/>
        <pt x="229" y="254" on="1"/>
        <pt x="191" y="254" on="0"/>
        <pt x="143" y="209" on="0"/>
      </contour>
    </TTGlyph>
    <TTGlyph name="uni0E10" xMin="86" yMin="-520" xMax="1085" yMax="1147">
      <contour>
        <pt x="1073" y="299" on="1"/>
        <pt x="1073" y="134" on="0"/>
        <pt x="906" y="-20" on="0"/>
        <pt x="733" y="-20" on="1"/>
        <pt x="648" y="-20" on="0"/>
        <pt x="533" y="10" on="0"/>
        <pt x="448" y="74" on="0"/>
        <pt x="397" y="150" on="1"/>
        <pt x="372" y="141" on="0"/>
        <pt x="334" y="141" on="1"/>
        <pt x="241" y="141" on="0"/>
        <pt x="133" y="240" on="0"/>
        <pt x="133" y="326" on="1"/>
        <pt x="133" y="421" on="0"/>
        <pt x="264" y="528" on="0"/>
        <pt x="365" y="528" on="1"/>
        <pt x="445" y="528" on="0"/>
        <pt x="553" y="446" on="0"/>
        <pt x="612" y="334" on="1"/>
        <pt x="647" y="268" on="1"/>
        <pt x="671" y="220" on="0"/>
        <pt x="705" y="190" on="0"/>
        <pt x="729" y="190" on="1"/>
        <pt x="758" y="190" on="0"/>
        <pt x="788" y="235" on="0"/>
        <pt x="788" y="301" on="1"/>
        <pt x="788" y="457" on="1"/>
        <pt x="788" y="544" on="0"/>
        <pt x="700" y="614" on="0"/>
        <pt x="596" y="614" on="1"/>
        <pt x="106" y="614" on="1"/>
        <pt x="106" y="768" on="1"/>
        <pt x="106" y="956" on="0"/>
        <pt x="303" y="1147" on="0"/>
        <pt x="494" y="1147" on="1"/>
        <pt x="1085" y="1147" on="1"/>
        <pt x="1085" y="934" on="1"/>
        <pt x="549" y="934" on="1"/>
        <pt x="466" y="934" on="0"/>
        <pt x="397" y="888" on="0"/>
        <pt x="389" y="827" on="1"/>
        <pt x="621" y="827" on="1"/>
        <pt x="787" y="827" on="0"/>
        <pt x="983" y="756" on="0"/>
        <pt x="1073" y="604" on="0"/>
        <pt x="1073" y="465" on="1"/>
      </contour>
      <contour>
        <pt x="422" y="330" on="1"/>
        <pt x="422" y="368" on="0"/>
        <pt x="373" y="414" on="0"/>
        <pt x="338" y="414" on="1"/>
        <pt x="300" y="414" on="0"/>
        <pt x="252" y="368" on="0"/>
        <pt x="252" y="330" on="1"/>
        <pt x="252" y="293" on="0"/>
        <pt x="300" y="248" on="0"/>
        <pt x="338" y="248" on="1"/>
        <pt x="373" y="248" on="0"/>
        <pt x="422" y="293" on="0"/>
      </contour>
      <contour>
        <pt x="614" y="-98" on="1"/>
        <pt x="594" y="-221" on="0"/>
        <pt x="561" y="-291" on="1"/>
        <pt x="587" y="-315" on="0"/>
        <pt x="618" y="-360" on="1"/>
        <pt x="655" y="-329" on="0"/>
        <pt x="686" y="-279" on="1"/>
        <pt x="797" y="-321" on="0"/>
        <pt x="870" y="-367" on="1"/>
        <pt x="870" y="-307" on="1"/>
        <pt x="812" y="-304" on="0"/>
        <pt x="743" y="-245" on="0"/>
        <pt x="743" y="-188" on="1"/>
        <pt x="743" y="-130" on="0"/>
        <pt x="819" y="-61" on="0"/>
        <pt x="883" y="-61" on="1"/>
        <pt x="961" y="-61" on="0"/>
        <pt x="1059" y="-153" on="0"/>
        <pt x="1059" y="-250" on="1"/>
        <pt x="1059" y="-520" on="1"/>
        <pt x="881" y="-520" on="1"/>
        <pt x="804" y="-450" on="0"/>
        <pt x="709" y="-414" on="1"/>
        <pt x="655" y="-475" on="0"/>
        <pt x="578" y="-520" on="1"/>
        <pt x="541" y="-460" on="0"/>
        <pt x="498" y="-408" on="1"/>
        <pt x="459" y="-459" on="0"/>
        <pt x="354" y="-516" on="0"/>
        <pt x="272" y="-516" on="1"/>
        <pt x="186" y="-516" on="0"/>
        <pt x="86" y="-423" on="0"/>
        <pt x="86" y="-342" on="1"/>
        <pt x="86" y="-255" on="0"/>
        <pt x="199" y="-152" on="0"/>
        <pt x="299" y="-152" on="1"/>
        <pt x="375" y="-152" on="0"/>
        <pt x="461" y="-199" on="1"/>
        <pt x="472" y="-165" on="0"/>
        <pt x="479" y="-98" on="1"/>
      </contour>
      <contour>
        <pt x="829" y="-186" on="1"/>
        <pt x="829" y="-231" on="0"/>
        <pt x="877" y="-231" on="1"/>
        <pt x="897" y="-231" on="0"/>
        <pt x="922" y="-208" on="0"/>
        <pt x="922" y="-186" on="1"/>
        <pt x="922" y="-165" on="0"/>
        <pt x="897" y="-139" on="0"/>
        <pt x="877" y="-139" on="1"/>
        <pt x="854" y="-139" on="0"/>
        <pt x="829" y="-165" on="0"/>
      </contour>
      <contour>
        <pt x="289" y="-258" on="1"/>
        <pt x="257" y="-258" on="0"/>
        <pt x="207" y="-294" on="0"/>
        <pt x="207" y="-338" on="1"/>
        <pt x="207" y="-410" on="0"/>
        <pt x="285" y="-410" on="1"/>
        <pt x="367" y="-410" on="0"/>
        <pt x="416" y="-311" on="1"/>
        <pt x="352" y="-258" on="0"/>
      </contour>
    </TTGlyph>
    <TTGlyph name="uni0E10.alt1" xMin="106" yMin="-20" xMax="1085" yMax="1147">
      <contour>
        <pt x="1073" y="299" on="1"/>
        <pt x="1073" y="134" on="0"/>
        <pt x="906" y="-20" on="0"/>
        <pt x="733" y="-20" on="1"/>
        <pt x="648" y="-20" on="0"/>
        <pt x="533" y="10" on="0"/>
        <pt x="448" y="74" on="0"/>
        <pt x="397" y="150" on="1"/>
        <pt x="372" y="141" on="0"/>
        <pt x="334" y="141" on="1"/>
        <pt x="241" y="141" on="0"/>
        <pt x="133" y="240" on="0"/>
        <pt x="133" y="326" on="1"/>
        <pt x="133" y="421" on="0"/>
        <pt x="264" y="528" on="0"/>
        <pt x="365" y="528" on="1"/>
        <pt x="445" y="528" on="0"/>
        <pt x="553" y="446" on="0"/>
        <pt x="612" y="334" on="1"/>
        <pt x="647" y="268" on="1"/>
        <pt x="671" y="220" on="0"/>
        <pt x="705" y="190" on="0"/>
        <pt x="729" y="190" on="1"/>
        <pt x="758" y="190" on="0"/>
        <pt x="788" y="235" on="0"/>
        <pt x="788" y="301" on="1"/>
        <pt x="788" y="457" on="1"/>
        <pt x="788" y="544" on="0"/>
        <pt x="700" y="614" on="0"/>
        <pt x="596" y="614" on="1"/>
        <pt x="106" y="614" on="1"/>
        <pt x="106" y="768" on="1"/>
        <pt x="106" y="956" on="0"/>
        <pt x="303" y="1147" on="0"/>
        <pt x="494" y="1147" on="1"/>
        <pt x="1085" y="1147" on="1"/>
        <pt x="1085" y="934" on="1"/>
        <pt x="549" y="934" on="1"/>
        <pt x="466" y="934" on="0"/>
        <pt x="397" y="888" on="0"/>
        <pt x="389" y="827" on="1"/>
        <pt x="621" y="827" on="1"/>
        <pt x="787" y="827" on="0"/>
        <pt x="983" y="756" on="0"/>
        <pt x="1073" y="604" on="0"/>
        <pt x="1073" y="465" on="1"/>
      </contour>
      <contour>
        <pt x="252" y="330" on="1"/>
        <pt x="252" y="293" on="0"/>
        <pt x="300" y="248" on="0"/>
        <pt x="338" y="248" on="1"/>
        <pt x="373" y="248" on="0"/>
        <pt x="422" y="293" on="0"/>
        <pt x="422" y="330" on="1"/>
        <pt x="422" y="368" on="0"/>
        <pt x="373" y="414" on="0"/>
        <pt x="338" y="414" on="1"/>
        <pt x="300" y="414" on="0"/>
        <pt x="252" y="368" on="0"/>
      </contour>
    </TTGlyph>
    <TTGlyph name="uni0E11" xMin="25" yMin="0" xMax="1552" yMax="1147">
      <contour>
        <pt x="446" y="0" on="1"/>
        <pt x="446" y="469" on="1"/>
        <pt x="446" y="619" on="0"/>
        <pt x="527" y="803" on="0"/>
        <pt x="629" y="870" on="1"/>
        <pt x="620" y="960" on="0"/>
        <pt x="541" y="987" on="1"/>
        <pt x="416" y="874" on="1"/>
        <pt x="299" y="993" on="1"/>
        <pt x="251" y="982" on="0"/>
        <pt x="176" y="903" on="0"/>
        <pt x="168" y="844" on="1"/>
        <pt x="209" y="889" on="0"/>
        <pt x="270" y="889" on="1"/>
        <pt x="347" y="889" on="0"/>
        <pt x="438" y="792" on="0"/>
        <pt x="438" y="711" on="1"/>
        <pt x="438" y="627" on="0"/>
        <pt x="332" y="526" on="0"/>
        <pt x="246" y="526" on="1"/>
        <pt x="140" y="526" on="0"/>
        <pt x="25" y="661" on="0"/>
        <pt x="25" y="778" on="1"/>
        <pt x="25" y="927" on="0"/>
        <pt x="176" y="1121" on="0"/>
        <pt x="315" y="1147" on="1"/>
        <pt x="418" y="1040" on="1"/>
        <pt x="535" y="1147" on="1"/>
        <pt x="716" y="1137" on="0"/>
        <pt x="900" y="994" on="0"/>
        <pt x="915" y="846" on="1"/>
        <pt x="809" y="781" on="0"/>
        <pt x="731" y="632" on="0"/>
        <pt x="731" y="479" on="1"/>
        <pt x="731" y="270" on="1"/>
        <pt x="1049" y="934" on="1"/>
        <pt x="1108" y="1057" on="0"/>
        <pt x="1223" y="1147" on="0"/>
        <pt x="1327" y="1147" on="1"/>
        <pt x="1432" y="1147" on="0"/>
        <pt x="1552" y="1021" on="0"/>
        <pt x="1552" y="907" on="1"/>
        <pt x="1552" y="0" on="1"/>
        <pt x="1268" y="0" on="1"/>
        <pt x="1268" y="823" on="1"/>
        <pt x="1268" y="891" on="0"/>
        <pt x="1239" y="891" on="1"/>
        <pt x="1225" y="891" on="0"/>
        <pt x="1202" y="866" on="0"/>
        <pt x="1184" y="827" on="1"/>
        <pt x="788" y="0" on="1"/>
      </contour>
      <contour>
        <pt x="317" y="709" on="1"/>
        <pt x="317" y="743" on="0"/>
        <pt x="278" y="784" on="0"/>
        <pt x="244" y="784" on="1"/>
        <pt x="210" y="784" on="0"/>
        <pt x="172" y="743" on="0"/>
        <pt x="172" y="709" on="1"/>
        <pt x="172" y="674" on="0"/>
        <pt x="210" y="633" on="0"/>
        <pt x="244" y="633" on="1"/>
        <pt x="278" y="633" on="0"/>
        <pt x="317" y="674" on="0"/>
      </contour>
    </TTGlyph>
    <TTGlyph name="uni0E12" xMin="102" yMin="-18" xMax="1898" yMax="1171">
      <contour>
        <pt x="772" y="590" on="1"/>
        <pt x="772" y="630" on="0"/>
        <pt x="724" y="674" on="0"/>
        <pt x="686" y="674" on="1"/>
        <pt x="651" y="674" on="0"/>
        <pt x="602" y="630" on="0"/>
        <pt x="602" y="590" on="1"/>
        <pt x="602" y="552" on="0"/>
        <pt x="651" y="506" on="0"/>
        <pt x="686" y="506" on="1"/>
        <pt x="724" y="506" on="0"/>
        <pt x="772" y="552" on="0"/>
      </contour>
      <contour>
        <pt x="1898" y="0" on="1"/>
        <pt x="1634" y="0" on="1"/>
        <pt x="1581" y="98" on="0"/>
        <pt x="1432" y="254" on="0"/>
        <pt x="1352" y="291" on="1"/>
        <pt x="1352" y="256" on="1"/>
        <pt x="1352" y="116" on="0"/>
        <pt x="1206" y="-18" on="0"/>
        <pt x="1055" y="-18" on="1"/>
        <pt x="925" y="-18" on="0"/>
        <pt x="799" y="90" on="0"/>
        <pt x="799" y="186" on="1"/>
        <pt x="799" y="287" on="0"/>
        <pt x="942" y="424" on="0"/>
        <pt x="1067" y="440" on="1"/>
        <pt x="1067" y="686" on="1"/>
        <pt x="1067" y="779" on="0"/>
        <pt x="955" y="906" on="0"/>
        <pt x="834" y="944" on="1"/>
        <pt x="688" y="823" on="1"/>
        <pt x="541" y="944" on="1"/>
        <pt x="460" y="916" on="0"/>
        <pt x="385" y="787" on="0"/>
        <pt x="385" y="700" on="1"/>
        <pt x="385" y="640" on="0"/>
        <pt x="404" y="534" on="0"/>
        <pt x="429" y="418" on="0"/>
        <pt x="455" y="281" on="0"/>
        <pt x="461" y="190" on="1"/>
        <pt x="514" y="239" on="1"/>
        <pt x="639" y="345" on="0"/>
        <pt x="659" y="399" on="1"/>
        <pt x="574" y="406" on="0"/>
        <pt x="483" y="506" on="0"/>
        <pt x="483" y="590" on="1"/>
        <pt x="483" y="680" on="0"/>
        <pt x="589" y="780" on="0"/>
        <pt x="686" y="780" on="1"/>
        <pt x="786" y="780" on="0"/>
        <pt x="891" y="672" on="0"/>
        <pt x="891" y="569" on="1"/>
        <pt x="891" y="496" on="0"/>
        <pt x="833" y="364" on="0"/>
        <pt x="702" y="224" on="0"/>
        <pt x="556" y="104" on="1"/>
        <pt x="465" y="29" on="0"/>
        <pt x="438" y="0" on="1"/>
        <pt x="186" y="0" on="1"/>
        <pt x="186" y="119" on="1"/>
        <pt x="186" y="309" on="0"/>
        <pt x="144" y="469" on="1"/>
        <pt x="120" y="562" on="0"/>
        <pt x="102" y="670" on="0"/>
        <pt x="102" y="729" on="1"/>
        <pt x="102" y="896" on="0"/>
        <pt x="332" y="1134" on="0"/>
        <pt x="532" y="1171" on="1"/>
        <pt x="692" y="1040" on="1"/>
        <pt x="848" y="1171" on="1"/>
        <pt x="1352" y="1097" on="0"/>
        <pt x="1352" y="717" on="1"/>
        <pt x="1352" y="432" on="1"/>
        <pt x="1424" y="415" on="0"/>
        <pt x="1568" y="333" on="0"/>
        <pt x="1614" y="287" on="1"/>
        <pt x="1614" y="1126" on="1"/>
        <pt x="1898" y="1126" on="1"/>
      </contour>
      <contour>
        <pt x="965" y="182" on="1"/>
        <pt x="965" y="151" on="0"/>
        <pt x="992" y="113" on="0"/>
        <pt x="1014" y="113" on="1"/>
        <pt x="1067" y="113" on="0"/>
        <pt x="1067" y="188" on="1"/>
        <pt x="1067" y="307" on="1"/>
        <pt x="1020" y="299" on="0"/>
        <pt x="965" y="228" on="0"/>
      </contour>
    </TTGlyph>
    <TTGlyph name="uni0E13" xMin="123" yMin="-18" xMax="2003" yMax="1147">
      <contour>
        <pt x="485" y="172" on="1"/>
        <pt x="485" y="209" on="0"/>
        <pt x="438" y="254" on="0"/>
        <pt x="399" y="254" on="1"/>
        <pt x="364" y="254" on="0"/>
        <pt x="315" y="209" on="0"/>
        <pt x="315" y="172" on="1"/>
        <pt x="315" y="134" on="0"/>
        <pt x="364" y="88" on="0"/>
        <pt x="399" y="88" on="1"/>
        <pt x="438" y="88" on="0"/>
        <pt x="485" y="134" on="0"/>
      </contour>
      <contour>
        <pt x="874" y="0" on="1"/>
        <pt x="874" y="633" on="1"/>
        <pt x="874" y="790" on="0"/>
        <pt x="759" y="936" on="0"/>
        <pt x="643" y="936" on="1"/>
        <pt x="446" y="936" on="0"/>
        <pt x="412" y="829" on="1"/>
        <pt x="479" y="819" on="0"/>
        <pt x="623" y="749" on="0"/>
        <pt x="647" y="717" on="1"/>
        <pt x="647" y="590" on="1"/>
        <pt x="511" y="555" on="0"/>
        <pt x="418" y="465" on="0"/>
        <pt x="418" y="393" on="1"/>
        <pt x="418" y="362" on="1"/>
        <pt x="507" y="357" on="0"/>
        <pt x="604" y="260" on="0"/>
        <pt x="604" y="178" on="1"/>
        <pt x="604" y="88" on="0"/>
        <pt x="486" y="-18" on="0"/>
        <pt x="391" y="-18" on="1"/>
        <pt x="133" y="-18" on="0"/>
        <pt x="133" y="260" on="1"/>
        <pt x="133" y="373" on="1"/>
        <pt x="133" y="488" on="0"/>
        <pt x="266" y="623" on="0"/>
        <pt x="399" y="649" on="1"/>
        <pt x="359" y="680" on="0"/>
        <pt x="184" y="729" on="0"/>
        <pt x="123" y="729" on="1"/>
        <pt x="132" y="932" on="0"/>
        <pt x="400" y="1147" on="0"/>
        <pt x="649" y="1147" on="1"/>
        <pt x="907" y="1147" on="0"/>
        <pt x="1159" y="928" on="0"/>
        <pt x="1159" y="696" on="1"/>
        <pt x="1159" y="287" on="1"/>
        <pt x="1217" y="345" on="0"/>
        <pt x="1378" y="426" on="0"/>
        <pt x="1450" y="438" on="1"/>
        <pt x="1450" y="1126" on="1"/>
        <pt x="1735" y="1126" on="1"/>
        <pt x="1735" y="440" on="1"/>
        <pt x="1860" y="423" on="0"/>
        <pt x="2003" y="287" on="0"/>
        <pt x="2003" y="186" on="1"/>
        <pt x="2003" y="90" on="0"/>
        <pt x="1877" y="-18" on="0"/>
        <pt x="1747" y="-18" on="1"/>
        <pt x="1595" y="-18" on="0"/>
        <pt x="1450" y="116" on="0"/>
        <pt x="1450" y="256" on="1"/>
        <pt x="1450" y="291" on="1"/>
        <pt x="1371" y="274" on="0"/>
        <pt x="1200" y="112" on="0"/>
        <pt x="1139" y="0" on="1"/>
      </contour>
      <contour>
        <pt x="1837" y="182" on="1"/>
        <pt x="1837" y="228" on="0"/>
        <pt x="1780" y="299" on="0"/>
        <pt x="1735" y="307" on="1"/>
        <pt x="1735" y="188" on="1"/>
        <pt x="1735" y="113" on="0"/>
        <pt x="1788" y="113" on="1"/>
        <pt x="1810" y="113" on="0"/>
        <pt x="1837" y="151" on="0"/>
      </contour>
    </TTGlyph>
    <TTGlyph name="uni0E14" xMin="102" yMin="0" xMax="1253" yMax="1147">
      <contour>
        <pt x="768" y="569" on="1"/>
        <pt x="768" y="610" on="0"/>
        <pt x="720" y="653" on="0"/>
        <pt x="682" y="653" on="1"/>
        <pt x="647" y="653" on="0"/>
        <pt x="598" y="610" on="0"/>
        <pt x="598" y="569" on="1"/>
        <pt x="598" y="531" on="0"/>
        <pt x="647" y="485" on="0"/>
        <pt x="682" y="485" on="1"/>
        <pt x="720" y="485" on="0"/>
        <pt x="768" y="531" on="0"/>
      </contour>
      <contour>
        <pt x="655" y="379" on="1"/>
        <pt x="570" y="385" on="0"/>
        <pt x="479" y="486" on="0"/>
        <pt x="479" y="569" on="1"/>
        <pt x="479" y="659" on="0"/>
        <pt x="585" y="760" on="0"/>
        <pt x="682" y="760" on="1"/>
        <pt x="782" y="760" on="0"/>
        <pt x="887" y="651" on="0"/>
        <pt x="887" y="549" on="1"/>
        <pt x="887" y="337" on="0"/>
        <pt x="729" y="199" on="1"/>
        <pt x="666" y="144" on="0"/>
        <pt x="582" y="83" on="1"/>
        <pt x="496" y="21" on="0"/>
        <pt x="471" y="0" on="1"/>
        <pt x="186" y="0" on="1"/>
        <pt x="186" y="119" on="1"/>
        <pt x="186" y="309" on="0"/>
        <pt x="144" y="469" on="1"/>
        <pt x="120" y="562" on="0"/>
        <pt x="102" y="670" on="0"/>
        <pt x="102" y="729" on="1"/>
        <pt x="102" y="919" on="0"/>
        <pt x="415" y="1147" on="0"/>
        <pt x="684" y="1147" on="1"/>
        <pt x="963" y="1147" on="0"/>
        <pt x="1253" y="918" on="0"/>
        <pt x="1253" y="696" on="1"/>
        <pt x="1253" y="0" on="1"/>
        <pt x="967" y="0" on="1"/>
        <pt x="967" y="633" on="1"/>
        <pt x="967" y="774" on="0"/>
        <pt x="824" y="936" on="0"/>
        <pt x="682" y="936" on="1"/>
        <pt x="546" y="936" on="0"/>
        <pt x="387" y="799" on="0"/>
        <pt x="387" y="682" on="1"/>
        <pt x="387" y="595" on="0"/>
        <pt x="418" y="463" on="1"/>
        <pt x="453" y="310" on="0"/>
        <pt x="461" y="190" on="1"/>
        <pt x="484" y="213" on="0"/>
        <pt x="543" y="258" on="0"/>
        <pt x="599" y="304" on="0"/>
        <pt x="645" y="352" on="0"/>
      </contour>
    </TTGlyph>
    <TTGlyph name="uni0E15" xMin="102" yMin="0" xMax="1253" yMax="1171">
      <contour>
        <pt x="768" y="569" on="1"/>
        <pt x="768" y="610" on="0"/>
        <pt x="720" y="653" on="0"/>
        <pt x="682" y="653" on="1"/>
        <pt x="647" y="653" on="0"/>
        <pt x="598" y="610" on="0"/>
        <pt x="598" y="569" on="1"/>
        <pt x="598" y="531" on="0"/>
        <pt x="647" y="485" on="0"/>
        <pt x="682" y="485" on="1"/>
        <pt x="720" y="485" on="0"/>
        <pt x="768" y="531" on="0"/>
      </contour>
      <contour>
        <pt x="102" y="729" on="1"/>
        <pt x="102" y="896" on="0"/>
        <pt x="332" y="1134" on="0"/>
        <pt x="532" y="1171" on="1"/>
        <pt x="692" y="1040" on="1"/>
        <pt x="848" y="1171" on="1"/>
        <pt x="1049" y="1138" on="0"/>
        <pt x="1253" y="916" on="0"/>
        <pt x="1253" y="717" on="1"/>
        <pt x="1253" y="0" on="1"/>
        <pt x="969" y="0" on="1"/>
        <pt x="969" y="666" on="1"/>
        <pt x="969" y="790" on="0"/>
        <pt x="907" y="911" on="0"/>
        <pt x="834" y="944" on="1"/>
        <pt x="688" y="823" on="1"/>
        <pt x="541" y="944" on="1"/>
        <pt x="460" y="916" on="0"/>
        <pt x="385" y="787" on="0"/>
        <pt x="385" y="700" on="1"/>
        <pt x="385" y="640" on="0"/>
        <pt x="404" y="534" on="0"/>
        <pt x="429" y="418" on="0"/>
        <pt x="455" y="281" on="0"/>
        <pt x="461" y="190" on="1"/>
        <pt x="484" y="213" on="0"/>
        <pt x="543" y="258" on="0"/>
        <pt x="599" y="304" on="0"/>
        <pt x="645" y="352" on="0"/>
        <pt x="655" y="379" on="1"/>
        <pt x="570" y="385" on="0"/>
        <pt x="479" y="486" on="0"/>
        <pt x="479" y="569" on="1"/>
        <pt x="479" y="659" on="0"/>
        <pt x="585" y="760" on="0"/>
        <pt x="682" y="760" on="1"/>
        <pt x="782" y="760" on="0"/>
        <pt x="887" y="651" on="0"/>
        <pt x="887" y="549" on="1"/>
        <pt x="887" y="337" on="0"/>
        <pt x="729" y="199" on="1"/>
        <pt x="666" y="144" on="0"/>
        <pt x="582" y="83" on="1"/>
        <pt x="496" y="21" on="0"/>
        <pt x="471" y="0" on="1"/>
        <pt x="186" y="0" on="1"/>
        <pt x="186" y="119" on="1"/>
        <pt x="186" y="309" on="0"/>
        <pt x="144" y="469" on="1"/>
        <pt x="120" y="562" on="0"/>
        <pt x="102" y="670" on="0"/>
      </contour>
    </TTGlyph>
    <TTGlyph name="uni0E16" xMin="123" yMin="-18" xMax="1182" yMax="1147">
      <contour>
        <pt x="418" y="362" on="1"/>
        <pt x="507" y="357" on="0"/>
        <pt x="604" y="260" on="0"/>
        <pt x="604" y="178" on="1"/>
        <pt x="604" y="88" on="0"/>
        <pt x="486" y="-18" on="0"/>
        <pt x="391" y="-18" on="1"/>
        <pt x="133" y="-18" on="0"/>
        <pt x="133" y="260" on="1"/>
        <pt x="133" y="373" on="1"/>
        <pt x="133" y="488" on="0"/>
        <pt x="266" y="623" on="0"/>
        <pt x="399" y="649" on="1"/>
        <pt x="359" y="680" on="0"/>
        <pt x="184" y="729" on="0"/>
        <pt x="123" y="729" on="1"/>
        <pt x="132" y="932" on="0"/>
        <pt x="400" y="1147" on="0"/>
        <pt x="649" y="1147" on="1"/>
        <pt x="918" y="1147" on="0"/>
        <pt x="1182" y="928" on="0"/>
        <pt x="1182" y="696" on="1"/>
        <pt x="1182" y="0" on="1"/>
        <pt x="897" y="0" on="1"/>
        <pt x="897" y="633" on="1"/>
        <pt x="897" y="790" on="0"/>
        <pt x="777" y="936" on="0"/>
        <pt x="655" y="936" on="1"/>
        <pt x="556" y="936" on="0"/>
        <pt x="429" y="882" on="0"/>
        <pt x="412" y="829" on="1"/>
        <pt x="479" y="819" on="0"/>
        <pt x="623" y="749" on="0"/>
        <pt x="647" y="717" on="1"/>
        <pt x="647" y="590" on="1"/>
        <pt x="511" y="555" on="0"/>
        <pt x="418" y="465" on="0"/>
        <pt x="418" y="393" on="1"/>
      </contour>
      <contour>
        <pt x="485" y="172" on="1"/>
        <pt x="485" y="209" on="0"/>
        <pt x="438" y="254" on="0"/>
        <pt x="399" y="254" on="1"/>
        <pt x="364" y="254" on="0"/>
        <pt x="315" y="209" on="0"/>
        <pt x="315" y="172" on="1"/>
        <pt x="315" y="134" on="0"/>
        <pt x="364" y="88" on="0"/>
        <pt x="399" y="88" on="1"/>
        <pt x="438" y="88" on="0"/>
        <pt x="485" y="134" on="0"/>
      </contour>
    </TTGlyph>
    <TTGlyph name="uni0E17" xMin="25" yMin="0" xMax="1264" yMax="1147">
      <contour>
        <pt x="494" y="377" on="1"/>
        <pt x="756" y="924" on="1"/>
        <pt x="816" y="1049" on="0"/>
        <pt x="934" y="1147" on="0"/>
        <pt x="1038" y="1147" on="1"/>
        <pt x="1144" y="1147" on="0"/>
        <pt x="1264" y="1018" on="0"/>
        <pt x="1264" y="907" on="1"/>
        <pt x="1264" y="0" on="1"/>
        <pt x="979" y="0" on="1"/>
        <pt x="979" y="823" on="1"/>
        <pt x="979" y="891" on="0"/>
        <pt x="950" y="891" on="1"/>
        <pt x="936" y="891" on="0"/>
        <pt x="914" y="861" on="0"/>
        <pt x="895" y="823" on="1"/>
        <pt x="500" y="0" on="1"/>
        <pt x="209" y="0" on="1"/>
        <pt x="209" y="756" on="1"/>
        <pt x="126" y="761" on="0"/>
        <pt x="25" y="858" on="0"/>
        <pt x="25" y="940" on="1"/>
        <pt x="25" y="1029" on="0"/>
        <pt x="141" y="1137" on="0"/>
        <pt x="238" y="1137" on="1"/>
        <pt x="363" y="1137" on="0"/>
        <pt x="494" y="984" on="0"/>
        <pt x="494" y="838" on="1"/>
      </contour>
      <contour>
        <pt x="143" y="946" on="1"/>
        <pt x="143" y="909" on="0"/>
        <pt x="191" y="864" on="0"/>
        <pt x="229" y="864" on="1"/>
        <pt x="264" y="864" on="0"/>
        <pt x="313" y="909" on="0"/>
        <pt x="313" y="946" on="1"/>
        <pt x="313" y="984" on="0"/>
        <pt x="264" y="1030" on="0"/>
        <pt x="229" y="1030" on="1"/>
        <pt x="191" y="1030" on="0"/>
        <pt x="143" y="984" on="0"/>
      </contour>
    </TTGlyph>
    <TTGlyph name="uni0E18" xMin="123" yMin="0" xMax="1143" yMax="1126">
      <contour>
        <pt x="858" y="389" on="1"/>
        <pt x="858" y="477" on="0"/>
        <pt x="771" y="547" on="0"/>
        <pt x="666" y="547" on="1"/>
        <pt x="123" y="547" on="1"/>
        <pt x="123" y="752" on="1"/>
        <pt x="123" y="935" on="0"/>
        <pt x="321" y="1126" on="0"/>
        <pt x="510" y="1126" on="1"/>
        <pt x="1108" y="1126" on="1"/>
        <pt x="1108" y="913" on="1"/>
        <pt x="565" y="913" on="1"/>
        <pt x="476" y="913" on="0"/>
        <pt x="406" y="841" on="0"/>
        <pt x="406" y="760" on="1"/>
        <pt x="690" y="760" on="1"/>
        <pt x="857" y="760" on="0"/>
        <pt x="1053" y="689" on="0"/>
        <pt x="1143" y="536" on="0"/>
        <pt x="1143" y="397" on="1"/>
        <pt x="1143" y="385" on="1"/>
        <pt x="1143" y="176" on="0"/>
        <pt x="928" y="0" on="0"/>
        <pt x="690" y="0" on="1"/>
        <pt x="160" y="0" on="1"/>
        <pt x="160" y="408" on="1"/>
        <pt x="444" y="408" on="1"/>
        <pt x="444" y="213" on="1"/>
        <pt x="666" y="213" on="1"/>
        <pt x="769" y="213" on="0"/>
        <pt x="858" y="290" on="0"/>
        <pt x="858" y="379" on="1"/>
      </contour>
    </TTGlyph>
    <TTGlyph name="uni0E19" xMin="25" yMin="-18" xMax="1341" yMax="1137">
      <contour>
        <pt x="143" y="946" on="1"/>
        <pt x="143" y="909" on="0"/>
        <pt x="189" y="864" on="0"/>
        <pt x="229" y="864" on="1"/>
        <pt x="264" y="864" on="0"/>
        <pt x="313" y="909" on="0"/>
        <pt x="313" y="946" on="1"/>
        <pt x="313" y="984" on="0"/>
        <pt x="264" y="1030" on="0"/>
        <pt x="229" y="1030" on="1"/>
        <pt x="189" y="1030" on="0"/>
        <pt x="143" y="984" on="0"/>
      </contour>
      <contour>
        <pt x="1176" y="182" on="1"/>
        <pt x="1176" y="228" on="0"/>
        <pt x="1120" y="298" on="0"/>
        <pt x="1073" y="307" on="1"/>
        <pt x="1073" y="188" on="1"/>
        <pt x="1073" y="113" on="0"/>
        <pt x="1126" y="113" on="1"/>
        <pt x="1148" y="113" on="0"/>
        <pt x="1176" y="151" on="0"/>
      </contour>
      <contour>
        <pt x="209" y="0" on="1"/>
        <pt x="209" y="756" on="1"/>
        <pt x="122" y="759" on="0"/>
        <pt x="25" y="860" on="0"/>
        <pt x="25" y="940" on="1"/>
        <pt x="25" y="1033" on="0"/>
        <pt x="141" y="1137" on="0"/>
        <pt x="248" y="1137" on="1"/>
        <pt x="367" y="1137" on="0"/>
        <pt x="494" y="978" on="0"/>
        <pt x="494" y="838" on="1"/>
        <pt x="494" y="287" on="1"/>
        <pt x="547" y="342" on="0"/>
        <pt x="715" y="426" on="0"/>
        <pt x="788" y="438" on="1"/>
        <pt x="788" y="1126" on="1"/>
        <pt x="1073" y="1126" on="1"/>
        <pt x="1073" y="440" on="1"/>
        <pt x="1199" y="423" on="0"/>
        <pt x="1341" y="287" on="0"/>
        <pt x="1341" y="186" on="1"/>
        <pt x="1341" y="90" on="0"/>
        <pt x="1215" y="-18" on="0"/>
        <pt x="1085" y="-18" on="1"/>
        <pt x="933" y="-18" on="0"/>
        <pt x="788" y="116" on="0"/>
        <pt x="788" y="256" on="1"/>
        <pt x="788" y="291" on="1"/>
        <pt x="709" y="274" on="0"/>
        <pt x="538" y="111" on="0"/>
        <pt x="477" y="0" on="1"/>
      </contour>
    </TTGlyph>
    <TTGlyph name="uni0E1A" xMin="25" yMin="0" xMax="1202" yMax="1137">
      <contour>
        <pt x="90" y="188" on="1"/>
        <pt x="209" y="229" on="1"/>
        <pt x="209" y="756" on="1"/>
        <pt x="125" y="758" on="0"/>
        <pt x="25" y="858" on="0"/>
        <pt x="25" y="940" on="1"/>
        <pt x="25" y="1029" on="0"/>
        <pt x="141" y="1137" on="0"/>
        <pt x="238" y="1137" on="1"/>
        <pt x="363" y="1137" on="0"/>
        <pt x="494" y="984" on="0"/>
        <pt x="494" y="838" on="1"/>
        <pt x="494" y="229" on="1"/>
        <pt x="760" y="229" on="1"/>
        <pt x="845" y="229" on="0"/>
        <pt x="918" y="308" on="0"/>
        <pt x="918" y="403" on="1"/>
        <pt x="918" y="1126" on="1"/>
        <pt x="1202" y="1126" on="1"/>
        <pt x="1202" y="365" on="1"/>
        <pt x="1202" y="0" on="0"/>
        <pt x="836" y="0" on="1"/>
        <pt x="90" y="0" on="1"/>
      </contour>
      <contour>
        <pt x="143" y="946" on="1"/>
        <pt x="143" y="909" on="0"/>
        <pt x="191" y="864" on="0"/>
        <pt x="229" y="864" on="1"/>
        <pt x="264" y="864" on="0"/>
        <pt x="313" y="909" on="0"/>
        <pt x="313" y="946" on="1"/>
        <pt x="313" y="984" on="0"/>
        <pt x="264" y="1030" on="0"/>
        <pt x="229" y="1030" on="1"/>
        <pt x="191" y="1030" on="0"/>
        <pt x="143" y="984" on="0"/>
      </contour>
    </TTGlyph>
    <TTGlyph name="uni0E1B" xMin="25" yMin="0" xMax="1202" yMax="1690">
      <contour>
        <pt x="90" y="188" on="1"/>
        <pt x="209" y="229" on="1"/>
        <pt x="209" y="756" on="1"/>
        <pt x="125" y="758" on="0"/>
        <pt x="25" y="858" on="0"/>
        <pt x="25" y="940" on="1"/>
        <pt x="25" y="1029" on="0"/>
        <pt x="141" y="1137" on="0"/>
        <pt x="238" y="1137" on="1"/>
        <pt x="363" y="1137" on="0"/>
        <pt x="494" y="984" on="0"/>
        <pt x="494" y="838" on="1"/>
        <pt x="494" y="229" on="1"/>
        <pt x="760" y="229" on="1"/>
        <pt x="845" y="229" on="0"/>
        <pt x="918" y="308" on="0"/>
        <pt x="918" y="403" on="1"/>
        <pt x="918" y="1690" on="1"/>
        <pt x="1202" y="1690" on="1"/>
        <pt x="1202" y="365" on="1"/>
        <pt x="1202" y="0" on="0"/>
        <pt x="836" y="0" on="1"/>
        <pt x="90" y="0" on="1"/>
      </contour>
      <contour>
        <pt x="143" y="946" on="1"/>
        <pt x="143" y="909" on="0"/>
        <pt x="191" y="864" on="0"/>
        <pt x="229" y="864" on="1"/>
        <pt x="264" y="864" on="0"/>
        <pt x="313" y="909" on="0"/>
        <pt x="313" y="946" on="1"/>
        <pt x="313" y="984" on="0"/>
        <pt x="264" y="1030" on="0"/>
        <pt x="229" y="1030" on="1"/>
        <pt x="191" y="1030" on="0"/>
        <pt x="143" y="984" on="0"/>
      </contour>
    </TTGlyph>
    <TTGlyph name="uni0E1C" xMin="160" yMin="0" xMax="1257" yMax="1137">
      <contour>
        <pt x="451" y="756" on="1"/>
        <pt x="451" y="317" on="1"/>
        <pt x="659" y="645" on="1"/>
        <pt x="758" y="645" on="1"/>
        <pt x="967" y="317" on="1"/>
        <pt x="967" y="1126" on="1"/>
        <pt x="1257" y="1126" on="1"/>
        <pt x="1257" y="0" on="1"/>
        <pt x="967" y="0" on="1"/>
        <pt x="709" y="403" on="1"/>
        <pt x="451" y="0" on="1"/>
        <pt x="160" y="0" on="1"/>
        <pt x="160" y="895" on="1"/>
        <pt x="160" y="1006" on="0"/>
        <pt x="307" y="1137" on="0"/>
        <pt x="426" y="1137" on="1"/>
        <pt x="523" y="1137" on="0"/>
        <pt x="629" y="1036" on="0"/>
        <pt x="629" y="946" on="1"/>
        <pt x="629" y="864" on="0"/>
        <pt x="534" y="762" on="0"/>
      </contour>
      <contour>
        <pt x="510" y="946" on="1"/>
        <pt x="510" y="984" on="0"/>
        <pt x="462" y="1030" on="0"/>
        <pt x="424" y="1030" on="1"/>
        <pt x="389" y="1030" on="0"/>
        <pt x="340" y="984" on="0"/>
        <pt x="340" y="946" on="1"/>
        <pt x="340" y="909" on="0"/>
        <pt x="389" y="864" on="0"/>
        <pt x="424" y="864" on="1"/>
        <pt x="462" y="864" on="0"/>
        <pt x="510" y="909" on="0"/>
      </contour>
    </TTGlyph>
    <TTGlyph name="uni0E1D" xMin="160" yMin="0" xMax="1257" yMax="1690">
      <contour>
        <pt x="451" y="756" on="1"/>
        <pt x="451" y="317" on="1"/>
        <pt x="659" y="645" on="1"/>
        <pt x="758" y="645" on="1"/>
        <pt x="967" y="317" on="1"/>
        <pt x="967" y="1690" on="1"/>
        <pt x="1257" y="1690" on="1"/>
        <pt x="1257" y="0" on="1"/>
        <pt x="967" y="0" on="1"/>
        <pt x="709" y="403" on="1"/>
        <pt x="451" y="0" on="1"/>
        <pt x="160" y="0" on="1"/>
        <pt x="160" y="895" on="1"/>
        <pt x="160" y="1006" on="0"/>
        <pt x="307" y="1137" on="0"/>
        <pt x="426" y="1137" on="1"/>
        <pt x="523" y="1137" on="0"/>
        <pt x="629" y="1036" on="0"/>
        <pt x="629" y="946" on="1"/>
        <pt x="629" y="864" on="0"/>
        <pt x="534" y="762" on="0"/>
      </contour>
      <contour>
        <pt x="510" y="946" on="1"/>
        <pt x="510" y="984" on="0"/>
        <pt x="462" y="1030" on="0"/>
        <pt x="424" y="1030" on="1"/>
        <pt x="389" y="1030" on="0"/>
        <pt x="340" y="984" on="0"/>
        <pt x="340" y="946" on="1"/>
        <pt x="340" y="909" on="0"/>
        <pt x="389" y="864" on="0"/>
        <pt x="424" y="864" on="1"/>
        <pt x="462" y="864" on="0"/>
        <pt x="510" y="909" on="0"/>
      </contour>
    </TTGlyph>
    <TTGlyph name="uni0E1E" xMin="25" yMin="0" xMax="1300" yMax="1137">
      <contour>
        <pt x="203" y="0" on="1"/>
        <pt x="203" y="756" on="1"/>
        <pt x="124" y="758" on="0"/>
        <pt x="25" y="860" on="0"/>
        <pt x="25" y="940" on="1"/>
        <pt x="25" y="1029" on="0"/>
        <pt x="141" y="1137" on="0"/>
        <pt x="238" y="1137" on="1"/>
        <pt x="363" y="1137" on="0"/>
        <pt x="494" y="984" on="0"/>
        <pt x="494" y="838" on="1"/>
        <pt x="494" y="420" on="1"/>
        <pt x="702" y="1118" on="1"/>
        <pt x="801" y="1118" on="1"/>
        <pt x="1010" y="420" on="1"/>
        <pt x="1010" y="1126" on="1"/>
        <pt x="1300" y="1126" on="1"/>
        <pt x="1300" y="0" on="1"/>
        <pt x="1010" y="0" on="1"/>
        <pt x="752" y="877" on="1"/>
        <pt x="494" y="0" on="1"/>
      </contour>
      <contour>
        <pt x="143" y="946" on="1"/>
        <pt x="143" y="909" on="0"/>
        <pt x="191" y="864" on="0"/>
        <pt x="229" y="864" on="1"/>
        <pt x="264" y="864" on="0"/>
        <pt x="313" y="909" on="0"/>
        <pt x="313" y="946" on="1"/>
        <pt x="313" y="984" on="0"/>
        <pt x="264" y="1030" on="0"/>
        <pt x="229" y="1030" on="1"/>
        <pt x="191" y="1030" on="0"/>
        <pt x="143" y="984" on="0"/>
      </contour>
    </TTGlyph>
    <TTGlyph name="uni0E1F" xMin="25" yMin="0" xMax="1300" yMax="1690">
      <contour>
        <pt x="203" y="0" on="1"/>
        <pt x="203" y="756" on="1"/>
        <pt x="124" y="758" on="0"/>
        <pt x="25" y="860" on="0"/>
        <pt x="25" y="940" on="1"/>
        <pt x="25" y="1029" on="0"/>
        <pt x="141" y="1137" on="0"/>
        <pt x="238" y="1137" on="1"/>
        <pt x="363" y="1137" on="0"/>
        <pt x="494" y="984" on="0"/>
        <pt x="494" y="838" on="1"/>
        <pt x="494" y="420" on="1"/>
        <pt x="702" y="1118" on="1"/>
        <pt x="801" y="1118" on="1"/>
        <pt x="1010" y="420" on="1"/>
        <pt x="1010" y="1690" on="1"/>
        <pt x="1300" y="1690" on="1"/>
        <pt x="1300" y="0" on="1"/>
        <pt x="1010" y="0" on="1"/>
        <pt x="752" y="874" on="1"/>
        <pt x="494" y="0" on="1"/>
      </contour>
      <contour>
        <pt x="143" y="946" on="1"/>
        <pt x="143" y="909" on="0"/>
        <pt x="191" y="864" on="0"/>
        <pt x="229" y="864" on="1"/>
        <pt x="264" y="864" on="0"/>
        <pt x="313" y="909" on="0"/>
        <pt x="313" y="946" on="1"/>
        <pt x="313" y="984" on="0"/>
        <pt x="264" y="1030" on="0"/>
        <pt x="229" y="1030" on="1"/>
        <pt x="191" y="1030" on="0"/>
        <pt x="143" y="984" on="0"/>
      </contour>
    </TTGlyph>
    <TTGlyph name="uni0E20" xMin="25" yMin="-18" xMax="1235" yMax="1147">
      <contour>
        <pt x="950" y="0" on="1"/>
        <pt x="950" y="633" on="1"/>
        <pt x="950" y="936" on="0"/>
        <pt x="702" y="936" on="1"/>
        <pt x="496" y="936" on="0"/>
        <pt x="457" y="829" on="1"/>
        <pt x="524" y="812" on="0"/>
        <pt x="662" y="743" on="0"/>
        <pt x="694" y="709" on="1"/>
        <pt x="694" y="590" on="1"/>
        <pt x="589" y="564" on="0"/>
        <pt x="494" y="454" on="0"/>
        <pt x="494" y="369" on="1"/>
        <pt x="494" y="221" on="1"/>
        <pt x="494" y="107" on="0"/>
        <pt x="359" y="-18" on="0"/>
        <pt x="236" y="-18" on="1"/>
        <pt x="135" y="-18" on="0"/>
        <pt x="25" y="82" on="0"/>
        <pt x="25" y="172" on="1"/>
        <pt x="25" y="254" on="0"/>
        <pt x="127" y="357" on="0"/>
        <pt x="209" y="362" on="1"/>
        <pt x="209" y="383" on="1"/>
        <pt x="209" y="500" on="0"/>
        <pt x="323" y="629" on="0"/>
        <pt x="446" y="653" on="1"/>
        <pt x="402" y="684" on="0"/>
        <pt x="231" y="729" on="0"/>
        <pt x="170" y="729" on="1"/>
        <pt x="185" y="936" on="0"/>
        <pt x="454" y="1147" on="0"/>
        <pt x="700" y="1147" on="1"/>
        <pt x="970" y="1147" on="0"/>
        <pt x="1235" y="929" on="0"/>
        <pt x="1235" y="696" on="1"/>
        <pt x="1235" y="0" on="1"/>
      </contour>
      <contour>
        <pt x="143" y="172" on="1"/>
        <pt x="143" y="134" on="0"/>
        <pt x="191" y="88" on="0"/>
        <pt x="229" y="88" on="1"/>
        <pt x="264" y="88" on="0"/>
        <pt x="313" y="134" on="0"/>
        <pt x="313" y="172" on="1"/>
        <pt x="313" y="209" on="0"/>
        <pt x="264" y="254" on="0"/>
        <pt x="229" y="254" on="1"/>
        <pt x="191" y="254" on="0"/>
        <pt x="143" y="209" on="0"/>
      </contour>
    </TTGlyph>
    <TTGlyph name="uni0E21" xMin="25" yMin="-18" xMax="1157" yMax="1137">
      <contour>
        <pt x="889" y="0" on="1"/>
        <pt x="823" y="117" on="0"/>
        <pt x="655" y="274" on="0"/>
        <pt x="578" y="291" on="1"/>
        <pt x="578" y="256" on="1"/>
        <pt x="578" y="116" on="0"/>
        <pt x="432" y="-18" on="0"/>
        <pt x="281" y="-18" on="1"/>
        <pt x="151" y="-18" on="0"/>
        <pt x="25" y="90" on="0"/>
        <pt x="25" y="186" on="1"/>
        <pt x="25" y="287" on="0"/>
        <pt x="168" y="424" on="0"/>
        <pt x="293" y="440" on="1"/>
        <pt x="293" y="756" on="1"/>
        <pt x="209" y="758" on="0"/>
        <pt x="109" y="858" on="0"/>
        <pt x="109" y="940" on="1"/>
        <pt x="109" y="1029" on="0"/>
        <pt x="225" y="1137" on="0"/>
        <pt x="322" y="1137" on="1"/>
        <pt x="447" y="1137" on="0"/>
        <pt x="578" y="984" on="0"/>
        <pt x="578" y="838" on="1"/>
        <pt x="578" y="438" on="1"/>
        <pt x="651" y="426" on="0"/>
        <pt x="818" y="342" on="0"/>
        <pt x="872" y="287" on="1"/>
        <pt x="872" y="1124" on="1"/>
        <pt x="1157" y="1124" on="1"/>
        <pt x="1157" y="0" on="1"/>
      </contour>
      <contour>
        <pt x="227" y="946" on="1"/>
        <pt x="227" y="909" on="0"/>
        <pt x="275" y="864" on="0"/>
        <pt x="313" y="864" on="1"/>
        <pt x="348" y="864" on="0"/>
        <pt x="397" y="909" on="0"/>
        <pt x="397" y="946" on="1"/>
        <pt x="397" y="984" on="0"/>
        <pt x="348" y="1030" on="0"/>
        <pt x="313" y="1030" on="1"/>
        <pt x="275" y="1030" on="0"/>
        <pt x="227" y="984" on="0"/>
      </contour>
      <contour>
        <pt x="190" y="182" on="1"/>
        <pt x="190" y="151" on="0"/>
        <pt x="218" y="113" on="0"/>
        <pt x="240" y="113" on="1"/>
        <pt x="293" y="113" on="0"/>
        <pt x="293" y="188" on="1"/>
        <pt x="293" y="307" on="1"/>
        <pt x="246" y="299" on="0"/>
        <pt x="190" y="227" on="0"/>
      </contour>
    </TTGlyph>
    <TTGlyph name="uni0E22" xMin="156" yMin="0" xMax="1182" yMax="1137">
      <contour>
        <pt x="156" y="0" on="1"/>
        <pt x="156" y="270" on="1"/>
        <pt x="156" y="373" on="0"/>
        <pt x="232" y="495" on="0"/>
        <pt x="319" y="526" on="1"/>
        <pt x="239" y="552" on="0"/>
        <pt x="156" y="665" on="0"/>
        <pt x="156" y="768" on="1"/>
        <pt x="156" y="877" on="1"/>
        <pt x="156" y="996" on="0"/>
        <pt x="302" y="1137" on="0"/>
        <pt x="420" y="1137" on="1"/>
        <pt x="517" y="1137" on="0"/>
        <pt x="625" y="1038" on="0"/>
        <pt x="625" y="948" on="1"/>
        <pt x="625" y="864" on="0"/>
        <pt x="530" y="763" on="0"/>
        <pt x="440" y="754" on="1"/>
        <pt x="440" y="745" on="1"/>
        <pt x="440" y="673" on="0"/>
        <pt x="541" y="600" on="0"/>
        <pt x="647" y="598" on="1"/>
        <pt x="647" y="457" on="1"/>
        <pt x="537" y="448" on="0"/>
        <pt x="440" y="358" on="0"/>
        <pt x="440" y="266" on="1"/>
        <pt x="440" y="229" on="1"/>
        <pt x="739" y="229" on="1"/>
        <pt x="825" y="229" on="0"/>
        <pt x="897" y="308" on="0"/>
        <pt x="897" y="403" on="1"/>
        <pt x="897" y="1126" on="1"/>
        <pt x="1182" y="1126" on="1"/>
        <pt x="1182" y="365" on="1"/>
        <pt x="1182" y="182" on="0"/>
        <pt x="995" y="0" on="0"/>
        <pt x="815" y="0" on="1"/>
      </contour>
      <contour>
        <pt x="506" y="946" on="1"/>
        <pt x="506" y="984" on="0"/>
        <pt x="458" y="1030" on="0"/>
        <pt x="420" y="1030" on="1"/>
        <pt x="385" y="1030" on="0"/>
        <pt x="336" y="984" on="0"/>
        <pt x="336" y="946" on="1"/>
        <pt x="336" y="909" on="0"/>
        <pt x="385" y="864" on="0"/>
        <pt x="420" y="864" on="1"/>
        <pt x="458" y="864" on="0"/>
        <pt x="506" y="909" on="0"/>
      </contour>
    </TTGlyph>
    <TTGlyph name="uni0E23" xMin="76" yMin="-18" xMax="1053" yMax="1126">
      <contour>
        <pt x="1053" y="913" on="1"/>
        <pt x="518" y="913" on="1"/>
        <pt x="429" y="913" on="0"/>
        <pt x="358" y="841" on="0"/>
        <pt x="358" y="760" on="1"/>
        <pt x="512" y="760" on="1"/>
        <pt x="680" y="760" on="0"/>
        <pt x="876" y="681" on="0"/>
        <pt x="965" y="515" on="0"/>
        <pt x="965" y="350" on="1"/>
        <pt x="965" y="260" on="1"/>
        <pt x="965" y="-18" on="0"/>
        <pt x="707" y="-18" on="1"/>
        <pt x="610" y="-18" on="0"/>
        <pt x="494" y="82" on="0"/>
        <pt x="494" y="178" on="1"/>
        <pt x="494" y="257" on="0"/>
        <pt x="593" y="358" on="0"/>
        <pt x="680" y="362" on="1"/>
        <pt x="680" y="385" on="1"/>
        <pt x="680" y="474" on="0"/>
        <pt x="590" y="547" on="0"/>
        <pt x="487" y="547" on="1"/>
        <pt x="76" y="547" on="1"/>
        <pt x="76" y="752" on="1"/>
        <pt x="76" y="935" on="0"/>
        <pt x="274" y="1126" on="0"/>
        <pt x="463" y="1126" on="1"/>
        <pt x="1053" y="1126" on="1"/>
      </contour>
      <contour>
        <pt x="612" y="172" on="1"/>
        <pt x="612" y="134" on="0"/>
        <pt x="660" y="88" on="0"/>
        <pt x="698" y="88" on="1"/>
        <pt x="733" y="88" on="0"/>
        <pt x="782" y="134" on="0"/>
        <pt x="782" y="172" on="1"/>
        <pt x="782" y="209" on="0"/>
        <pt x="733" y="254" on="0"/>
        <pt x="698" y="254" on="1"/>
        <pt x="660" y="254" on="0"/>
        <pt x="612" y="209" on="0"/>
      </contour>
    </TTGlyph>
    <TTGlyph name="uni0E24" xMin="123" yMin="-520" xMax="1182" yMax="1147">
      <contour>
        <pt x="604" y="178" on="1"/>
        <pt x="604" y="88" on="0"/>
        <pt x="486" y="-18" on="0"/>
        <pt x="391" y="-18" on="1"/>
        <pt x="133" y="-18" on="0"/>
        <pt x="133" y="260" on="1"/>
        <pt x="133" y="373" on="1"/>
        <pt x="133" y="488" on="0"/>
        <pt x="266" y="623" on="0"/>
        <pt x="399" y="649" on="1"/>
        <pt x="359" y="680" on="0"/>
        <pt x="184" y="729" on="0"/>
        <pt x="123" y="729" on="1"/>
        <pt x="132" y="932" on="0"/>
        <pt x="400" y="1147" on="0"/>
        <pt x="649" y="1147" on="1"/>
        <pt x="918" y="1147" on="0"/>
        <pt x="1182" y="928" on="0"/>
        <pt x="1182" y="696" on="1"/>
        <pt x="1182" y="-520" on="1"/>
        <pt x="897" y="-520" on="1"/>
        <pt x="897" y="633" on="1"/>
        <pt x="897" y="790" on="0"/>
        <pt x="777" y="936" on="0"/>
        <pt x="655" y="936" on="1"/>
        <pt x="556" y="936" on="0"/>
        <pt x="429" y="882" on="0"/>
        <pt x="412" y="829" on="1"/>
        <pt x="479" y="819" on="0"/>
        <pt x="623" y="749" on="0"/>
        <pt x="647" y="717" on="1"/>
        <pt x="647" y="590" on="1"/>
        <pt x="511" y="555" on="0"/>
        <pt x="418" y="465" on="0"/>
        <pt x="418" y="393" on="1"/>
        <pt x="418" y="362" on="1"/>
        <pt x="507" y="357" on="0"/>
        <pt x="604" y="260" on="0"/>
      </contour>
      <contour>
        <pt x="485" y="172" on="1"/>
        <pt x="485" y="209" on="0"/>
        <pt x="438" y="254" on="0"/>
        <pt x="399" y="254" on="1"/>
        <pt x="364" y="254" on="0"/>
        <pt x="315" y="209" on="0"/>
        <pt x="315" y="172" on="1"/>
        <pt x="315" y="134" on="0"/>
        <pt x="364" y="88" on="0"/>
        <pt x="399" y="88" on="1"/>
        <pt x="438" y="88" on="0"/>
        <pt x="485" y="134" on="0"/>
      </contour>
    </TTGlyph>
    <TTGlyph name="uni0E25" xMin="111" yMin="-18" xMax="1141" yMax="1147">
      <contour>
        <pt x="893" y="0" on="1"/>
        <pt x="796" y="267" on="0"/>
        <pt x="621" y="524" on="0"/>
        <pt x="535" y="524" on="1"/>
        <pt x="408" y="524" on="0"/>
        <pt x="408" y="385" on="1"/>
        <pt x="408" y="362" on="1"/>
        <pt x="499" y="357" on="0"/>
        <pt x="594" y="255" on="0"/>
        <pt x="594" y="172" on="1"/>
        <pt x="594" y="87" on="0"/>
        <pt x="475" y="-18" on="0"/>
        <pt x="381" y="-18" on="1"/>
        <pt x="248" y="-18" on="0"/>
        <pt x="123" y="124" on="0"/>
        <pt x="123" y="264" on="1"/>
        <pt x="123" y="373" on="1"/>
        <pt x="123" y="515" on="0"/>
        <pt x="311" y="684" on="0"/>
        <pt x="473" y="684" on="1"/>
        <pt x="591" y="684" on="0"/>
        <pt x="770" y="571" on="0"/>
        <pt x="856" y="428" on="1"/>
        <pt x="856" y="647" on="1"/>
        <pt x="856" y="922" on="0"/>
        <pt x="582" y="922" on="1"/>
        <pt x="425" y="922" on="0"/>
        <pt x="209" y="811" on="1"/>
        <pt x="111" y="1008" on="1"/>
        <pt x="349" y="1147" on="0"/>
        <pt x="643" y="1147" on="1"/>
        <pt x="1141" y="1147" on="0"/>
        <pt x="1141" y="684" on="1"/>
        <pt x="1141" y="0" on="1"/>
      </contour>
      <contour>
        <pt x="475" y="172" on="1"/>
        <pt x="475" y="209" on="0"/>
        <pt x="427" y="254" on="0"/>
        <pt x="389" y="254" on="1"/>
        <pt x="354" y="254" on="0"/>
        <pt x="305" y="209" on="0"/>
        <pt x="305" y="172" on="1"/>
        <pt x="305" y="134" on="0"/>
        <pt x="354" y="88" on="0"/>
        <pt x="389" y="88" on="1"/>
        <pt x="427" y="88" on="0"/>
        <pt x="475" y="134" on="0"/>
      </contour>
    </TTGlyph>
    <TTGlyph name="uni0E26" xMin="25" yMin="-520" xMax="1235" yMax="1147">
      <contour>
        <pt x="950" y="-520" on="1"/>
        <pt x="950" y="633" on="1"/>
        <pt x="950" y="936" on="0"/>
        <pt x="702" y="936" on="1"/>
        <pt x="496" y="936" on="0"/>
        <pt x="457" y="829" on="1"/>
        <pt x="524" y="812" on="0"/>
        <pt x="662" y="743" on="0"/>
        <pt x="694" y="709" on="1"/>
        <pt x="694" y="590" on="1"/>
        <pt x="589" y="564" on="0"/>
        <pt x="494" y="454" on="0"/>
        <pt x="494" y="369" on="1"/>
        <pt x="494" y="221" on="1"/>
        <pt x="494" y="107" on="0"/>
        <pt x="359" y="-18" on="0"/>
        <pt x="236" y="-18" on="1"/>
        <pt x="135" y="-18" on="0"/>
        <pt x="25" y="82" on="0"/>
        <pt x="25" y="172" on="1"/>
        <pt x="25" y="254" on="0"/>
        <pt x="127" y="357" on="0"/>
        <pt x="209" y="362" on="1"/>
        <pt x="209" y="383" on="1"/>
        <pt x="209" y="500" on="0"/>
        <pt x="323" y="629" on="0"/>
        <pt x="446" y="653" on="1"/>
        <pt x="402" y="684" on="0"/>
        <pt x="231" y="729" on="0"/>
        <pt x="170" y="729" on="1"/>
        <pt x="185" y="936" on="0"/>
        <pt x="454" y="1147" on="0"/>
        <pt x="700" y="1147" on="1"/>
        <pt x="970" y="1147" on="0"/>
        <pt x="1235" y="929" on="0"/>
        <pt x="1235" y="696" on="1"/>
        <pt x="1235" y="-520" on="1"/>
      </contour>
      <contour>
        <pt x="143" y="172" on="1"/>
        <pt x="143" y="134" on="0"/>
        <pt x="191" y="88" on="0"/>
        <pt x="229" y="88" on="1"/>
        <pt x="264" y="88" on="0"/>
        <pt x="313" y="134" on="0"/>
        <pt x="313" y="172" on="1"/>
        <pt x="313" y="209" on="0"/>
        <pt x="264" y="254" on="0"/>
        <pt x="229" y="254" on="1"/>
        <pt x="191" y="254" on="0"/>
        <pt x="143" y="209" on="0"/>
      </contour>
    </TTGlyph>
    <TTGlyph name="uni0E27" xMin="0" yMin="-18" xMax="911" yMax="1147">
      <contour>
        <pt x="627" y="362" on="1"/>
        <pt x="627" y="672" on="1"/>
        <pt x="627" y="922" on="0"/>
        <pt x="412" y="922" on="1"/>
        <pt x="342" y="922" on="0"/>
        <pt x="191" y="865" on="0"/>
        <pt x="98" y="811" on="1"/>
        <pt x="0" y="1008" on="1"/>
        <pt x="213" y="1147" on="0"/>
        <pt x="471" y="1147" on="1"/>
        <pt x="689" y="1147" on="0"/>
        <pt x="911" y="921" on="0"/>
        <pt x="911" y="705" on="1"/>
        <pt x="911" y="260" on="1"/>
        <pt x="911" y="121" on="0"/>
        <pt x="785" y="-18" on="0"/>
        <pt x="651" y="-18" on="1"/>
        <pt x="554" y="-18" on="0"/>
        <pt x="442" y="81" on="0"/>
        <pt x="442" y="174" on="1"/>
        <pt x="442" y="256" on="0"/>
        <pt x="550" y="358" on="0"/>
      </contour>
      <contour>
        <pt x="561" y="172" on="1"/>
        <pt x="561" y="134" on="0"/>
        <pt x="609" y="88" on="0"/>
        <pt x="647" y="88" on="1"/>
        <pt x="682" y="88" on="0"/>
        <pt x="731" y="134" on="0"/>
        <pt x="731" y="172" on="1"/>
        <pt x="731" y="209" on="0"/>
        <pt x="682" y="254" on="0"/>
        <pt x="647" y="254" on="1"/>
        <pt x="609" y="254" on="0"/>
        <pt x="561" y="209" on="0"/>
      </contour>
    </TTGlyph>
    <TTGlyph name="uni0E28" xMin="102" yMin="0" xMax="1458" yMax="1206">
      <contour>
        <pt x="420" y="469" on="1"/>
        <pt x="474" y="625" on="0"/>
        <pt x="607" y="760" on="0"/>
        <pt x="700" y="760" on="1"/>
        <pt x="711" y="760" on="1"/>
        <pt x="725" y="758" on="1"/>
        <pt x="850" y="810" on="0"/>
        <pt x="907" y="844" on="1"/>
        <pt x="842" y="936" on="0"/>
        <pt x="690" y="936" on="1"/>
        <pt x="555" y="936" on="0"/>
        <pt x="385" y="801" on="0"/>
        <pt x="385" y="690" on="1"/>
        <pt x="385" y="604" on="0"/>
        <pt x="409" y="517" on="1"/>
      </contour>
      <contour>
        <pt x="784" y="569" on="1"/>
        <pt x="784" y="610" on="0"/>
        <pt x="737" y="653" on="0"/>
        <pt x="698" y="653" on="1"/>
        <pt x="663" y="653" on="0"/>
        <pt x="614" y="610" on="0"/>
        <pt x="614" y="569" on="1"/>
        <pt x="614" y="531" on="0"/>
        <pt x="663" y="485" on="0"/>
        <pt x="698" y="485" on="1"/>
        <pt x="737" y="485" on="0"/>
        <pt x="784" y="531" on="0"/>
      </contour>
      <contour>
        <pt x="1458" y="1206" on="1"/>
        <pt x="1409" y="1096" on="0"/>
        <pt x="1281" y="921" on="0"/>
        <pt x="1223" y="879" on="1"/>
        <pt x="1253" y="805" on="0"/>
        <pt x="1253" y="696" on="1"/>
        <pt x="1253" y="0" on="1"/>
        <pt x="969" y="0" on="1"/>
        <pt x="969" y="633" on="1"/>
        <pt x="969" y="677" on="0"/>
        <pt x="963" y="715" on="1"/>
        <pt x="947" y="708" on="0"/>
        <pt x="872" y="682" on="1"/>
        <pt x="903" y="636" on="0"/>
        <pt x="903" y="569" on="1"/>
        <pt x="903" y="478" on="0"/>
        <pt x="799" y="379" on="0"/>
        <pt x="700" y="379" on="1"/>
        <pt x="655" y="379" on="0"/>
        <pt x="580" y="413" on="0"/>
        <pt x="561" y="436" on="1"/>
        <pt x="528" y="376" on="0"/>
        <pt x="496" y="275" on="0"/>
        <pt x="471" y="139" on="0"/>
        <pt x="471" y="57" on="1"/>
        <pt x="471" y="0" on="1"/>
        <pt x="186" y="0" on="1"/>
        <pt x="186" y="119" on="1"/>
        <pt x="186" y="309" on="0"/>
        <pt x="144" y="469" on="1"/>
        <pt x="120" y="562" on="0"/>
        <pt x="102" y="670" on="0"/>
        <pt x="102" y="729" on="1"/>
        <pt x="102" y="922" on="0"/>
        <pt x="412" y="1147" on="0"/>
        <pt x="678" y="1147" on="1"/>
        <pt x="940" y="1147" on="0"/>
        <pt x="1087" y="1047" on="1"/>
        <pt x="1141" y="1128" on="0"/>
        <pt x="1167" y="1206" on="1"/>
      </contour>
    </TTGlyph>
    <TTGlyph name="uni0E29" xMin="25" yMin="0" xMax="1497" yMax="1137">
      <contour>
        <pt x="831" y="395" on="1"/>
        <pt x="697" y="395" on="0"/>
        <pt x="555" y="499" on="0"/>
        <pt x="555" y="596" on="1"/>
        <pt x="555" y="682" on="0"/>
        <pt x="664" y="780" on="0"/>
        <pt x="754" y="780" on="1"/>
        <pt x="843" y="780" on="0"/>
        <pt x="950" y="685" on="0"/>
        <pt x="950" y="606" on="1"/>
        <pt x="950" y="548" on="0"/>
        <pt x="922" y="508" on="1"/>
        <pt x="989" y="524" on="0"/>
        <pt x="1012" y="532" on="1"/>
        <pt x="1012" y="1126" on="1"/>
        <pt x="1296" y="1126" on="1"/>
        <pt x="1296" y="739" on="1"/>
        <pt x="1338" y="796" on="0"/>
        <pt x="1364" y="862" on="1"/>
        <pt x="1497" y="862" on="1"/>
        <pt x="1430" y="689" on="0"/>
        <pt x="1296" y="567" on="1"/>
        <pt x="1296" y="365" on="1"/>
        <pt x="1296" y="0" on="0"/>
        <pt x="930" y="0" on="1"/>
        <pt x="90" y="0" on="1"/>
        <pt x="90" y="188" on="1"/>
        <pt x="209" y="229" on="1"/>
        <pt x="209" y="756" on="1"/>
        <pt x="125" y="758" on="0"/>
        <pt x="25" y="858" on="0"/>
        <pt x="25" y="940" on="1"/>
        <pt x="25" y="1029" on="0"/>
        <pt x="141" y="1137" on="0"/>
        <pt x="238" y="1137" on="1"/>
        <pt x="363" y="1137" on="0"/>
        <pt x="494" y="984" on="0"/>
        <pt x="494" y="838" on="1"/>
        <pt x="494" y="229" on="1"/>
        <pt x="854" y="229" on="1"/>
        <pt x="940" y="229" on="0"/>
        <pt x="1012" y="308" on="0"/>
        <pt x="1012" y="403" on="1"/>
        <pt x="1012" y="418" on="1"/>
        <pt x="923" y="395" on="0"/>
      </contour>
      <contour>
        <pt x="143" y="946" on="1"/>
        <pt x="143" y="909" on="0"/>
        <pt x="191" y="864" on="0"/>
        <pt x="229" y="864" on="1"/>
        <pt x="264" y="864" on="0"/>
        <pt x="313" y="909" on="0"/>
        <pt x="313" y="946" on="1"/>
        <pt x="313" y="984" on="0"/>
        <pt x="264" y="1030" on="0"/>
        <pt x="229" y="1030" on="1"/>
        <pt x="191" y="1030" on="0"/>
        <pt x="143" y="984" on="0"/>
      </contour>
      <contour>
        <pt x="676" y="596" on="1"/>
        <pt x="676" y="562" on="0"/>
        <pt x="719" y="520" on="0"/>
        <pt x="754" y="520" on="1"/>
        <pt x="786" y="520" on="0"/>
        <pt x="829" y="562" on="0"/>
        <pt x="829" y="596" on="1"/>
        <pt x="829" y="631" on="0"/>
        <pt x="786" y="672" on="0"/>
        <pt x="754" y="672" on="1"/>
        <pt x="719" y="672" on="0"/>
        <pt x="676" y="631" on="0"/>
      </contour>
    </TTGlyph>
    <TTGlyph name="uni0E2A" xMin="111" yMin="-18" xMax="1346" yMax="1206">
      <contour>
        <pt x="475" y="172" on="1"/>
        <pt x="475" y="209" on="0"/>
        <pt x="427" y="254" on="0"/>
        <pt x="389" y="254" on="1"/>
        <pt x="354" y="254" on="0"/>
        <pt x="305" y="209" on="0"/>
        <pt x="305" y="172" on="1"/>
        <pt x="305" y="134" on="0"/>
        <pt x="354" y="88" on="0"/>
        <pt x="389" y="88" on="1"/>
        <pt x="427" y="88" on="0"/>
        <pt x="475" y="134" on="0"/>
      </contour>
      <contour>
        <pt x="674" y="621" on="1"/>
        <pt x="783" y="548" on="0"/>
        <pt x="856" y="414" on="1"/>
        <pt x="856" y="688" on="1"/>
        <pt x="773" y="653" on="0"/>
      </contour>
      <contour>
        <pt x="981" y="1051" on="1"/>
        <pt x="1029" y="1128" on="0"/>
        <pt x="1055" y="1206" on="1"/>
        <pt x="1346" y="1206" on="1"/>
        <pt x="1299" y="1101" on="0"/>
        <pt x="1170" y="922" on="0"/>
        <pt x="1110" y="879" on="1"/>
        <pt x="1141" y="802" on="0"/>
        <pt x="1141" y="696" on="1"/>
        <pt x="1141" y="0" on="1"/>
        <pt x="928" y="0" on="1"/>
        <pt x="730" y="524" on="0"/>
        <pt x="535" y="524" on="1"/>
        <pt x="408" y="524" on="0"/>
        <pt x="408" y="385" on="1"/>
        <pt x="408" y="362" on="1"/>
        <pt x="499" y="357" on="0"/>
        <pt x="594" y="255" on="0"/>
        <pt x="594" y="172" on="1"/>
        <pt x="594" y="87" on="0"/>
        <pt x="475" y="-18" on="0"/>
        <pt x="381" y="-18" on="1"/>
        <pt x="248" y="-18" on="0"/>
        <pt x="123" y="124" on="0"/>
        <pt x="123" y="264" on="1"/>
        <pt x="123" y="373" on="1"/>
        <pt x="123" y="515" on="0"/>
        <pt x="311" y="684" on="0"/>
        <pt x="473" y="684" on="1"/>
        <pt x="502" y="684" on="0"/>
        <pt x="514" y="680" on="1"/>
        <pt x="637" y="727" on="0"/>
        <pt x="805" y="834" on="1"/>
        <pt x="773" y="877" on="0"/>
        <pt x="656" y="922" on="0"/>
        <pt x="582" y="922" on="1"/>
        <pt x="425" y="922" on="0"/>
        <pt x="209" y="811" on="1"/>
        <pt x="111" y="1008" on="1"/>
        <pt x="349" y="1147" on="0"/>
        <pt x="643" y="1147" on="1"/>
        <pt x="866" y="1147" on="0"/>
      </contour>
    </TTGlyph>
    <TTGlyph name="uni0E2B" xMin="25" yMin="0" xMax="1188" yMax="1137">
      <contour>
        <pt x="793" y="733" on="1"/>
        <pt x="759" y="773" on="0"/>
        <pt x="713" y="865" on="0"/>
        <pt x="713" y="930" on="1"/>
        <pt x="713" y="1021" on="0"/>
        <pt x="842" y="1137" on="0"/>
        <pt x="944" y="1137" on="1"/>
        <pt x="1041" y="1137" on="0"/>
        <pt x="1157" y="1041" on="0"/>
        <pt x="1157" y="950" on="1"/>
        <pt x="1157" y="842" on="0"/>
        <pt x="1075" y="764" on="1"/>
        <pt x="1138" y="711" on="0"/>
        <pt x="1188" y="590" on="0"/>
        <pt x="1188" y="477" on="1"/>
        <pt x="1188" y="0" on="1"/>
        <pt x="903" y="0" on="1"/>
        <pt x="903" y="434" on="1"/>
        <pt x="903" y="525" on="0"/>
        <pt x="890" y="599" on="0"/>
        <pt x="877" y="608" on="1"/>
        <pt x="658" y="436" on="0"/>
        <pt x="479" y="0" on="1"/>
        <pt x="209" y="0" on="1"/>
        <pt x="209" y="756" on="1"/>
        <pt x="126" y="761" on="0"/>
        <pt x="25" y="858" on="0"/>
        <pt x="25" y="940" on="1"/>
        <pt x="25" y="1029" on="0"/>
        <pt x="141" y="1137" on="0"/>
        <pt x="238" y="1137" on="1"/>
        <pt x="363" y="1137" on="0"/>
        <pt x="494" y="984" on="0"/>
        <pt x="494" y="838" on="1"/>
        <pt x="494" y="397" on="1"/>
        <pt x="619" y="607" on="0"/>
      </contour>
      <contour>
        <pt x="143" y="946" on="1"/>
        <pt x="143" y="909" on="0"/>
        <pt x="191" y="864" on="0"/>
        <pt x="229" y="864" on="1"/>
        <pt x="264" y="864" on="0"/>
        <pt x="313" y="909" on="0"/>
        <pt x="313" y="946" on="1"/>
        <pt x="313" y="984" on="0"/>
        <pt x="264" y="1030" on="0"/>
        <pt x="229" y="1030" on="1"/>
        <pt x="191" y="1030" on="0"/>
        <pt x="143" y="984" on="0"/>
      </contour>
      <contour>
        <pt x="1018" y="952" on="1"/>
        <pt x="1018" y="991" on="0"/>
        <pt x="972" y="1030" on="0"/>
        <pt x="940" y="1030" on="1"/>
        <pt x="905" y="1030" on="0"/>
        <pt x="864" y="987" on="0"/>
        <pt x="864" y="952" on="1"/>
        <pt x="864" y="886" on="0"/>
        <pt x="948" y="844" on="1"/>
        <pt x="1018" y="890" on="0"/>
      </contour>
    </TTGlyph>
    <TTGlyph name="uni0E2C" xMin="25" yMin="0" xMax="1563" yMax="1452">
      <contour>
        <pt x="203" y="0" on="1"/>
        <pt x="203" y="756" on="1"/>
        <pt x="124" y="758" on="0"/>
        <pt x="25" y="860" on="0"/>
        <pt x="25" y="940" on="1"/>
        <pt x="25" y="1029" on="0"/>
        <pt x="141" y="1137" on="0"/>
        <pt x="238" y="1137" on="1"/>
        <pt x="363" y="1137" on="0"/>
        <pt x="494" y="984" on="0"/>
        <pt x="494" y="838" on="1"/>
        <pt x="494" y="317" on="1"/>
        <pt x="702" y="645" on="1"/>
        <pt x="801" y="645" on="1"/>
        <pt x="1010" y="317" on="1"/>
        <pt x="1010" y="1075" on="1"/>
        <pt x="934" y="1098" on="0"/>
        <pt x="854" y="1197" on="0"/>
        <pt x="854" y="1268" on="1"/>
        <pt x="854" y="1354" on="0"/>
        <pt x="963" y="1452" on="0"/>
        <pt x="1053" y="1452" on="1"/>
        <pt x="1142" y="1452" on="0"/>
        <pt x="1249" y="1359" on="0"/>
        <pt x="1249" y="1280" on="1"/>
        <pt x="1249" y="1225" on="0"/>
        <pt x="1223" y="1188" on="1"/>
        <pt x="1293" y="1213" on="0"/>
        <pt x="1376" y="1326" on="0"/>
        <pt x="1399" y="1436" on="1"/>
        <pt x="1563" y="1436" on="1"/>
        <pt x="1529" y="1284" on="0"/>
        <pt x="1399" y="1115" on="0"/>
        <pt x="1300" y="1081" on="1"/>
        <pt x="1300" y="0" on="1"/>
        <pt x="1010" y="0" on="1"/>
        <pt x="752" y="403" on="1"/>
        <pt x="494" y="0" on="1"/>
      </contour>
      <contour>
        <pt x="143" y="946" on="1"/>
        <pt x="143" y="909" on="0"/>
        <pt x="191" y="864" on="0"/>
        <pt x="229" y="864" on="1"/>
        <pt x="264" y="864" on="0"/>
        <pt x="313" y="909" on="0"/>
        <pt x="313" y="946" on="1"/>
        <pt x="313" y="984" on="0"/>
        <pt x="264" y="1030" on="0"/>
        <pt x="229" y="1030" on="1"/>
        <pt x="191" y="1030" on="0"/>
        <pt x="143" y="984" on="0"/>
      </contour>
      <contour>
        <pt x="975" y="1268" on="1"/>
        <pt x="975" y="1234" on="0"/>
        <pt x="1018" y="1192" on="0"/>
        <pt x="1053" y="1192" on="1"/>
        <pt x="1085" y="1192" on="0"/>
        <pt x="1128" y="1234" on="0"/>
        <pt x="1128" y="1268" on="1"/>
        <pt x="1128" y="1303" on="0"/>
        <pt x="1085" y="1343" on="0"/>
        <pt x="1053" y="1343" on="1"/>
        <pt x="1018" y="1343" on="0"/>
        <pt x="975" y="1303" on="0"/>
      </contour>
    </TTGlyph>
    <TTGlyph name="uni0E2D" xMin="123" yMin="0" xMax="1114" yMax="1147">
      <contour>
        <pt x="123" y="475" on="1"/>
        <pt x="123" y="605" on="0"/>
        <pt x="261" y="748" on="0"/>
        <pt x="383" y="748" on="1"/>
        <pt x="480" y="748" on="0"/>
        <pt x="586" y="647" on="0"/>
        <pt x="586" y="557" on="1"/>
        <pt x="586" y="475" on="0"/>
        <pt x="491" y="373" on="0"/>
        <pt x="408" y="367" on="1"/>
        <pt x="408" y="340" on="1"/>
        <pt x="408" y="295" on="0"/>
        <pt x="426" y="249" on="0"/>
        <pt x="466" y="229" on="0"/>
        <pt x="535" y="229" on="1"/>
        <pt x="694" y="229" on="1"/>
        <pt x="777" y="229" on="0"/>
        <pt x="829" y="277" on="0"/>
        <pt x="829" y="362" on="1"/>
        <pt x="829" y="647" on="1"/>
        <pt x="829" y="790" on="0"/>
        <pt x="709" y="922" on="0"/>
        <pt x="573" y="922" on="1"/>
        <pt x="427" y="922" on="0"/>
        <pt x="223" y="811" on="1"/>
        <pt x="125" y="1008" on="1"/>
        <pt x="353" y="1147" on="0"/>
        <pt x="637" y="1147" on="1"/>
        <pt x="1114" y="1147" on="0"/>
        <pt x="1114" y="684" on="1"/>
        <pt x="1114" y="344" on="1"/>
        <pt x="1114" y="161" on="0"/>
        <pt x="948" y="0" on="0"/>
        <pt x="768" y="0" on="1"/>
        <pt x="469" y="0" on="1"/>
        <pt x="287" y="0" on="0"/>
        <pt x="123" y="157" on="0"/>
        <pt x="123" y="344" on="1"/>
      </contour>
      <contour>
        <pt x="467" y="557" on="1"/>
        <pt x="467" y="595" on="0"/>
        <pt x="419" y="641" on="0"/>
        <pt x="381" y="641" on="1"/>
        <pt x="346" y="641" on="0"/>
        <pt x="297" y="595" on="0"/>
        <pt x="297" y="557" on="1"/>
        <pt x="297" y="520" on="0"/>
        <pt x="346" y="475" on="0"/>
        <pt x="381" y="475" on="1"/>
        <pt x="419" y="475" on="0"/>
        <pt x="467" y="520" on="0"/>
      </contour>
    </TTGlyph>
    <TTGlyph name="uni0E2E" xMin="123" yMin="0" xMax="1296" yMax="1206">
      <contour>
        <pt x="1087" y="901" on="1"/>
        <pt x="1114" y="847" on="0"/>
        <pt x="1114" y="737" on="1"/>
        <pt x="1114" y="344" on="1"/>
        <pt x="1114" y="161" on="0"/>
        <pt x="948" y="0" on="0"/>
        <pt x="768" y="0" on="1"/>
        <pt x="465" y="0" on="1"/>
        <pt x="291" y="0" on="0"/>
        <pt x="123" y="153" on="0"/>
        <pt x="123" y="334" on="1"/>
        <pt x="123" y="393" on="1"/>
        <pt x="123" y="523" on="0"/>
        <pt x="261" y="666" on="0"/>
        <pt x="383" y="666" on="1"/>
        <pt x="480" y="666" on="0"/>
        <pt x="586" y="565" on="0"/>
        <pt x="586" y="475" on="1"/>
        <pt x="586" y="393" on="0"/>
        <pt x="491" y="291" on="0"/>
        <pt x="408" y="285" on="1"/>
        <pt x="408" y="257" on="0"/>
        <pt x="433" y="229" on="0"/>
        <pt x="473" y="229" on="1"/>
        <pt x="694" y="229" on="1"/>
        <pt x="777" y="229" on="0"/>
        <pt x="829" y="277" on="0"/>
        <pt x="829" y="362" on="1"/>
        <pt x="829" y="748" on="1"/>
        <pt x="827" y="768" on="1"/>
        <pt x="716" y="721" on="0"/>
        <pt x="565" y="721" on="1"/>
        <pt x="150" y="721" on="0"/>
        <pt x="150" y="932" on="1"/>
        <pt x="150" y="1038" on="0"/>
        <pt x="361" y="1157" on="0"/>
        <pt x="563" y="1157" on="1"/>
        <pt x="684" y="1157" on="0"/>
        <pt x="870" y="1117" on="0"/>
        <pt x="940" y="1071" on="1"/>
        <pt x="986" y="1145" on="0"/>
        <pt x="1006" y="1206" on="1"/>
        <pt x="1296" y="1206" on="1"/>
        <pt x="1205" y="1006" on="0"/>
      </contour>
      <contour>
        <pt x="559" y="1026" on="1"/>
        <pt x="462" y="1026" on="0"/>
        <pt x="344" y="977" on="0"/>
        <pt x="344" y="938" on="1"/>
        <pt x="344" y="901" on="0"/>
        <pt x="459" y="860" on="0"/>
        <pt x="565" y="860" on="1"/>
        <pt x="700" y="860" on="0"/>
        <pt x="788" y="909" on="1"/>
        <pt x="764" y="965" on="0"/>
        <pt x="641" y="1026" on="0"/>
      </contour>
      <contour>
        <pt x="467" y="475" on="1"/>
        <pt x="467" y="513" on="0"/>
        <pt x="419" y="559" on="0"/>
        <pt x="381" y="559" on="1"/>
        <pt x="346" y="559" on="0"/>
        <pt x="297" y="513" on="0"/>
        <pt x="297" y="475" on="1"/>
        <pt x="297" y="438" on="0"/>
        <pt x="346" y="393" on="0"/>
        <pt x="381" y="393" on="1"/>
        <pt x="419" y="393" on="0"/>
        <pt x="467" y="438" on="0"/>
      </contour>
    </TTGlyph>
    <TTGlyph name="uni0E2F" xMin="16" yMin="0" xMax="956" yMax="1126">
      <contour>
        <pt x="672" y="0" on="1"/>
        <pt x="672" y="760" on="1"/>
        <pt x="534" y="647" on="0"/>
        <pt x="307" y="647" on="1"/>
        <pt x="173" y="647" on="0"/>
        <pt x="16" y="761" on="0"/>
        <pt x="16" y="858" on="1"/>
        <pt x="16" y="944" on="0"/>
        <pt x="125" y="1042" on="0"/>
        <pt x="215" y="1042" on="1"/>
        <pt x="304" y="1042" on="0"/>
        <pt x="412" y="948" on="0"/>
        <pt x="412" y="870" on="1"/>
        <pt x="412" y="810" on="0"/>
        <pt x="385" y="772" on="1"/>
        <pt x="503" y="805" on="0"/>
        <pt x="671" y="977" on="0"/>
        <pt x="727" y="1126" on="1"/>
        <pt x="956" y="1126" on="1"/>
        <pt x="956" y="0" on="1"/>
      </contour>
      <contour>
        <pt x="137" y="858" on="1"/>
        <pt x="137" y="824" on="0"/>
        <pt x="180" y="782" on="0"/>
        <pt x="215" y="782" on="1"/>
        <pt x="247" y="782" on="0"/>
        <pt x="291" y="824" on="0"/>
        <pt x="291" y="858" on="1"/>
        <pt x="291" y="893" on="0"/>
        <pt x="247" y="934" on="0"/>
        <pt x="215" y="934" on="1"/>
        <pt x="180" y="934" on="0"/>
        <pt x="137" y="893" on="0"/>
      </contour>
    </TTGlyph>
    <TTGlyph name="uni0E30" xMin="70" yMin="96" xMax="952" yMax="1069">
      <contour>
        <pt x="356" y="592" on="1"/>
        <pt x="219" y="592" on="0"/>
        <pt x="70" y="706" on="0"/>
        <pt x="70" y="803" on="1"/>
        <pt x="70" y="889" on="0"/>
        <pt x="179" y="987" on="0"/>
        <pt x="268" y="987" on="1"/>
        <pt x="357" y="987" on="0"/>
        <pt x="465" y="893" on="0"/>
        <pt x="465" y="815" on="1"/>
        <pt x="465" y="752" on="0"/>
        <pt x="438" y="717" on="1"/>
        <pt x="565" y="754" on="0"/>
        <pt x="729" y="923" on="0"/>
        <pt x="782" y="1069" on="1"/>
        <pt x="952" y="1069" on="1"/>
        <pt x="881" y="833" on="0"/>
        <pt x="572" y="592" on="0"/>
      </contour>
      <contour>
        <pt x="190" y="803" on="1"/>
        <pt x="190" y="769" on="0"/>
        <pt x="233" y="727" on="0"/>
        <pt x="268" y="727" on="1"/>
        <pt x="300" y="727" on="0"/>
        <pt x="344" y="769" on="0"/>
        <pt x="344" y="803" on="1"/>
        <pt x="344" y="838" on="0"/>
        <pt x="300" y="879" on="0"/>
        <pt x="268" y="879" on="1"/>
        <pt x="233" y="879" on="0"/>
        <pt x="190" y="838" on="0"/>
      </contour>
      <contour>
        <pt x="356" y="96" on="1"/>
        <pt x="219" y="96" on="0"/>
        <pt x="70" y="210" on="0"/>
        <pt x="70" y="307" on="1"/>
        <pt x="70" y="394" on="0"/>
        <pt x="180" y="492" on="0"/>
        <pt x="268" y="492" on="1"/>
        <pt x="359" y="492" on="0"/>
        <pt x="465" y="395" on="0"/>
        <pt x="465" y="319" on="1"/>
        <pt x="465" y="256" on="0"/>
        <pt x="438" y="221" on="1"/>
        <pt x="559" y="255" on="0"/>
        <pt x="725" y="421" on="0"/>
        <pt x="782" y="575" on="1"/>
        <pt x="952" y="575" on="1"/>
        <pt x="882" y="342" on="0"/>
        <pt x="577" y="96" on="0"/>
      </contour>
      <contour>
        <pt x="190" y="307" on="1"/>
        <pt x="190" y="273" on="0"/>
        <pt x="233" y="233" on="0"/>
        <pt x="268" y="233" on="1"/>
        <pt x="300" y="233" on="0"/>
        <pt x="344" y="273" on="0"/>
        <pt x="344" y="307" on="1"/>
        <pt x="344" y="342" on="0"/>
        <pt x="300" y="383" on="0"/>
        <pt x="268" y="383" on="1"/>
        <pt x="233" y="383" on="0"/>
        <pt x="190" y="342" on="0"/>
      </contour>
    </TTGlyph>
    <TTGlyph name="uni0E31" xMin="-662" yMin="1212" xMax="47" yMax="1608">
      <contour>
        <pt x="-375" y="1212" on="1"/>
        <pt x="-512" y="1212" on="0"/>
        <pt x="-662" y="1326" on="0"/>
        <pt x="-662" y="1423" on="1"/>
        <pt x="-662" y="1510" on="0"/>
        <pt x="-552" y="1608" on="0"/>
        <pt x="-463" y="1608" on="1"/>
        <pt x="-374" y="1608" on="0"/>
        <pt x="-266" y="1514" on="0"/>
        <pt x="-266" y="1436" on="1"/>
        <pt x="-266" y="1378" on="0"/>
        <pt x="-293" y="1343" on="1"/>
        <pt x="-218" y="1370" on="0"/>
        <pt x="-136" y="1492" on="0"/>
        <pt x="-117" y="1591" on="1"/>
        <pt x="47" y="1591" on="1"/>
        <pt x="4" y="1393" on="0"/>
        <pt x="-204" y="1212" on="0"/>
      </contour>
      <contour>
        <pt x="-541" y="1423" on="1"/>
        <pt x="-541" y="1389" on="0"/>
        <pt x="-498" y="1348" on="0"/>
        <pt x="-463" y="1348" on="1"/>
        <pt x="-431" y="1348" on="0"/>
        <pt x="-387" y="1389" on="0"/>
        <pt x="-387" y="1423" on="1"/>
        <pt x="-387" y="1458" on="0"/>
        <pt x="-431" y="1499" on="0"/>
        <pt x="-463" y="1499" on="1"/>
        <pt x="-498" y="1499" on="0"/>
        <pt x="-541" y="1458" on="0"/>
      </contour>
    </TTGlyph>
    <TTGlyph name="uni0E32" xMin="0" yMin="0" xMax="911" yMax="1147">
      <contour>
        <pt x="911" y="0" on="1"/>
        <pt x="627" y="0" on="1"/>
        <pt x="627" y="672" on="1"/>
        <pt x="627" y="922" on="0"/>
        <pt x="412" y="922" on="1"/>
        <pt x="342" y="922" on="0"/>
        <pt x="191" y="865" on="0"/>
        <pt x="98" y="811" on="1"/>
        <pt x="0" y="1008" on="1"/>
        <pt x="213" y="1147" on="0"/>
        <pt x="471" y="1147" on="1"/>
        <pt x="689" y="1147" on="0"/>
        <pt x="911" y="921" on="0"/>
        <pt x="911" y="705" on="1"/>
      </contour>
    </TTGlyph>
    <TTGlyph name="uni0E33" xMin="-532" yMin="0" xMax="911" yMax="1583">
      <component glyphName="uni0E32" x="0" y="0" flags="0x204"/>
      <component glyphName="uni0E4D" x="-30" y="0" flags="0x4"/>
    </TTGlyph>
    <TTGlyph name="uni0E34" xMin="-1010" yMin="1206" xMax="-143" yMax="1622">
      <contour>
        <pt x="-143" y="1206" on="1"/>
        <pt x="-399" y="1259" on="0"/>
        <pt x="-793" y="1303" on="0"/>
        <pt x="-1010" y="1303" on="1"/>
        <pt x="-976" y="1454" on="0"/>
        <pt x="-765" y="1622" on="0"/>
        <pt x="-618" y="1622" on="1"/>
        <pt x="-434" y="1622" on="0"/>
        <pt x="-186" y="1409" on="0"/>
      </contour>
      <contour>
        <pt x="-621" y="1511" on="1"/>
        <pt x="-778" y="1511" on="0"/>
        <pt x="-823" y="1405" on="1"/>
        <pt x="-597" y="1405" on="0"/>
        <pt x="-315" y="1341" on="1"/>
        <pt x="-353" y="1419" on="0"/>
        <pt x="-515" y="1511" on="0"/>
      </contour>
    </TTGlyph>
    <TTGlyph name="uni0E35" xMin="-1010" yMin="1206" xMax="-143" yMax="1692">
      <contour>
        <pt x="-143" y="1206" on="1"/>
        <pt x="-399" y="1259" on="0"/>
        <pt x="-793" y="1303" on="0"/>
        <pt x="-1010" y="1303" on="1"/>
        <pt x="-976" y="1454" on="0"/>
        <pt x="-765" y="1622" on="0"/>
        <pt x="-618" y="1622" on="1"/>
        <pt x="-422" y="1622" on="0"/>
        <pt x="-297" y="1503" on="1"/>
        <pt x="-297" y="1692" on="1"/>
        <pt x="-178" y="1692" on="1"/>
        <pt x="-178" y="1323" on="1"/>
        <pt x="-156" y="1268" on="0"/>
      </contour>
      <contour>
        <pt x="-621" y="1511" on="1"/>
        <pt x="-778" y="1511" on="0"/>
        <pt x="-823" y="1405" on="1"/>
        <pt x="-577" y="1401" on="0"/>
        <pt x="-315" y="1341" on="1"/>
        <pt x="-353" y="1419" on="0"/>
        <pt x="-515" y="1511" on="0"/>
      </contour>
    </TTGlyph>
    <TTGlyph name="uni0E36" xMin="-1010" yMin="1206" xMax="-39" yMax="1677">
      <contour>
        <pt x="-143" y="1206" on="1"/>
        <pt x="-399" y="1259" on="0"/>
        <pt x="-793" y="1303" on="0"/>
        <pt x="-1010" y="1303" on="1"/>
        <pt x="-976" y="1454" on="0"/>
        <pt x="-765" y="1622" on="0"/>
        <pt x="-618" y="1622" on="1"/>
        <pt x="-479" y="1622" on="0"/>
        <pt x="-373" y="1561" on="1"/>
        <pt x="-356" y="1612" on="0"/>
        <pt x="-267" y="1677" on="0"/>
        <pt x="-211" y="1677" on="1"/>
        <pt x="-134" y="1677" on="0"/>
        <pt x="-39" y="1585" on="0"/>
        <pt x="-39" y="1509" on="1"/>
        <pt x="-39" y="1442" on="0"/>
        <pt x="-120" y="1354" on="0"/>
        <pt x="-186" y="1343" on="1"/>
        <pt x="-161" y="1290" on="0"/>
      </contour>
      <contour>
        <pt x="-279" y="1509" on="1"/>
        <pt x="-279" y="1478" on="0"/>
        <pt x="-240" y="1440" on="0"/>
        <pt x="-211" y="1440" on="1"/>
        <pt x="-182" y="1440" on="0"/>
        <pt x="-143" y="1480" on="0"/>
        <pt x="-143" y="1511" on="1"/>
        <pt x="-143" y="1542" on="0"/>
        <pt x="-182" y="1581" on="0"/>
        <pt x="-211" y="1581" on="1"/>
        <pt x="-242" y="1581" on="0"/>
        <pt x="-279" y="1540" on="0"/>
      </contour>
      <contour>
        <pt x="-621" y="1511" on="1"/>
        <pt x="-778" y="1511" on="0"/>
        <pt x="-823" y="1405" on="1"/>
        <pt x="-597" y="1405" on="0"/>
        <pt x="-315" y="1341" on="1"/>
        <pt x="-353" y="1419" on="0"/>
        <pt x="-515" y="1511" on="0"/>
      </contour>
    </TTGlyph>
    <TTGlyph name="uni0E37" xMin="-1010" yMin="1206" xMax="-143" yMax="1692">
      <contour>
        <pt x="-143" y="1206" on="1"/>
        <pt x="-399" y="1259" on="0"/>
        <pt x="-793" y="1303" on="0"/>
        <pt x="-1010" y="1303" on="1"/>
        <pt x="-976" y="1454" on="0"/>
        <pt x="-765" y="1622" on="0"/>
        <pt x="-618" y="1622" on="1"/>
        <pt x="-579" y="1622" on="0"/>
        <pt x="-518" y="1614" on="1"/>
        <pt x="-518" y="1692" on="1"/>
        <pt x="-399" y="1692" on="1"/>
        <pt x="-399" y="1573" on="1"/>
        <pt x="-339" y="1543" on="0"/>
        <pt x="-297" y="1501" on="1"/>
        <pt x="-297" y="1692" on="1"/>
        <pt x="-178" y="1692" on="1"/>
        <pt x="-178" y="1323" on="1"/>
        <pt x="-156" y="1268" on="0"/>
      </contour>
      <contour>
        <pt x="-621" y="1511" on="1"/>
        <pt x="-778" y="1511" on="0"/>
        <pt x="-823" y="1405" on="1"/>
        <pt x="-577" y="1401" on="0"/>
        <pt x="-315" y="1341" on="1"/>
        <pt x="-353" y="1419" on="0"/>
        <pt x="-515" y="1511" on="0"/>
      </contour>
    </TTGlyph>
    <TTGlyph name="uni0E38" xMin="-455" yMin="-520" xMax="-162" yMax="-92">
      <contour>
        <pt x="-330" y="-520" on="1"/>
        <pt x="-330" y="-340" on="1"/>
        <pt x="-384" y="-337" on="0"/>
        <pt x="-455" y="-277" on="0"/>
        <pt x="-455" y="-217" on="1"/>
        <pt x="-455" y="-157" on="0"/>
        <pt x="-377" y="-92" on="0"/>
        <pt x="-315" y="-92" on="1"/>
        <pt x="-162" y="-92" on="0"/>
        <pt x="-162" y="-260" on="1"/>
        <pt x="-162" y="-520" on="1"/>
      </contour>
      <contour>
        <pt x="-369" y="-217" on="1"/>
        <pt x="-369" y="-239" on="0"/>
        <pt x="-343" y="-262" on="0"/>
        <pt x="-322" y="-262" on="1"/>
        <pt x="-302" y="-262" on="0"/>
        <pt x="-276" y="-239" on="0"/>
        <pt x="-276" y="-217" on="1"/>
        <pt x="-276" y="-194" on="0"/>
        <pt x="-302" y="-170" on="0"/>
        <pt x="-322" y="-170" on="1"/>
        <pt x="-343" y="-170" on="0"/>
        <pt x="-369" y="-194" on="0"/>
      </contour>
    </TTGlyph>
    <TTGlyph name="uni0E39" xMin="-758" yMin="-524" xMax="-162" yMax="-92">
      <contour>
        <pt x="-633" y="-340" on="1"/>
        <pt x="-687" y="-337" on="0"/>
        <pt x="-758" y="-277" on="0"/>
        <pt x="-758" y="-217" on="1"/>
        <pt x="-758" y="-157" on="0"/>
        <pt x="-680" y="-92" on="0"/>
        <pt x="-618" y="-92" on="1"/>
        <pt x="-465" y="-92" on="0"/>
        <pt x="-465" y="-260" on="1"/>
        <pt x="-465" y="-373" on="1"/>
        <pt x="-330" y="-373" on="1"/>
        <pt x="-330" y="-106" on="1"/>
        <pt x="-162" y="-106" on="1"/>
        <pt x="-162" y="-524" on="1"/>
        <pt x="-633" y="-524" on="1"/>
      </contour>
      <contour>
        <pt x="-672" y="-217" on="1"/>
        <pt x="-672" y="-239" on="0"/>
        <pt x="-646" y="-262" on="0"/>
        <pt x="-625" y="-262" on="1"/>
        <pt x="-605" y="-262" on="0"/>
        <pt x="-580" y="-239" on="0"/>
        <pt x="-580" y="-217" on="1"/>
        <pt x="-580" y="-194" on="0"/>
        <pt x="-605" y="-170" on="0"/>
        <pt x="-625" y="-170" on="1"/>
        <pt x="-646" y="-170" on="0"/>
        <pt x="-672" y="-194" on="0"/>
      </contour>
    </TTGlyph>
    <TTGlyph name="uni0E3A" xMin="-406" yMin="-338" xMax="-176" yMax="-106">
      <contour>
        <pt x="-406" y="-221" on="1"/>
        <pt x="-406" y="-174" on="0"/>
        <pt x="-339" y="-106" on="0"/>
        <pt x="-291" y="-106" on="1"/>
        <pt x="-242" y="-106" on="0"/>
        <pt x="-176" y="-175" on="0"/>
        <pt x="-176" y="-221" on="1"/>
        <pt x="-176" y="-271" on="0"/>
        <pt x="-244" y="-338" on="0"/>
        <pt x="-291" y="-338" on="1"/>
        <pt x="-337" y="-338" on="0"/>
        <pt x="-406" y="-273" on="0"/>
      </contour>
    </TTGlyph>
    <TTGlyph name="uni0E3F" xMin="184" yMin="-168" xMax="1231" yMax="1599">
      <contour>
        <pt x="184" y="1462" on="1"/>
        <pt x="618" y="1462" on="1"/>
        <pt x="618" y="1599" on="1"/>
        <pt x="760" y="1599" on="1"/>
        <pt x="760" y="1458" on="1"/>
        <pt x="988" y="1441" on="0"/>
        <pt x="1194" y="1263" on="0"/>
        <pt x="1194" y="1092" on="1"/>
        <pt x="1194" y="961" on="0"/>
        <pt x="1071" y="793" on="0"/>
        <pt x="969" y="776" on="1"/>
        <pt x="969" y="766" on="1"/>
        <pt x="1108" y="735" on="0"/>
        <pt x="1231" y="565" on="0"/>
        <pt x="1231" y="424" on="1"/>
        <pt x="1231" y="230" on="0"/>
        <pt x="980" y="6" on="0"/>
        <pt x="760" y="0" on="1"/>
        <pt x="760" y="-168" on="1"/>
        <pt x="618" y="-168" on="1"/>
        <pt x="618" y="0" on="1"/>
        <pt x="184" y="0" on="1"/>
      </contour>
      <contour>
        <pt x="494" y="256" on="1"/>
        <pt x="618" y="256" on="1"/>
        <pt x="618" y="637" on="1"/>
        <pt x="494" y="637" on="1"/>
      </contour>
      <contour>
        <pt x="918" y="455" on="1"/>
        <pt x="918" y="538" on="0"/>
        <pt x="839" y="623" on="0"/>
        <pt x="760" y="633" on="1"/>
        <pt x="760" y="258" on="1"/>
        <pt x="840" y="269" on="0"/>
        <pt x="918" y="365" on="0"/>
      </contour>
      <contour>
        <pt x="494" y="883" on="1"/>
        <pt x="618" y="883" on="1"/>
        <pt x="618" y="1208" on="1"/>
        <pt x="494" y="1208" on="1"/>
      </contour>
      <contour>
        <pt x="885" y="1051" on="1"/>
        <pt x="885" y="1117" on="0"/>
        <pt x="826" y="1188" on="0"/>
        <pt x="760" y="1200" on="1"/>
        <pt x="760" y="889" on="1"/>
        <pt x="831" y="901" on="0"/>
        <pt x="885" y="983" on="0"/>
      </contour>
    </TTGlyph>
    <TTGlyph name="uni0E40" xMin="174" yMin="-18" xMax="645" yMax="1124">
      <contour>
        <pt x="645" y="178" on="1"/>
        <pt x="645" y="88" on="0"/>
        <pt x="527" y="-18" on="0"/>
        <pt x="432" y="-18" on="1"/>
        <pt x="174" y="-18" on="0"/>
        <pt x="174" y="260" on="1"/>
        <pt x="174" y="1124" on="1"/>
        <pt x="459" y="1124" on="1"/>
        <pt x="459" y="362" on="1"/>
        <pt x="548" y="357" on="0"/>
        <pt x="645" y="260" on="0"/>
      </contour>
      <contour>
        <pt x="526" y="172" on="1"/>
        <pt x="526" y="209" on="0"/>
        <pt x="479" y="254" on="0"/>
        <pt x="440" y="254" on="1"/>
        <pt x="405" y="254" on="0"/>
        <pt x="356" y="209" on="0"/>
        <pt x="356" y="172" on="1"/>
        <pt x="356" y="134" on="0"/>
        <pt x="405" y="88" on="0"/>
        <pt x="440" y="88" on="1"/>
        <pt x="479" y="88" on="0"/>
        <pt x="526" y="134" on="0"/>
      </contour>
    </TTGlyph>
    <TTGlyph name="uni0E41" xMin="174" yMin="-18" xMax="1227" yMax="1124">
      <component glyphName="uni0E40" x="0" y="0" flags="0x4"/>
      <component glyphName="uni0E40" x="582" y="0" flags="0x4"/>
    </TTGlyph>
    <TTGlyph name="uni0E42" xMin="25" yMin="-18" xMax="944" yMax="2044">
      <contour>
        <pt x="397" y="1241" on="1"/>
        <pt x="397" y="1335" on="0"/>
        <pt x="358" y="1424" on="0"/>
        <pt x="265" y="1464" on="0"/>
        <pt x="180" y="1464" on="1"/>
        <pt x="25" y="1464" on="1"/>
        <pt x="25" y="1669" on="1"/>
        <pt x="25" y="1852" on="0"/>
        <pt x="222" y="2044" on="0"/>
        <pt x="412" y="2044" on="1"/>
        <pt x="944" y="2044" on="1"/>
        <pt x="944" y="1831" on="1"/>
        <pt x="467" y="1831" on="1"/>
        <pt x="377" y="1831" on="0"/>
        <pt x="307" y="1758" on="0"/>
        <pt x="307" y="1677" on="1"/>
        <pt x="445" y="1677" on="0"/>
        <pt x="608" y="1591" on="0"/>
        <pt x="682" y="1414" on="0"/>
        <pt x="682" y="1247" on="1"/>
        <pt x="682" y="362" on="1"/>
        <pt x="771" y="357" on="0"/>
        <pt x="868" y="260" on="0"/>
        <pt x="868" y="178" on="1"/>
        <pt x="868" y="88" on="0"/>
        <pt x="750" y="-18" on="0"/>
        <pt x="655" y="-18" on="1"/>
        <pt x="397" y="-18" on="0"/>
        <pt x="397" y="260" on="1"/>
      </contour>
      <contour>
        <pt x="750" y="172" on="1"/>
        <pt x="750" y="209" on="0"/>
        <pt x="702" y="254" on="0"/>
        <pt x="664" y="254" on="1"/>
        <pt x="628" y="254" on="0"/>
        <pt x="580" y="209" on="0"/>
        <pt x="580" y="172" on="1"/>
        <pt x="580" y="134" on="0"/>
        <pt x="628" y="88" on="0"/>
        <pt x="664" y="88" on="1"/>
        <pt x="702" y="88" on="0"/>
        <pt x="750" y="134" on="0"/>
      </contour>
    </TTGlyph>
    <TTGlyph name="uni0E43" xMin="35" yMin="-18" xMax="946" yMax="2064">
      <contour>
        <pt x="741" y="362" on="1"/>
        <pt x="830" y="357" on="0"/>
        <pt x="928" y="260" on="0"/>
        <pt x="928" y="178" on="1"/>
        <pt x="928" y="88" on="0"/>
        <pt x="810" y="-18" on="0"/>
        <pt x="715" y="-18" on="1"/>
        <pt x="457" y="-18" on="0"/>
        <pt x="457" y="260" on="1"/>
        <pt x="457" y="1366" on="1"/>
        <pt x="457" y="1505" on="0"/>
        <pt x="550" y="1688" on="0"/>
        <pt x="659" y="1757" on="1"/>
        <pt x="642" y="1835" on="0"/>
        <pt x="521" y="1927" on="0"/>
        <pt x="426" y="1927" on="1"/>
        <pt x="329" y="1927" on="0"/>
        <pt x="198" y="1845" on="0"/>
        <pt x="178" y="1761" on="1"/>
        <pt x="217" y="1806" on="0"/>
        <pt x="281" y="1806" on="1"/>
        <pt x="358" y="1806" on="0"/>
        <pt x="449" y="1709" on="0"/>
        <pt x="449" y="1628" on="1"/>
        <pt x="449" y="1545" on="0"/>
        <pt x="343" y="1444" on="0"/>
        <pt x="256" y="1444" on="1"/>
        <pt x="151" y="1444" on="0"/>
        <pt x="35" y="1570" on="0"/>
        <pt x="35" y="1688" on="1"/>
        <pt x="35" y="1863" on="0"/>
        <pt x="268" y="2064" on="0"/>
        <pt x="473" y="2064" on="1"/>
        <pt x="681" y="2064" on="0"/>
        <pt x="929" y="1874" on="0"/>
        <pt x="946" y="1708" on="1"/>
        <pt x="855" y="1655" on="0"/>
        <pt x="776" y="1571" on="0"/>
        <pt x="741" y="1461" on="0"/>
        <pt x="741" y="1376" on="1"/>
      </contour>
      <contour>
        <pt x="809" y="172" on="1"/>
        <pt x="809" y="209" on="0"/>
        <pt x="761" y="254" on="0"/>
        <pt x="723" y="254" on="1"/>
        <pt x="688" y="254" on="0"/>
        <pt x="639" y="209" on="0"/>
        <pt x="639" y="172" on="1"/>
        <pt x="639" y="134" on="0"/>
        <pt x="688" y="88" on="0"/>
        <pt x="723" y="88" on="1"/>
        <pt x="761" y="88" on="0"/>
        <pt x="809" y="134" on="0"/>
      </contour>
      <contour>
        <pt x="328" y="1626" on="1"/>
        <pt x="328" y="1660" on="0"/>
        <pt x="288" y="1702" on="0"/>
        <pt x="254" y="1702" on="1"/>
        <pt x="220" y="1702" on="0"/>
        <pt x="182" y="1660" on="0"/>
        <pt x="182" y="1626" on="1"/>
        <pt x="182" y="1591" on="0"/>
        <pt x="220" y="1550" on="0"/>
        <pt x="254" y="1550" on="1"/>
        <pt x="288" y="1550" on="0"/>
        <pt x="328" y="1591" on="0"/>
      </contour>
    </TTGlyph>
    <TTGlyph name="uni0E44" xMin="35" yMin="-18" xMax="1001" yMax="2066">
      <contour>
        <pt x="530" y="1716" on="1"/>
        <pt x="530" y="1772" on="0"/>
        <pt x="525" y="1804" on="0"/>
        <pt x="516" y="1804" on="1"/>
        <pt x="506" y="1804" on="0"/>
        <pt x="480" y="1760" on="0"/>
        <pt x="332" y="1460" on="1"/>
        <pt x="141" y="1460" on="1"/>
        <pt x="35" y="2064" on="1"/>
        <pt x="248" y="2064" on="1"/>
        <pt x="293" y="1737" on="1"/>
        <pt x="372" y="1901" on="0"/>
        <pt x="425" y="1991" on="0"/>
        <pt x="486" y="2044" on="0"/>
        <pt x="562" y="2066" on="0"/>
        <pt x="598" y="2064" on="1"/>
        <pt x="815" y="2064" on="0"/>
        <pt x="815" y="1827" on="1"/>
        <pt x="815" y="362" on="1"/>
        <pt x="904" y="357" on="0"/>
        <pt x="1001" y="259" on="0"/>
        <pt x="1001" y="178" on="1"/>
        <pt x="1001" y="88" on="0"/>
        <pt x="883" y="-18" on="0"/>
        <pt x="788" y="-18" on="1"/>
        <pt x="530" y="-18" on="0"/>
        <pt x="530" y="260" on="1"/>
      </contour>
      <contour>
        <pt x="883" y="172" on="1"/>
        <pt x="883" y="209" on="0"/>
        <pt x="835" y="254" on="0"/>
        <pt x="797" y="254" on="1"/>
        <pt x="762" y="254" on="0"/>
        <pt x="713" y="209" on="0"/>
        <pt x="713" y="172" on="1"/>
        <pt x="713" y="134" on="0"/>
        <pt x="762" y="88" on="0"/>
        <pt x="797" y="88" on="1"/>
        <pt x="835" y="88" on="0"/>
        <pt x="883" y="134" on="0"/>
      </contour>
    </TTGlyph>
    <TTGlyph name="uni0E45" xMin="0" yMin="-520" xMax="911" yMax="1147">
      <contour>
        <pt x="911" y="-520" on="1"/>
        <pt x="627" y="-520" on="1"/>
        <pt x="627" y="672" on="1"/>
        <pt x="627" y="922" on="0"/>
        <pt x="412" y="922" on="1"/>
        <pt x="342" y="922" on="0"/>
        <pt x="191" y="865" on="0"/>
        <pt x="98" y="811" on="1"/>
        <pt x="0" y="1008" on="1"/>
        <pt x="213" y="1147" on="0"/>
        <pt x="471" y="1147" on="1"/>
        <pt x="689" y="1147" on="0"/>
        <pt x="911" y="921" on="0"/>
        <pt x="911" y="705" on="1"/>
      </contour>
    </TTGlyph>
    <TTGlyph name="uni0E46" xMin="27" yMin="-520" xMax="911" yMax="1147">
      <contour>
        <pt x="627" y="-520" on="1"/>
        <pt x="627" y="793" on="1"/>
        <pt x="627" y="849" on="0"/>
        <pt x="609" y="922" on="0"/>
        <pt x="576" y="968" on="0"/>
        <pt x="537" y="987" on="1"/>
        <pt x="414" y="879" on="1"/>
        <pt x="291" y="987" on="1"/>
        <pt x="185" y="970" on="0"/>
        <pt x="170" y="844" on="1"/>
        <pt x="211" y="889" on="0"/>
        <pt x="272" y="889" on="1"/>
        <pt x="349" y="889" on="0"/>
        <pt x="440" y="792" on="0"/>
        <pt x="440" y="711" on="1"/>
        <pt x="440" y="627" on="0"/>
        <pt x="334" y="526" on="0"/>
        <pt x="248" y="526" on="1"/>
        <pt x="145" y="526" on="0"/>
        <pt x="27" y="663" on="0"/>
        <pt x="27" y="782" on="1"/>
        <pt x="27" y="944" on="0"/>
        <pt x="177" y="1132" on="0"/>
        <pt x="317" y="1147" on="1"/>
        <pt x="416" y="1044" on="1"/>
        <pt x="530" y="1147" on="1"/>
        <pt x="727" y="1147" on="0"/>
        <pt x="911" y="952" on="0"/>
        <pt x="911" y="752" on="1"/>
        <pt x="911" y="-520" on="1"/>
      </contour>
      <contour>
        <pt x="319" y="709" on="1"/>
        <pt x="319" y="743" on="0"/>
        <pt x="280" y="784" on="0"/>
        <pt x="246" y="784" on="1"/>
        <pt x="212" y="784" on="0"/>
        <pt x="174" y="743" on="0"/>
        <pt x="174" y="709" on="1"/>
        <pt x="174" y="674" on="0"/>
        <pt x="212" y="633" on="0"/>
        <pt x="246" y="633" on="1"/>
        <pt x="280" y="633" on="0"/>
        <pt x="319" y="674" on="0"/>
      </contour>
    </TTGlyph>
    <TTGlyph name="uni0E47" xMin="-870" yMin="1210" xMax="-92" yMax="1714">
      <contour>
        <pt x="-229" y="1341" on="1"/>
        <pt x="-279" y="1341" on="0"/>
        <pt x="-332" y="1393" on="0"/>
        <pt x="-332" y="1434" on="1"/>
        <pt x="-332" y="1476" on="0"/>
        <pt x="-272" y="1530" on="0"/>
        <pt x="-225" y="1530" on="1"/>
        <pt x="-165" y="1530" on="0"/>
        <pt x="-102" y="1453" on="0"/>
        <pt x="-102" y="1391" on="1"/>
        <pt x="-102" y="1308" on="0"/>
        <pt x="-200" y="1210" on="0"/>
        <pt x="-283" y="1210" on="1"/>
        <pt x="-331" y="1210" on="0"/>
        <pt x="-406" y="1241" on="0"/>
        <pt x="-467" y="1281" on="0"/>
        <pt x="-517" y="1322" on="0"/>
        <pt x="-539" y="1333" on="1"/>
        <pt x="-583" y="1268" on="0"/>
        <pt x="-637" y="1210" on="1"/>
        <pt x="-747" y="1232" on="0"/>
        <pt x="-870" y="1357" on="0"/>
        <pt x="-870" y="1452" on="1"/>
        <pt x="-870" y="1558" on="0"/>
        <pt x="-741" y="1679" on="0"/>
        <pt x="-614" y="1679" on="1"/>
        <pt x="-328" y="1679" on="1"/>
        <pt x="-170" y="1679" on="0"/>
        <pt x="-92" y="1714" on="1"/>
        <pt x="-92" y="1589" on="1"/>
        <pt x="-160" y="1556" on="0"/>
        <pt x="-287" y="1556" on="1"/>
        <pt x="-602" y="1556" on="1"/>
        <pt x="-671" y="1556" on="0"/>
        <pt x="-729" y="1497" on="0"/>
        <pt x="-729" y="1454" on="1"/>
        <pt x="-729" y="1378" on="0"/>
        <pt x="-653" y="1354" on="1"/>
        <pt x="-611" y="1398" on="0"/>
        <pt x="-569" y="1477" on="1"/>
        <pt x="-530" y="1467" on="0"/>
        <pt x="-453" y="1416" on="0"/>
        <pt x="-380" y="1362" on="0"/>
        <pt x="-313" y="1321" on="0"/>
        <pt x="-285" y="1321" on="1"/>
        <pt x="-252" y="1321" on="0"/>
      </contour>
      <contour>
        <pt x="-264" y="1434" on="1"/>
        <pt x="-264" y="1397" on="0"/>
        <pt x="-225" y="1397" on="1"/>
        <pt x="-210" y="1397" on="0"/>
        <pt x="-188" y="1417" on="0"/>
        <pt x="-188" y="1434" on="1"/>
        <pt x="-188" y="1451" on="0"/>
        <pt x="-210" y="1473" on="0"/>
        <pt x="-225" y="1473" on="1"/>
        <pt x="-244" y="1473" on="0"/>
        <pt x="-264" y="1451" on="0"/>
      </contour>
    </TTGlyph>
    <TTGlyph name="uni0E48" xMin="-381" yMin="1210" xMax="-213" yMax="1593">
      <contour>
        <pt x="-381" y="1593" on="1"/>
        <pt x="-213" y="1593" on="1"/>
        <pt x="-213" y="1210" on="1"/>
        <pt x="-381" y="1210" on="1"/>
      </contour>
    </TTGlyph>
    <TTGlyph name="uni0E48.small" xMin="-381" yMin="1765" xMax="-213" yMax="2148">
      <contour>
        <pt x="-381" y="2148" on="1"/>
        <pt x="-213" y="2148" on="1"/>
        <pt x="-213" y="1765" on="1"/>
        <pt x="-381" y="1765" on="1"/>
      </contour>
    </TTGlyph>
    <TTGlyph name="uni0E49" xMin="-739" yMin="1221" xMax="-86" yMax="1671">
      <contour>
        <pt x="-424" y="1513" on="1"/>
        <pt x="-424" y="1395" on="0"/>
        <pt x="-502" y="1337" on="1"/>
        <pt x="-392" y="1343" on="0"/>
        <pt x="-284" y="1402" on="0"/>
        <pt x="-236" y="1531" on="0"/>
        <pt x="-236" y="1661" on="1"/>
        <pt x="-86" y="1661" on="1"/>
        <pt x="-86" y="1460" on="0"/>
        <pt x="-169" y="1296" on="0"/>
        <pt x="-364" y="1221" on="0"/>
        <pt x="-543" y="1221" on="1"/>
        <pt x="-664" y="1221" on="1"/>
        <pt x="-664" y="1321" on="1"/>
        <pt x="-567" y="1378" on="0"/>
        <pt x="-551" y="1434" on="1"/>
        <pt x="-576" y="1413" on="0"/>
        <pt x="-616" y="1413" on="1"/>
        <pt x="-672" y="1413" on="0"/>
        <pt x="-739" y="1482" on="0"/>
        <pt x="-739" y="1538" on="1"/>
        <pt x="-739" y="1597" on="0"/>
        <pt x="-657" y="1671" on="0"/>
        <pt x="-592" y="1671" on="1"/>
        <pt x="-515" y="1671" on="0"/>
        <pt x="-424" y="1584" on="0"/>
      </contour>
      <contour>
        <pt x="-649" y="1542" on="1"/>
        <pt x="-649" y="1520" on="0"/>
        <pt x="-624" y="1495" on="0"/>
        <pt x="-602" y="1495" on="1"/>
        <pt x="-582" y="1495" on="0"/>
        <pt x="-555" y="1520" on="0"/>
        <pt x="-555" y="1542" on="1"/>
        <pt x="-555" y="1564" on="0"/>
        <pt x="-580" y="1589" on="0"/>
        <pt x="-600" y="1589" on="1"/>
        <pt x="-620" y="1589" on="0"/>
        <pt x="-649" y="1564" on="0"/>
      </contour>
    </TTGlyph>
    <TTGlyph name="uni0E49.small" xMin="-739" yMin="1776" xMax="-86" yMax="2163">
      <contour>
        <pt x="-424" y="2035" on="1"/>
        <pt x="-424" y="1939" on="0"/>
        <pt x="-502" y="1892" on="1"/>
        <pt x="-392" y="1897" on="0"/>
        <pt x="-284" y="1947" on="0"/>
        <pt x="-236" y="2054" on="0"/>
        <pt x="-236" y="2163" on="1"/>
        <pt x="-86" y="2163" on="1"/>
        <pt x="-86" y="1986" on="0"/>
        <pt x="-169" y="1842" on="0"/>
        <pt x="-364" y="1776" on="0"/>
        <pt x="-543" y="1776" on="1"/>
        <pt x="-664" y="1776" on="1"/>
        <pt x="-664" y="1876" on="1"/>
        <pt x="-567" y="1910" on="0"/>
        <pt x="-551" y="1950" on="1"/>
        <pt x="-576" y="1932" on="0"/>
        <pt x="-616" y="1932" on="1"/>
        <pt x="-672" y="1932" on="0"/>
        <pt x="-739" y="1993" on="0"/>
        <pt x="-739" y="2044" on="1"/>
        <pt x="-739" y="2097" on="0"/>
        <pt x="-657" y="2163" on="0"/>
        <pt x="-592" y="2163" on="1"/>
        <pt x="-515" y="2163" on="0"/>
        <pt x="-424" y="2092" on="0"/>
      </contour>
      <contour>
        <pt x="-649" y="2047" on="1"/>
        <pt x="-649" y="2025" on="0"/>
        <pt x="-624" y="2000" on="0"/>
        <pt x="-602" y="2000" on="1"/>
        <pt x="-582" y="2000" on="0"/>
        <pt x="-555" y="2025" on="0"/>
        <pt x="-555" y="2047" on="1"/>
        <pt x="-555" y="2069" on="0"/>
        <pt x="-580" y="2094" on="0"/>
        <pt x="-600" y="2094" on="1"/>
        <pt x="-620" y="2094" on="0"/>
        <pt x="-649" y="2069" on="0"/>
      </contour>
    </TTGlyph>
    <TTGlyph name="uni0E4A" xMin="-909" yMin="1217" xMax="-86" yMax="1671">
      <contour>
        <pt x="-342" y="1446" on="1"/>
        <pt x="-342" y="1394" on="0"/>
        <pt x="-358" y="1346" on="1"/>
        <pt x="-236" y="1385" on="0"/>
        <pt x="-236" y="1661" on="1"/>
        <pt x="-86" y="1661" on="1"/>
        <pt x="-86" y="1486" on="0"/>
        <pt x="-167" y="1302" on="0"/>
        <pt x="-349" y="1221" on="0"/>
        <pt x="-524" y="1221" on="1"/>
        <pt x="-471" y="1331" on="0"/>
        <pt x="-471" y="1421" on="1"/>
        <pt x="-471" y="1509" on="0"/>
        <pt x="-526" y="1538" on="1"/>
        <pt x="-612" y="1460" on="1"/>
        <pt x="-711" y="1546" on="1"/>
        <pt x="-745" y="1535" on="0"/>
        <pt x="-782" y="1481" on="0"/>
        <pt x="-782" y="1446" on="1"/>
        <pt x="-753" y="1473" on="0"/>
        <pt x="-707" y="1473" on="1"/>
        <pt x="-651" y="1473" on="0"/>
        <pt x="-586" y="1403" on="0"/>
        <pt x="-586" y="1348" on="1"/>
        <pt x="-586" y="1289" on="0"/>
        <pt x="-664" y="1217" on="0"/>
        <pt x="-723" y="1217" on="1"/>
        <pt x="-809" y="1217" on="0"/>
        <pt x="-909" y="1327" on="0"/>
        <pt x="-909" y="1421" on="1"/>
        <pt x="-909" y="1520" on="0"/>
        <pt x="-810" y="1651" on="0"/>
        <pt x="-713" y="1671" on="1"/>
        <pt x="-612" y="1579" on="1"/>
        <pt x="-512" y="1671" on="1"/>
        <pt x="-430" y="1653" on="0"/>
        <pt x="-342" y="1534" on="0"/>
      </contour>
      <contour>
        <pt x="-676" y="1346" on="1"/>
        <pt x="-676" y="1367" on="0"/>
        <pt x="-703" y="1391" on="0"/>
        <pt x="-723" y="1391" on="1"/>
        <pt x="-742" y="1391" on="0"/>
        <pt x="-770" y="1367" on="0"/>
        <pt x="-770" y="1346" on="1"/>
        <pt x="-770" y="1323" on="0"/>
        <pt x="-743" y="1298" on="0"/>
        <pt x="-723" y="1298" on="1"/>
        <pt x="-703" y="1298" on="0"/>
        <pt x="-676" y="1323" on="0"/>
      </contour>
    </TTGlyph>
    <TTGlyph name="uni0E4A.small" xMin="-909" yMin="1762" xMax="-86" yMax="2163">
      <contour>
        <pt x="-342" y="1982" on="1"/>
        <pt x="-342" y="1940" on="0"/>
        <pt x="-358" y="1901" on="1"/>
        <pt x="-236" y="1933" on="0"/>
        <pt x="-236" y="2163" on="1"/>
        <pt x="-86" y="2163" on="1"/>
        <pt x="-86" y="2007" on="0"/>
        <pt x="-167" y="1846" on="0"/>
        <pt x="-349" y="1776" on="0"/>
        <pt x="-524" y="1776" on="1"/>
        <pt x="-471" y="1877" on="0"/>
        <pt x="-471" y="1959" on="1"/>
        <pt x="-471" y="2039" on="0"/>
        <pt x="-526" y="2066" on="1"/>
        <pt x="-612" y="1995" on="1"/>
        <pt x="-711" y="2074" on="1"/>
        <pt x="-745" y="2065" on="0"/>
        <pt x="-783" y="2009" on="0"/>
        <pt x="-783" y="1980" on="1"/>
        <pt x="-754" y="2003" on="0"/>
        <pt x="-708" y="2003" on="1"/>
        <pt x="-651" y="2003" on="0"/>
        <pt x="-586" y="1944" on="0"/>
        <pt x="-586" y="1890" on="1"/>
        <pt x="-586" y="1833" on="0"/>
        <pt x="-664" y="1762" on="0"/>
        <pt x="-723" y="1762" on="1"/>
        <pt x="-809" y="1762" on="0"/>
        <pt x="-909" y="1868" on="0"/>
        <pt x="-909" y="1958" on="1"/>
        <pt x="-909" y="2044" on="0"/>
        <pt x="-810" y="2148" on="0"/>
        <pt x="-713" y="2163" on="1"/>
        <pt x="-612" y="2078" on="1"/>
        <pt x="-512" y="2163" on="1"/>
        <pt x="-430" y="2148" on="0"/>
        <pt x="-342" y="2052" on="0"/>
      </contour>
      <contour>
        <pt x="-676" y="1888" on="1"/>
        <pt x="-676" y="1908" on="0"/>
        <pt x="-703" y="1931" on="0"/>
        <pt x="-723" y="1931" on="1"/>
        <pt x="-742" y="1931" on="0"/>
        <pt x="-770" y="1908" on="0"/>
        <pt x="-770" y="1888" on="1"/>
        <pt x="-770" y="1867" on="0"/>
        <pt x="-743" y="1843" on="0"/>
        <pt x="-723" y="1843" on="1"/>
        <pt x="-703" y="1843" on="0"/>
        <pt x="-676" y="1867" on="0"/>
      </contour>
    </TTGlyph>
    <TTGlyph name="uni0E4B" xMin="-504" yMin="1217" xMax="-92" yMax="1608">
      <contour>
        <pt x="-504" y="1348" on="1"/>
        <pt x="-504" y="1477" on="1"/>
        <pt x="-362" y="1477" on="1"/>
        <pt x="-362" y="1608" on="1"/>
        <pt x="-233" y="1608" on="1"/>
        <pt x="-233" y="1477" on="1"/>
        <pt x="-92" y="1477" on="1"/>
        <pt x="-92" y="1348" on="1"/>
        <pt x="-233" y="1348" on="1"/>
        <pt x="-233" y="1217" on="1"/>
        <pt x="-362" y="1217" on="1"/>
        <pt x="-362" y="1348" on="1"/>
      </contour>
    </TTGlyph>
    <TTGlyph name="uni0E4B.small" xMin="-504" yMin="1755" xMax="-92" yMax="2146">
      <contour>
        <pt x="-504" y="1886" on="1"/>
        <pt x="-504" y="2015" on="1"/>
        <pt x="-362" y="2015" on="1"/>
        <pt x="-362" y="2146" on="1"/>
        <pt x="-233" y="2146" on="1"/>
        <pt x="-233" y="2015" on="1"/>
        <pt x="-92" y="2015" on="1"/>
        <pt x="-92" y="1886" on="1"/>
        <pt x="-233" y="1886" on="1"/>
        <pt x="-233" y="1755" on="1"/>
        <pt x="-362" y="1755" on="1"/>
        <pt x="-362" y="1886" on="1"/>
      </contour>
    </TTGlyph>
    <TTGlyph name="uni0E4C" xMin="-842" yMin="1214" xMax="-16" yMax="1745">
      <contour>
        <pt x="-453" y="1384" on="1"/>
        <pt x="-453" y="1310" on="0"/>
        <pt x="-560" y="1214" on="0"/>
        <pt x="-645" y="1214" on="1"/>
        <pt x="-735" y="1214" on="0"/>
        <pt x="-842" y="1311" on="0"/>
        <pt x="-842" y="1395" on="1"/>
        <pt x="-842" y="1495" on="0"/>
        <pt x="-702" y="1596" on="0"/>
        <pt x="-551" y="1612" on="1"/>
        <pt x="-411" y="1625" on="0"/>
        <pt x="-260" y="1656" on="0"/>
        <pt x="-187" y="1702" on="0"/>
        <pt x="-178" y="1745" on="1"/>
        <pt x="-16" y="1745" on="1"/>
        <pt x="-33" y="1630" on="0"/>
        <pt x="-165" y="1527" on="0"/>
        <pt x="-311" y="1505" on="1"/>
        <pt x="-485" y="1483" on="1"/>
        <pt x="-453" y="1445" on="0"/>
      </contour>
      <contour>
        <pt x="-727" y="1395" on="1"/>
        <pt x="-727" y="1356" on="0"/>
        <pt x="-684" y="1313" on="0"/>
        <pt x="-647" y="1313" on="1"/>
        <pt x="-613" y="1313" on="0"/>
        <pt x="-567" y="1356" on="0"/>
        <pt x="-567" y="1397" on="1"/>
        <pt x="-567" y="1432" on="0"/>
        <pt x="-613" y="1477" on="0"/>
        <pt x="-645" y="1477" on="1"/>
        <pt x="-683" y="1477" on="0"/>
        <pt x="-727" y="1432" on="0"/>
      </contour>
    </TTGlyph>
    <TTGlyph name="uni0E4C.small" xMin="-842" yMin="1755" xMax="-16" yMax="2163">
      <contour>
        <pt x="-453" y="1914" on="1"/>
        <pt x="-453" y="1845" on="0"/>
        <pt x="-560" y="1755" on="0"/>
        <pt x="-645" y="1755" on="1"/>
        <pt x="-734" y="1755" on="0"/>
        <pt x="-842" y="1848" on="0"/>
        <pt x="-842" y="1928" on="1"/>
        <pt x="-842" y="2025" on="0"/>
        <pt x="-702" y="2116" on="0"/>
        <pt x="-556" y="2121" on="1"/>
        <pt x="-404" y="2127" on="0"/>
        <pt x="-258" y="2134" on="0"/>
        <pt x="-187" y="2149" on="0"/>
        <pt x="-178" y="2163" on="1"/>
        <pt x="-16" y="2163" on="1"/>
        <pt x="-33" y="2091" on="0"/>
        <pt x="-165" y="2025" on="0"/>
        <pt x="-312" y="2014" on="1"/>
        <pt x="-488" y="2003" on="1"/>
        <pt x="-456" y="1979" on="0"/>
      </contour>
      <contour>
        <pt x="-727" y="1935" on="1"/>
        <pt x="-727" y="1897" on="0"/>
        <pt x="-684" y="1853" on="0"/>
        <pt x="-647" y="1853" on="1"/>
        <pt x="-613" y="1853" on="0"/>
        <pt x="-567" y="1897" on="0"/>
        <pt x="-567" y="1937" on="1"/>
        <pt x="-567" y="1973" on="0"/>
        <pt x="-613" y="2017" on="0"/>
        <pt x="-645" y="2017" on="1"/>
        <pt x="-683" y="2017" on="0"/>
        <pt x="-727" y="1973" on="0"/>
      </contour>
    </TTGlyph>
    <TTGlyph name="uni0E4D" xMin="-502" yMin="1223" xMax="-113" yMax="1583">
      <contour>
        <pt x="-502" y="1403" on="1"/>
        <pt x="-502" y="1486" on="0"/>
        <pt x="-395" y="1583" on="0"/>
        <pt x="-309" y="1583" on="1"/>
        <pt x="-219" y="1583" on="0"/>
        <pt x="-113" y="1488" on="0"/>
        <pt x="-113" y="1403" on="1"/>
        <pt x="-113" y="1319" on="0"/>
        <pt x="-219" y="1223" on="0"/>
        <pt x="-309" y="1223" on="1"/>
        <pt x="-397" y="1223" on="0"/>
        <pt x="-502" y="1319" on="0"/>
      </contour>
      <contour>
        <pt x="-387" y="1403" on="1"/>
        <pt x="-387" y="1365" on="0"/>
        <pt x="-342" y="1323" on="0"/>
        <pt x="-307" y="1323" on="1"/>
        <pt x="-273" y="1323" on="0"/>
        <pt x="-227" y="1365" on="0"/>
        <pt x="-227" y="1403" on="1"/>
        <pt x="-227" y="1441" on="0"/>
        <pt x="-273" y="1483" on="0"/>
        <pt x="-307" y="1483" on="1"/>
        <pt x="-342" y="1483" on="0"/>
        <pt x="-387" y="1441" on="0"/>
      </contour>
    </TTGlyph>
    <TTGlyph name="uni0E4E" xMin="-496" yMin="1219" xMax="-78" yMax="1702">
      <contour>
        <pt x="-195" y="1417" on="1"/>
        <pt x="-304" y="1417" on="0"/>
        <pt x="-371" y="1391" on="0"/>
        <pt x="-371" y="1362" on="1"/>
        <pt x="-371" y="1340" on="0"/>
        <pt x="-330" y="1319" on="0"/>
        <pt x="-281" y="1319" on="1"/>
        <pt x="-217" y="1319" on="0"/>
        <pt x="-127" y="1350" on="1"/>
        <pt x="-127" y="1249" on="1"/>
        <pt x="-149" y="1238" on="0"/>
        <pt x="-235" y="1219" on="0"/>
        <pt x="-283" y="1219" on="1"/>
        <pt x="-496" y="1219" on="0"/>
        <pt x="-496" y="1354" on="1"/>
        <pt x="-496" y="1405" on="0"/>
        <pt x="-422" y="1474" on="0"/>
        <pt x="-356" y="1479" on="1"/>
        <pt x="-387" y="1493" on="0"/>
        <pt x="-428" y="1535" on="0"/>
        <pt x="-428" y="1573" on="1"/>
        <pt x="-428" y="1631" on="0"/>
        <pt x="-328" y="1702" on="0"/>
        <pt x="-248" y="1702" on="1"/>
        <pt x="-142" y="1702" on="0"/>
        <pt x="-78" y="1669" on="1"/>
        <pt x="-115" y="1575" on="1"/>
        <pt x="-178" y="1602" on="0"/>
        <pt x="-227" y="1602" on="1"/>
        <pt x="-311" y="1602" on="0"/>
        <pt x="-311" y="1556" on="1"/>
        <pt x="-311" y="1530" on="0"/>
        <pt x="-253" y="1513" on="0"/>
        <pt x="-195" y="1513" on="1"/>
      </contour>
    </TTGlyph>
    <TTGlyph name="uni0E4F" xMin="76" yMin="-20" xMax="1251" yMax="1149">
      <contour>
        <pt x="76" y="563" on="1"/>
        <pt x="76" y="721" on="0"/>
        <pt x="233" y="993" on="0"/>
        <pt x="507" y="1149" on="0"/>
        <pt x="664" y="1149" on="1"/>
        <pt x="820" y="1149" on="0"/>
        <pt x="1094" y="992" on="0"/>
        <pt x="1251" y="721" on="0"/>
        <pt x="1251" y="563" on="1"/>
        <pt x="1251" y="406" on="0"/>
        <pt x="1094" y="137" on="0"/>
        <pt x="820" y="-20" on="0"/>
        <pt x="664" y="-20" on="1"/>
        <pt x="504" y="-20" on="0"/>
        <pt x="232" y="139" on="0"/>
        <pt x="76" y="406" on="0"/>
      </contour>
      <contour>
        <pt x="272" y="563" on="1"/>
        <pt x="272" y="392" on="0"/>
        <pt x="494" y="164" on="0"/>
        <pt x="664" y="164" on="1"/>
        <pt x="773" y="164" on="0"/>
        <pt x="953" y="266" on="0"/>
        <pt x="1055" y="452" on="0"/>
        <pt x="1055" y="563" on="1"/>
        <pt x="1055" y="675" on="0"/>
        <pt x="953" y="862" on="0"/>
        <pt x="773" y="965" on="0"/>
        <pt x="664" y="965" on="1"/>
        <pt x="496" y="965" on="0"/>
        <pt x="272" y="736" on="0"/>
      </contour>
      <contour>
        <pt x="461" y="563" on="1"/>
        <pt x="461" y="647" on="0"/>
        <pt x="579" y="768" on="0"/>
        <pt x="664" y="768" on="1"/>
        <pt x="748" y="768" on="0"/>
        <pt x="866" y="648" on="0"/>
        <pt x="866" y="563" on="1"/>
        <pt x="866" y="481" on="0"/>
        <pt x="747" y="362" on="0"/>
        <pt x="664" y="362" on="1"/>
        <pt x="580" y="362" on="0"/>
        <pt x="461" y="481" on="0"/>
      </contour>
    </TTGlyph>
    <TTGlyph name="uni0E50" xMin="115" yMin="-20" xMax="1253" yMax="930">
      <contour>
        <pt x="682" y="193" on="1"/>
        <pt x="819" y="193" on="0"/>
        <pt x="985" y="336" on="0"/>
        <pt x="985" y="457" on="1"/>
        <pt x="985" y="578" on="0"/>
        <pt x="820" y="719" on="0"/>
        <pt x="682" y="719" on="1"/>
        <pt x="546" y="719" on="0"/>
        <pt x="383" y="577" on="0"/>
        <pt x="383" y="457" on="1"/>
        <pt x="383" y="336" on="0"/>
        <pt x="548" y="193" on="0"/>
      </contour>
      <contour>
        <pt x="682" y="-20" on="1"/>
        <pt x="422" y="-20" on="0"/>
        <pt x="115" y="235" on="0"/>
        <pt x="115" y="455" on="1"/>
        <pt x="115" y="677" on="0"/>
        <pt x="420" y="930" on="0"/>
        <pt x="682" y="930" on="1"/>
        <pt x="946" y="930" on="0"/>
        <pt x="1253" y="676" on="0"/>
        <pt x="1253" y="455" on="1"/>
        <pt x="1253" y="236" on="0"/>
        <pt x="945" y="-20" on="0"/>
      </contour>
    </TTGlyph>
    <TTGlyph name="uni0E51" xMin="115" yMin="-25" xMax="1311" yMax="930">
      <contour>
        <pt x="608" y="420" on="1"/>
        <pt x="608" y="386" on="0"/>
        <pt x="647" y="350" on="0"/>
        <pt x="682" y="350" on="1"/>
        <pt x="716" y="350" on="0"/>
        <pt x="756" y="386" on="0"/>
        <pt x="756" y="420" on="1"/>
        <pt x="756" y="455" on="0"/>
        <pt x="716" y="494" on="0"/>
        <pt x="682" y="494" on="1"/>
        <pt x="647" y="494" on="0"/>
        <pt x="608" y="455" on="0"/>
      </contour>
      <contour>
        <pt x="1311" y="381" on="1"/>
        <pt x="1311" y="147" on="0"/>
        <pt x="1163" y="-20" on="1"/>
        <pt x="961" y="98" on="1"/>
        <pt x="1010" y="175" on="0"/>
        <pt x="1042" y="287" on="0"/>
        <pt x="1042" y="375" on="1"/>
        <pt x="1042" y="480" on="0"/>
        <pt x="951" y="636" on="0"/>
        <pt x="794" y="719" on="0"/>
        <pt x="694" y="719" on="1"/>
        <pt x="542" y="719" on="0"/>
        <pt x="360" y="553" on="0"/>
        <pt x="360" y="414" on="1"/>
        <pt x="360" y="287" on="0"/>
        <pt x="496" y="139" on="0"/>
        <pt x="606" y="139" on="1"/>
        <pt x="761" y="139" on="0"/>
        <pt x="774" y="295" on="1"/>
        <pt x="734" y="250" on="0"/>
        <pt x="659" y="250" on="1"/>
        <pt x="579" y="250" on="0"/>
        <pt x="492" y="338" on="0"/>
        <pt x="492" y="420" on="1"/>
        <pt x="492" y="500" on="0"/>
        <pt x="602" y="596" on="0"/>
        <pt x="690" y="596" on="1"/>
        <pt x="803" y="596" on="0"/>
        <pt x="932" y="449" on="0"/>
        <pt x="932" y="317" on="1"/>
        <pt x="932" y="159" on="0"/>
        <pt x="734" y="-25" on="0"/>
        <pt x="565" y="-25" on="1"/>
        <pt x="357" y="-25" on="0"/>
        <pt x="115" y="211" on="0"/>
        <pt x="115" y="408" on="1"/>
        <pt x="115" y="647" on="0"/>
        <pt x="442" y="930" on="0"/>
        <pt x="715" y="930" on="1"/>
        <pt x="989" y="930" on="0"/>
        <pt x="1311" y="633" on="0"/>
      </contour>
    </TTGlyph>
    <TTGlyph name="uni0E52" xMin="154" yMin="0" xMax="1358" yMax="1167">
      <contour>
        <pt x="915" y="229" on="1"/>
        <pt x="1001" y="229" on="0"/>
        <pt x="1073" y="308" on="0"/>
        <pt x="1073" y="403" on="1"/>
        <pt x="1073" y="582" on="1"/>
        <pt x="1073" y="662" on="0"/>
        <pt x="1046" y="746" on="0"/>
        <pt x="1004" y="772" on="1"/>
        <pt x="893" y="668" on="1"/>
        <pt x="784" y="776" on="1"/>
        <pt x="673" y="758" on="0"/>
        <pt x="664" y="633" on="1"/>
        <pt x="701" y="678" on="0"/>
        <pt x="766" y="678" on="1"/>
        <pt x="843" y="678" on="0"/>
        <pt x="934" y="581" on="0"/>
        <pt x="934" y="500" on="1"/>
        <pt x="934" y="416" on="0"/>
        <pt x="828" y="315" on="0"/>
        <pt x="741" y="315" on="1"/>
        <pt x="638" y="315" on="0"/>
        <pt x="520" y="452" on="0"/>
        <pt x="520" y="571" on="1"/>
        <pt x="520" y="732" on="0"/>
        <pt x="670" y="917" on="0"/>
        <pt x="809" y="932" on="1"/>
        <pt x="901" y="829" on="1"/>
        <pt x="1008" y="932" on="1"/>
        <pt x="1190" y="932" on="0"/>
        <pt x="1358" y="751" on="0"/>
        <pt x="1358" y="567" on="1"/>
        <pt x="1358" y="365" on="1"/>
        <pt x="1358" y="0" on="0"/>
        <pt x="991" y="0" on="1"/>
        <pt x="520" y="0" on="1"/>
        <pt x="154" y="0" on="0"/>
        <pt x="154" y="365" on="1"/>
        <pt x="154" y="1167" on="1"/>
        <pt x="438" y="1167" on="1"/>
        <pt x="438" y="403" on="1"/>
        <pt x="438" y="308" on="0"/>
        <pt x="510" y="229" on="0"/>
        <pt x="596" y="229" on="1"/>
      </contour>
      <contour>
        <pt x="813" y="498" on="1"/>
        <pt x="813" y="532" on="0"/>
        <pt x="773" y="573" on="0"/>
        <pt x="739" y="573" on="1"/>
        <pt x="705" y="573" on="0"/>
        <pt x="668" y="532" on="0"/>
        <pt x="668" y="498" on="1"/>
        <pt x="668" y="463" on="0"/>
        <pt x="705" y="422" on="0"/>
        <pt x="739" y="422" on="1"/>
        <pt x="773" y="422" on="0"/>
        <pt x="813" y="463" on="0"/>
      </contour>
    </TTGlyph>
    <TTGlyph name="uni0E53" xMin="115" yMin="-25" xMax="1360" yMax="930">
      <contour>
        <pt x="686" y="158" on="1"/>
        <pt x="686" y="192" on="0"/>
        <pt x="647" y="233" on="0"/>
        <pt x="612" y="233" on="1"/>
        <pt x="580" y="233" on="0"/>
        <pt x="541" y="192" on="0"/>
        <pt x="541" y="158" on="1"/>
        <pt x="541" y="123" on="0"/>
        <pt x="580" y="82" on="0"/>
        <pt x="612" y="82" on="1"/>
        <pt x="647" y="82" on="0"/>
        <pt x="686" y="123" on="0"/>
      </contour>
      <contour>
        <pt x="1360" y="471" on="1"/>
        <pt x="1360" y="334" on="0"/>
        <pt x="1267" y="81" on="0"/>
        <pt x="1178" y="-20" on="1"/>
        <pt x="979" y="123" on="1"/>
        <pt x="1025" y="187" on="0"/>
        <pt x="1087" y="381" on="0"/>
        <pt x="1087" y="477" on="1"/>
        <pt x="1087" y="605" on="0"/>
        <pt x="1035" y="719" on="0"/>
        <pt x="981" y="719" on="1"/>
        <pt x="870" y="719" on="0"/>
        <pt x="870" y="459" on="1"/>
        <pt x="870" y="403" on="1"/>
        <pt x="602" y="403" on="1"/>
        <pt x="602" y="459" on="1"/>
        <pt x="602" y="596" on="0"/>
        <pt x="550" y="719" on="0"/>
        <pt x="496" y="719" on="1"/>
        <pt x="387" y="719" on="0"/>
        <pt x="387" y="477" on="1"/>
        <pt x="387" y="385" on="0"/>
        <pt x="412" y="262" on="0"/>
        <pt x="438" y="211" on="1"/>
        <pt x="481" y="338" on="0"/>
        <pt x="627" y="338" on="1"/>
        <pt x="708" y="338" on="0"/>
        <pt x="807" y="245" on="0"/>
        <pt x="807" y="160" on="1"/>
        <pt x="807" y="72" on="0"/>
        <pt x="692" y="-25" on="0"/>
        <pt x="590" y="-25" on="1"/>
        <pt x="449" y="-25" on="0"/>
        <pt x="232" y="93" on="0"/>
        <pt x="115" y="311" on="0"/>
        <pt x="115" y="461" on="1"/>
        <pt x="115" y="685" on="0"/>
        <pt x="295" y="930" on="0"/>
        <pt x="461" y="930" on="1"/>
        <pt x="683" y="930" on="0"/>
        <pt x="737" y="700" on="1"/>
        <pt x="763" y="812" on="0"/>
        <pt x="907" y="930" on="0"/>
        <pt x="1014" y="930" on="1"/>
        <pt x="1185" y="930" on="0"/>
        <pt x="1360" y="696" on="0"/>
      </contour>
    </TTGlyph>
    <TTGlyph name="uni0E54" xMin="143" yMin="0" xMax="1327" yMax="1167">
      <contour>
        <pt x="1315" y="0" on="1"/>
        <pt x="631" y="0" on="1"/>
        <pt x="395" y="0" on="0"/>
        <pt x="143" y="217" on="0"/>
        <pt x="143" y="418" on="1"/>
        <pt x="143" y="622" on="0"/>
        <pt x="413" y="884" on="0"/>
        <pt x="692" y="954" on="1"/>
        <pt x="823" y="987" on="0"/>
        <pt x="974" y="1048" on="0"/>
        <pt x="1044" y="1117" on="0"/>
        <pt x="1044" y="1167" on="1"/>
        <pt x="1327" y="1167" on="1"/>
        <pt x="1327" y="1004" on="0"/>
        <pt x="1101" y="810" on="0"/>
        <pt x="819" y="735" on="1"/>
        <pt x="589" y="673" on="0"/>
        <pt x="418" y="533" on="0"/>
        <pt x="418" y="420" on="1"/>
        <pt x="418" y="317" on="0"/>
        <pt x="539" y="229" on="0"/>
        <pt x="678" y="229" on="1"/>
        <pt x="780" y="229" on="1"/>
        <pt x="709" y="309" on="0"/>
        <pt x="709" y="422" on="1"/>
        <pt x="709" y="528" on="0"/>
        <pt x="836" y="657" on="0"/>
        <pt x="938" y="657" on="1"/>
        <pt x="1026" y="657" on="0"/>
        <pt x="1130" y="560" on="0"/>
        <pt x="1130" y="477" on="1"/>
        <pt x="1130" y="395" on="0"/>
        <pt x="1035" y="301" on="0"/>
        <pt x="956" y="301" on="1"/>
        <pt x="910" y="301" on="0"/>
        <pt x="883" y="317" on="1"/>
        <pt x="933" y="253" on="0"/>
        <pt x="1179" y="169" on="0"/>
        <pt x="1315" y="164" on="1"/>
      </contour>
      <contour>
        <pt x="1010" y="477" on="1"/>
        <pt x="1010" y="512" on="0"/>
        <pt x="969" y="551" on="0"/>
        <pt x="934" y="551" on="1"/>
        <pt x="902" y="551" on="0"/>
        <pt x="862" y="512" on="0"/>
        <pt x="862" y="477" on="1"/>
        <pt x="862" y="443" on="0"/>
        <pt x="902" y="408" on="0"/>
        <pt x="934" y="408" on="1"/>
        <pt x="969" y="408" on="0"/>
        <pt x="1010" y="443" on="0"/>
      </contour>
    </TTGlyph>
    <TTGlyph name="uni0E55" xMin="143" yMin="0" xMax="1327" yMax="1194">
      <contour>
        <pt x="1315" y="0" on="1"/>
        <pt x="631" y="0" on="1"/>
        <pt x="395" y="0" on="0"/>
        <pt x="143" y="217" on="0"/>
        <pt x="143" y="418" on="1"/>
        <pt x="143" y="571" on="0"/>
        <pt x="290" y="790" on="0"/>
        <pt x="457" y="872" on="1"/>
        <pt x="399" y="920" on="0"/>
        <pt x="399" y="1008" on="1"/>
        <pt x="399" y="1090" on="0"/>
        <pt x="510" y="1194" on="0"/>
        <pt x="596" y="1194" on="1"/>
        <pt x="685" y="1194" on="0"/>
        <pt x="797" y="1093" on="0"/>
        <pt x="797" y="1008" on="1"/>
        <pt x="797" y="994" on="1"/>
        <pt x="795" y="981" on="1"/>
        <pt x="929" y="1023" on="0"/>
        <pt x="1044" y="1105" on="0"/>
        <pt x="1044" y="1167" on="1"/>
        <pt x="1327" y="1167" on="1"/>
        <pt x="1327" y="1004" on="0"/>
        <pt x="1101" y="810" on="0"/>
        <pt x="819" y="735" on="1"/>
        <pt x="589" y="673" on="0"/>
        <pt x="418" y="533" on="0"/>
        <pt x="418" y="420" on="1"/>
        <pt x="418" y="317" on="0"/>
        <pt x="539" y="229" on="0"/>
        <pt x="678" y="229" on="1"/>
        <pt x="780" y="229" on="1"/>
        <pt x="709" y="309" on="0"/>
        <pt x="709" y="422" on="1"/>
        <pt x="709" y="528" on="0"/>
        <pt x="836" y="657" on="0"/>
        <pt x="938" y="657" on="1"/>
        <pt x="1026" y="657" on="0"/>
        <pt x="1130" y="560" on="0"/>
        <pt x="1130" y="477" on="1"/>
        <pt x="1130" y="395" on="0"/>
        <pt x="1035" y="301" on="0"/>
        <pt x="956" y="301" on="1"/>
        <pt x="910" y="301" on="0"/>
        <pt x="883" y="317" on="1"/>
        <pt x="933" y="253" on="0"/>
        <pt x="1179" y="169" on="0"/>
        <pt x="1315" y="164" on="1"/>
      </contour>
      <contour>
        <pt x="518" y="1008" on="1"/>
        <pt x="518" y="969" on="0"/>
        <pt x="563" y="928" on="0"/>
        <pt x="598" y="928" on="1"/>
        <pt x="632" y="928" on="0"/>
        <pt x="678" y="969" on="0"/>
        <pt x="678" y="1008" on="1"/>
        <pt x="678" y="1046" on="0"/>
        <pt x="632" y="1087" on="0"/>
        <pt x="598" y="1087" on="1"/>
        <pt x="563" y="1087" on="0"/>
        <pt x="518" y="1046" on="0"/>
      </contour>
      <contour>
        <pt x="1010" y="477" on="1"/>
        <pt x="1010" y="512" on="0"/>
        <pt x="969" y="551" on="0"/>
        <pt x="934" y="551" on="1"/>
        <pt x="902" y="551" on="0"/>
        <pt x="862" y="512" on="0"/>
        <pt x="862" y="477" on="1"/>
        <pt x="862" y="443" on="0"/>
        <pt x="902" y="408" on="0"/>
        <pt x="934" y="408" on="1"/>
        <pt x="969" y="408" on="0"/>
        <pt x="1010" y="443" on="0"/>
      </contour>
    </TTGlyph>
    <TTGlyph name="uni0E56" xMin="41" yMin="-25" xMax="1190" yMax="1165">
      <contour>
        <pt x="602" y="420" on="1"/>
        <pt x="602" y="455" on="0"/>
        <pt x="564" y="494" on="0"/>
        <pt x="530" y="494" on="1"/>
        <pt x="496" y="494" on="0"/>
        <pt x="457" y="455" on="0"/>
        <pt x="457" y="420" on="1"/>
        <pt x="457" y="386" on="0"/>
        <pt x="496" y="350" on="0"/>
        <pt x="530" y="350" on="1"/>
        <pt x="564" y="350" on="0"/>
        <pt x="602" y="386" on="0"/>
      </contour>
      <contour>
        <pt x="340" y="1165" on="1"/>
        <pt x="378" y="1058" on="0"/>
        <pt x="416" y="885" on="1"/>
        <pt x="549" y="930" on="0"/>
        <pt x="682" y="930" on="1"/>
        <pt x="909" y="930" on="0"/>
        <pt x="1190" y="668" on="0"/>
        <pt x="1190" y="446" on="1"/>
        <pt x="1190" y="226" on="0"/>
        <pt x="937" y="-25" on="0"/>
        <pt x="717" y="-25" on="1"/>
        <pt x="513" y="-25" on="0"/>
        <pt x="279" y="164" on="0"/>
        <pt x="279" y="326" on="1"/>
        <pt x="279" y="447" on="0"/>
        <pt x="415" y="596" on="0"/>
        <pt x="530" y="596" on="1"/>
        <pt x="613" y="596" on="0"/>
        <pt x="719" y="498" on="0"/>
        <pt x="719" y="420" on="1"/>
        <pt x="719" y="343" on="0"/>
        <pt x="628" y="250" on="0"/>
        <pt x="551" y="250" on="1"/>
        <pt x="479" y="250" on="0"/>
        <pt x="438" y="295" on="1"/>
        <pt x="454" y="224" on="0"/>
        <pt x="580" y="139" on="0"/>
        <pt x="676" y="139" on="1"/>
        <pt x="800" y="139" on="0"/>
        <pt x="944" y="290" on="0"/>
        <pt x="944" y="426" on="1"/>
        <pt x="944" y="564" on="0"/>
        <pt x="779" y="721" on="0"/>
        <pt x="633" y="721" on="1"/>
        <pt x="457" y="721" on="0"/>
        <pt x="281" y="604" on="1"/>
        <pt x="140" y="988" on="0"/>
        <pt x="41" y="1165" on="1"/>
      </contour>
    </TTGlyph>
    <TTGlyph name="uni0E57" xMin="76" yMin="-25" xMax="1655" yMax="1167">
      <contour>
        <pt x="967" y="477" on="1"/>
        <pt x="967" y="620" on="0"/>
        <pt x="931" y="719" on="0"/>
        <pt x="881" y="719" on="1"/>
        <pt x="830" y="719" on="0"/>
        <pt x="791" y="592" on="0"/>
        <pt x="791" y="459" on="1"/>
        <pt x="791" y="403" on="1"/>
        <pt x="522" y="403" on="1"/>
        <pt x="522" y="459" on="1"/>
        <pt x="522" y="592" on="0"/>
        <pt x="486" y="719" on="0"/>
        <pt x="436" y="719" on="1"/>
        <pt x="389" y="719" on="0"/>
        <pt x="348" y="611" on="0"/>
        <pt x="348" y="477" on="1"/>
        <pt x="348" y="312" on="0"/>
        <pt x="408" y="211" on="1"/>
        <pt x="451" y="338" on="0"/>
        <pt x="596" y="338" on="1"/>
        <pt x="677" y="338" on="0"/>
        <pt x="776" y="245" on="0"/>
        <pt x="776" y="160" on="1"/>
        <pt x="776" y="72" on="0"/>
        <pt x="661" y="-25" on="0"/>
        <pt x="559" y="-25" on="1"/>
        <pt x="417" y="-25" on="0"/>
        <pt x="197" y="92" on="0"/>
        <pt x="76" y="312" on="0"/>
        <pt x="76" y="461" on="1"/>
        <pt x="76" y="930" on="0"/>
        <pt x="397" y="930" on="1"/>
        <pt x="612" y="930" on="0"/>
        <pt x="662" y="700" on="1"/>
        <pt x="683" y="807" on="0"/>
        <pt x="830" y="930" on="0"/>
        <pt x="938" y="930" on="1"/>
        <pt x="1094" y="930" on="0"/>
        <pt x="1239" y="730" on="0"/>
        <pt x="1239" y="516" on="1"/>
        <pt x="1239" y="229" on="1"/>
        <pt x="1317" y="229" on="0"/>
        <pt x="1382" y="301" on="0"/>
        <pt x="1382" y="403" on="1"/>
        <pt x="1382" y="1167" on="1"/>
        <pt x="1655" y="1167" on="1"/>
        <pt x="1655" y="365" on="1"/>
        <pt x="1655" y="0" on="0"/>
        <pt x="1282" y="0" on="1"/>
        <pt x="967" y="0" on="1"/>
      </contour>
      <contour>
        <pt x="655" y="158" on="1"/>
        <pt x="655" y="192" on="0"/>
        <pt x="617" y="233" on="0"/>
        <pt x="582" y="233" on="1"/>
        <pt x="550" y="233" on="0"/>
        <pt x="510" y="192" on="0"/>
        <pt x="510" y="158" on="1"/>
        <pt x="510" y="123" on="0"/>
        <pt x="550" y="82" on="0"/>
        <pt x="582" y="82" on="1"/>
        <pt x="617" y="82" on="0"/>
        <pt x="655" y="123" on="0"/>
      </contour>
    </TTGlyph>
    <TTGlyph name="uni0E58" xMin="109" yMin="-25" xMax="1294" yMax="1167">
      <contour>
        <pt x="109" y="403" on="1"/>
        <pt x="109" y="601" on="0"/>
        <pt x="367" y="854" on="0"/>
        <pt x="657" y="934" on="1"/>
        <pt x="826" y="980" on="0"/>
        <pt x="983" y="1090" on="0"/>
        <pt x="983" y="1167" on="1"/>
        <pt x="1266" y="1167" on="1"/>
        <pt x="1266" y="996" on="0"/>
        <pt x="1042" y="787" on="0"/>
        <pt x="784" y="715" on="1"/>
        <pt x="612" y="667" on="0"/>
        <pt x="456" y="585" on="0"/>
        <pt x="383" y="476" on="0"/>
        <pt x="383" y="401" on="1"/>
        <pt x="383" y="324" on="0"/>
        <pt x="465" y="226" on="0"/>
        <pt x="539" y="217" on="1"/>
        <pt x="558" y="269" on="0"/>
        <pt x="569" y="406" on="1"/>
        <pt x="666" y="387" on="0"/>
        <pt x="805" y="262" on="1"/>
        <pt x="877" y="197" on="0"/>
        <pt x="970" y="143" on="0"/>
        <pt x="1010" y="143" on="1"/>
        <pt x="1055" y="143" on="0"/>
        <pt x="1112" y="194" on="0"/>
        <pt x="1126" y="258" on="1"/>
        <pt x="1089" y="221" on="0"/>
        <pt x="1026" y="221" on="1"/>
        <pt x="946" y="221" on="0"/>
        <pt x="852" y="316" on="0"/>
        <pt x="852" y="397" on="1"/>
        <pt x="852" y="478" on="0"/>
        <pt x="961" y="575" on="0"/>
        <pt x="1053" y="575" on="1"/>
        <pt x="1165" y="575" on="0"/>
        <pt x="1294" y="427" on="0"/>
        <pt x="1294" y="299" on="1"/>
        <pt x="1294" y="146" on="0"/>
        <pt x="1148" y="-20" on="0"/>
        <pt x="1012" y="-20" on="1"/>
        <pt x="951" y="-20" on="0"/>
        <pt x="854" y="22" on="0"/>
        <pt x="774" y="79" on="0"/>
        <pt x="708" y="138" on="0"/>
        <pt x="680" y="156" on="1"/>
        <pt x="670" y="116" on="0"/>
        <pt x="628" y="10" on="0"/>
        <pt x="606" y="-25" on="1"/>
        <pt x="366" y="-25" on="0"/>
        <pt x="109" y="194" on="0"/>
      </contour>
      <contour>
        <pt x="1118" y="397" on="1"/>
        <pt x="1118" y="431" on="0"/>
        <pt x="1076" y="469" on="0"/>
        <pt x="1042" y="469" on="1"/>
        <pt x="1011" y="469" on="0"/>
        <pt x="971" y="431" on="0"/>
        <pt x="971" y="397" on="1"/>
        <pt x="971" y="362" on="0"/>
        <pt x="1010" y="326" on="0"/>
        <pt x="1042" y="326" on="1"/>
        <pt x="1118" y="326" on="0"/>
      </contour>
    </TTGlyph>
    <TTGlyph name="uni0E59" xMin="115" yMin="-25" xMax="1368" yMax="1167">
      <contour>
        <pt x="1100" y="854" on="1"/>
        <pt x="1142" y="910" on="0"/>
        <pt x="1182" y="1051" on="0"/>
        <pt x="1182" y="1167" on="1"/>
        <pt x="1368" y="1167" on="1"/>
        <pt x="1368" y="765" on="0"/>
        <pt x="1081" y="618" on="1"/>
        <pt x="1026" y="699" on="0"/>
        <pt x="961" y="772" on="0"/>
        <pt x="930" y="793" on="1"/>
        <pt x="924" y="783" on="0"/>
        <pt x="891" y="750" on="1"/>
        <pt x="934" y="698" on="0"/>
        <pt x="1010" y="532" on="1"/>
        <pt x="1253" y="0" on="1"/>
        <pt x="956" y="0" on="1"/>
        <pt x="754" y="457" on="1"/>
        <pt x="684" y="615" on="0"/>
        <pt x="593" y="717" on="0"/>
        <pt x="530" y="717" on="1"/>
        <pt x="387" y="717" on="0"/>
        <pt x="387" y="477" on="1"/>
        <pt x="387" y="378" on="0"/>
        <pt x="411" y="254" on="0"/>
        <pt x="438" y="203" on="1"/>
        <pt x="454" y="262" on="0"/>
        <pt x="559" y="330" on="0"/>
        <pt x="627" y="330" on="1"/>
        <pt x="705" y="330" on="0"/>
        <pt x="807" y="232" on="0"/>
        <pt x="807" y="150" on="1"/>
        <pt x="807" y="-25" on="0"/>
        <pt x="575" y="-25" on="1"/>
        <pt x="439" y="-25" on="0"/>
        <pt x="231" y="90" on="0"/>
        <pt x="115" y="309" on="0"/>
        <pt x="115" y="461" on="1"/>
        <pt x="115" y="690" on="0"/>
        <pt x="332" y="930" on="0"/>
        <pt x="539" y="930" on="1"/>
        <pt x="692" y="930" on="0"/>
        <pt x="786" y="854" on="1"/>
        <pt x="819" y="878" on="0"/>
        <pt x="880" y="963" on="0"/>
        <pt x="891" y="1001" on="1"/>
        <pt x="1002" y="958" on="0"/>
      </contour>
      <contour>
        <pt x="686" y="150" on="1"/>
        <pt x="686" y="184" on="0"/>
        <pt x="646" y="223" on="0"/>
        <pt x="612" y="223" on="1"/>
        <pt x="580" y="223" on="0"/>
        <pt x="541" y="183" on="0"/>
        <pt x="541" y="145" on="1"/>
        <pt x="541" y="113" on="0"/>
        <pt x="577" y="74" on="0"/>
        <pt x="608" y="74" on="1"/>
        <pt x="643" y="74" on="0"/>
        <pt x="686" y="115" on="0"/>
      </contour>
    </TTGlyph>
    <TTGlyph name="uni0E5A" xMin="16" yMin="0" xMax="1348" yMax="1126">
      <contour>
        <pt x="631" y="0" on="1"/>
        <pt x="631" y="756" on="1"/>
        <pt x="498" y="647" on="0"/>
        <pt x="289" y="647" on="1"/>
        <pt x="164" y="647" on="0"/>
        <pt x="16" y="759" on="0"/>
        <pt x="16" y="858" on="1"/>
        <pt x="16" y="944" on="0"/>
        <pt x="125" y="1042" on="0"/>
        <pt x="215" y="1042" on="1"/>
        <pt x="304" y="1042" on="0"/>
        <pt x="412" y="948" on="0"/>
        <pt x="412" y="870" on="1"/>
        <pt x="412" y="810" on="0"/>
        <pt x="385" y="772" on="1"/>
        <pt x="499" y="809" on="0"/>
        <pt x="640" y="985" on="0"/>
        <pt x="686" y="1126" on="1"/>
        <pt x="903" y="1126" on="1"/>
        <pt x="903" y="0" on="1"/>
      </contour>
      <contour>
        <pt x="137" y="858" on="1"/>
        <pt x="137" y="824" on="0"/>
        <pt x="180" y="782" on="0"/>
        <pt x="215" y="782" on="1"/>
        <pt x="247" y="782" on="0"/>
        <pt x="291" y="824" on="0"/>
        <pt x="291" y="858" on="1"/>
        <pt x="291" y="893" on="0"/>
        <pt x="247" y="934" on="0"/>
        <pt x="215" y="934" on="1"/>
        <pt x="180" y="934" on="0"/>
        <pt x="137" y="893" on="0"/>
      </contour>
      <contour>
        <pt x="1075" y="1126" on="1"/>
        <pt x="1348" y="1126" on="1"/>
        <pt x="1348" y="0" on="1"/>
        <pt x="1075" y="0" on="1"/>
      </contour>
    </TTGlyph>
    <TTGlyph name="uni0E5B" xMin="74" yMin="-25" xMax="1921" yMax="930">
      <contour>
        <pt x="1921" y="535" on="1"/>
        <pt x="1921" y="438" on="1"/>
        <pt x="1659" y="383" on="1"/>
        <pt x="1550" y="170" on="1"/>
        <pt x="1534" y="170" on="1"/>
        <pt x="1411" y="438" on="1"/>
        <pt x="1262" y="90" on="1"/>
        <pt x="1245" y="90" on="1"/>
        <pt x="1116" y="401" on="1"/>
        <pt x="1037" y="180" on="0"/>
        <pt x="767" y="-25" on="0"/>
        <pt x="584" y="-25" on="1"/>
        <pt x="342" y="-25" on="0"/>
        <pt x="74" y="230" on="0"/>
        <pt x="74" y="453" on="1"/>
        <pt x="74" y="668" on="0"/>
        <pt x="320" y="930" on="0"/>
        <pt x="526" y="930" on="1"/>
        <pt x="683" y="930" on="0"/>
        <pt x="874" y="726" on="0"/>
        <pt x="874" y="561" on="1"/>
        <pt x="874" y="436" on="0"/>
        <pt x="745" y="287" on="0"/>
        <pt x="633" y="287" on="1"/>
        <pt x="546" y="287" on="0"/>
        <pt x="440" y="383" on="0"/>
        <pt x="440" y="465" on="1"/>
        <pt x="440" y="541" on="0"/>
        <pt x="539" y="639" on="0"/>
        <pt x="616" y="639" on="1"/>
        <pt x="667" y="639" on="0"/>
        <pt x="707" y="616" on="1"/>
        <pt x="700" y="686" on="0"/>
        <pt x="619" y="766" on="0"/>
        <pt x="553" y="766" on="1"/>
        <pt x="448" y="766" on="0"/>
        <pt x="319" y="592" on="0"/>
        <pt x="319" y="453" on="1"/>
        <pt x="319" y="322" on="0"/>
        <pt x="483" y="172" on="0"/>
        <pt x="627" y="172" on="1"/>
        <pt x="745" y="172" on="0"/>
        <pt x="905" y="280" on="0"/>
        <pt x="1022" y="519" on="0"/>
        <pt x="1077" y="750" on="1"/>
        <pt x="1100" y="750" on="1"/>
        <pt x="1257" y="354" on="1"/>
        <pt x="1399" y="680" on="1"/>
        <pt x="1419" y="680" on="1"/>
        <pt x="1548" y="401" on="1"/>
        <pt x="1647" y="594" on="1"/>
      </contour>
      <contour>
        <pt x="559" y="467" on="1"/>
        <pt x="559" y="432" on="0"/>
        <pt x="600" y="393" on="0"/>
        <pt x="635" y="393" on="1"/>
        <pt x="667" y="393" on="0"/>
        <pt x="707" y="432" on="0"/>
        <pt x="707" y="467" on="1"/>
        <pt x="707" y="501" on="0"/>
        <pt x="667" y="537" on="0"/>
        <pt x="635" y="537" on="1"/>
        <pt x="600" y="537" on="0"/>
        <pt x="559" y="501" on="0"/>
      </contour>
    </TTGlyph>
    <TTGlyph name="uni200C" xMin="-54" yMin="-339" xMax="54" yMax="1613">
      <contour>
        <pt x="-54" y="-339" on="1"/>
        <pt x="-54" y="1613" on="1"/>
        <pt x="54" y="1613" on="1"/>
        <pt x="54" y="-339" on="1"/>
      </contour>
    </TTGlyph>
    <TTGlyph name="uni200D" xMin="-299" yMin="-338" xMax="299" yMax="1613">
      <contour>
        <pt x="74" y="1323" on="1"/>
        <pt x="299" y="1103" on="1"/>
        <pt x="224" y="1030" on="1"/>
        <pt x="54" y="1199" on="1"/>
        <pt x="54" y="-338" on="1"/>
        <pt x="-54" y="-338" on="1"/>
        <pt x="-54" y="1199" on="1"/>
        <pt x="-224" y="1030" on="1"/>
        <pt x="-299" y="1103" on="1"/>
        <pt x="-74" y="1323" on="1"/>
        <pt x="-299" y="1540" on="1"/>
        <pt x="-224" y="1613" on="1"/>
        <pt x="0" y="1393" on="1"/>
        <pt x="224" y="1613" on="1"/>
        <pt x="299" y="1539" on="1"/>
      </contour>
    </TTGlyph>
    <TTGlyph name="uni25CC" xMin="102" yMin="82" xMax="1130" yMax="1110">
      <contour>
        <pt x="997" y="918" on="1"/>
        <pt x="997" y="860" on="0"/>
        <pt x="940" y="860" on="1"/>
        <pt x="881" y="860" on="0"/>
        <pt x="881" y="918" on="1"/>
        <pt x="881" y="977" on="0"/>
        <pt x="940" y="977" on="1"/>
        <pt x="997" y="977" on="0"/>
      </contour>
      <contour>
        <pt x="848" y="1016" on="1"/>
        <pt x="848" y="958" on="0"/>
        <pt x="793" y="958" on="1"/>
        <pt x="731" y="958" on="0"/>
        <pt x="731" y="1016" on="1"/>
        <pt x="731" y="1075" on="0"/>
        <pt x="793" y="1075" on="1"/>
        <pt x="848" y="1075" on="0"/>
      </contour>
      <contour>
        <pt x="1096" y="770" on="1"/>
        <pt x="1096" y="711" on="0"/>
        <pt x="1036" y="711" on="1"/>
        <pt x="979" y="711" on="0"/>
        <pt x="979" y="770" on="1"/>
        <pt x="979" y="827" on="0"/>
        <pt x="1038" y="827" on="1"/>
        <pt x="1096" y="827" on="0"/>
      </contour>
      <contour>
        <pt x="1130" y="596" on="1"/>
        <pt x="1130" y="539" on="0"/>
        <pt x="1075" y="539" on="1"/>
        <pt x="1016" y="539" on="0"/>
        <pt x="1016" y="596" on="1"/>
        <pt x="1016" y="653" on="0"/>
        <pt x="1075" y="653" on="1"/>
        <pt x="1130" y="653" on="0"/>
      </contour>
      <contour>
        <pt x="674" y="1053" on="1"/>
        <pt x="674" y="993" on="0"/>
        <pt x="616" y="993" on="1"/>
        <pt x="557" y="993" on="0"/>
        <pt x="557" y="1053" on="1"/>
        <pt x="557" y="1110" on="0"/>
        <pt x="616" y="1110" on="1"/>
        <pt x="674" y="1110" on="0"/>
      </contour>
      <contour>
        <pt x="502" y="1016" on="1"/>
        <pt x="502" y="958" on="0"/>
        <pt x="442" y="958" on="1"/>
        <pt x="385" y="958" on="0"/>
        <pt x="385" y="1016" on="1"/>
        <pt x="385" y="1075" on="0"/>
        <pt x="442" y="1075" on="1"/>
        <pt x="502" y="1075" on="0"/>
      </contour>
      <contour>
        <pt x="1096" y="422" on="1"/>
        <pt x="1096" y="365" on="0"/>
        <pt x="1036" y="365" on="1"/>
        <pt x="979" y="365" on="0"/>
        <pt x="979" y="422" on="1"/>
        <pt x="979" y="481" on="0"/>
        <pt x="1036" y="481" on="1"/>
        <pt x="1096" y="481" on="0"/>
      </contour>
      <contour>
        <pt x="354" y="918" on="1"/>
        <pt x="354" y="860" on="0"/>
        <pt x="295" y="860" on="1"/>
        <pt x="238" y="860" on="0"/>
        <pt x="238" y="915" on="1"/>
        <pt x="238" y="977" on="0"/>
        <pt x="295" y="977" on="1"/>
        <pt x="354" y="977" on="0"/>
      </contour>
      <contour>
        <pt x="997" y="272" on="1"/>
        <pt x="997" y="215" on="0"/>
        <pt x="940" y="215" on="1"/>
        <pt x="881" y="215" on="0"/>
        <pt x="881" y="272" on="1"/>
        <pt x="881" y="332" on="0"/>
        <pt x="940" y="332" on="1"/>
        <pt x="997" y="332" on="0"/>
      </contour>
      <contour>
        <pt x="848" y="174" on="1"/>
        <pt x="848" y="119" on="0"/>
        <pt x="793" y="119" on="1"/>
        <pt x="731" y="119" on="0"/>
        <pt x="731" y="174" on="1"/>
        <pt x="731" y="233" on="0"/>
        <pt x="793" y="233" on="1"/>
        <pt x="848" y="233" on="0"/>
      </contour>
      <contour>
        <pt x="254" y="770" on="1"/>
        <pt x="254" y="711" on="0"/>
        <pt x="199" y="711" on="1"/>
        <pt x="137" y="711" on="0"/>
        <pt x="137" y="770" on="1"/>
        <pt x="137" y="827" on="0"/>
        <pt x="197" y="827" on="1"/>
        <pt x="254" y="827" on="0"/>
      </contour>
      <contour>
        <pt x="219" y="596" on="1"/>
        <pt x="219" y="539" on="0"/>
        <pt x="162" y="539" on="1"/>
        <pt x="102" y="539" on="0"/>
        <pt x="102" y="596" on="1"/>
        <pt x="102" y="653" on="0"/>
        <pt x="162" y="653" on="1"/>
        <pt x="219" y="653" on="0"/>
      </contour>
      <contour>
        <pt x="674" y="141" on="1"/>
        <pt x="674" y="82" on="0"/>
        <pt x="616" y="82" on="1"/>
        <pt x="557" y="82" on="0"/>
        <pt x="557" y="141" on="1"/>
        <pt x="557" y="199" on="0"/>
        <pt x="616" y="199" on="1"/>
        <pt x="674" y="199" on="0"/>
      </contour>
      <contour>
        <pt x="254" y="422" on="1"/>
        <pt x="254" y="365" on="0"/>
        <pt x="197" y="365" on="1"/>
        <pt x="137" y="365" on="0"/>
        <pt x="137" y="422" on="1"/>
        <pt x="137" y="481" on="0"/>
        <pt x="197" y="481" on="1"/>
        <pt x="254" y="481" on="0"/>
      </contour>
      <contour>
        <pt x="502" y="178" on="1"/>
        <pt x="502" y="119" on="0"/>
        <pt x="442" y="119" on="1"/>
        <pt x="385" y="119" on="0"/>
        <pt x="385" y="174" on="1"/>
        <pt x="385" y="233" on="0"/>
        <pt x="442" y="233" on="1"/>
        <pt x="502" y="233" on="0"/>
      </contour>
      <contour>
        <pt x="354" y="272" on="1"/>
        <pt x="354" y="215" on="0"/>
        <pt x="295" y="215" on="1"/>
        <pt x="238" y="215" on="0"/>
        <pt x="238" y="272" on="1"/>
        <pt x="238" y="332" on="0"/>
        <pt x="295" y="332" on="1"/>
        <pt x="354" y="332" on="0"/>
      </contour>
    </TTGlyph>
</ttFont>
